{
.appVersion = "1270";
DisplayStrings = (
"/quotedblleft A/quoteright A/quoteright A/quoteleft/quotesinglbase/quotesinglbase/quotedblbase A/quotedblleft/quotedblright/quotedblbase T/quotedblbase/quotedblbase Y/quotedblbase/quotedblbase V/quotedblbase"
);
copyright = "Copyright © 2018 by Adrien Midzic. All rights reserved.";
customParameters = (
{
name = panose;
value = (
0,
0,
5,
0,
0,
0,
0,
0,
0,
0
);
},
{
name = unicodeRanges;
value = (
0,
1,
2,
7,
9
);
},
{
name = codePageRanges;
value = (
1252,
1250,
1251,
1253,
1254,
1257
);
},
{
name = glyphOrder;
value = (
.notdef,
A,
Aacute,
Abreve,
Acircumflex,
Adieresis,
Agrave,
Amacron,
Aogonek,
Aring,
Atilde,
AE,
B,
C,
Cacute,
Ccaron,
Ccedilla,
Cdotaccent,
D,
Eth,
Dcaron,
Dcroat,
E,
Eacute,
Ecaron,
Ecircumflex,
Edieresis,
Edotaccent,
Egrave,
Emacron,
Eogonek,
F,
G,
Gbreve,
Gdotaccent,
H,
Hbar,
I,
Iacute,
Icircumflex,
Idieresis,
Idotaccent,
Igrave,
Imacron,
Iogonek,
J,
K,
L,
Lacute,
Lcaron,
Ldot,
Lslash,
M,
N,
Nacute,
Ncaron,
Eng,
Ntilde,
O,
Oacute,
Ocircumflex,
Odieresis,
Ograve,
Ohungarumlaut,
Omacron,
Oslash,
Otilde,
OE,
P,
Thorn,
Q,
R,
Racute,
Rcaron,
S,
Sacute,
Scaron,
Scedilla,
T,
Tbar,
Tcaron,
U,
Uacute,
Ucircumflex,
Udieresis,
Ugrave,
Uhungarumlaut,
Umacron,
Uogonek,
Uring,
V,
W,
Wacute,
Wcircumflex,
Wdieresis,
Wgrave,
X,
Y,
Yacute,
Ycircumflex,
Ydieresis,
Ygrave,
Z,
Zacute,
Zcaron,
Zdotaccent,
A.ss02,
AE.ss02,
B.ss02,
C.ss02,
Ccedilla.ss02,
D.ss02,
E.ss02,
F.ss02,
G.ss02,
H.ss02,
I.ss02,
J.ss02,
K.ss02,
L.ss02,
M.ss02,
N.ss02,
O.ss02,
Oacute.ss02,
Ocircumflex.ss02,
Odieresis.ss02,
Ograve.ss02,
Ohungarumlaut.ss02,
Omacron.ss02,
Oslash.ss02,
Otilde.ss02,
P.ss02,
Q.ss02,
R.ss02,
S.ss02,
T.ss02,
U.ss02,
V.ss02,
W.ss02,
X.ss02,
Y.ss02,
Z.ss02,
A.ss03,
AE.ss03,
B.ss03,
C.ss03,
Ccedilla.ss03,
D.ss03,
E.ss03,
F.ss03,
G.ss03,
H.ss03,
I.ss03,
J.ss03,
K.ss03,
L.ss03,
M.ss03,
N.ss03,
O.ss03,
Oacute.ss03,
Ocircumflex.ss03,
Odieresis.ss03,
Ograve.ss03,
Ohungarumlaut.ss03,
Omacron.ss03,
Oslash.ss03,
Otilde.ss03,
P.ss03,

glyphs = (
{
glyphname = A;
lastChange = "2019-10-31 17:03:21 +0000";
layers = (
{
hints = (
{
horizontal = 1;
place = "{161, 102}";
type = Stem;
},
{
place = "{21, 711}";
type = Stem;
}
);
layerId = "8D160AFA-A4A8-46CF-B5C1-48E538516704";
paths = (
{
closed = 1;
nodes = (
"153 -8 LINE",
"218 153 LINE",
"535 153 LINE",
"600 -8 LINE",
"744 -8 LINE",
"435 687 LINE",
"318 687 LINE",
"9 -8 LINE"
);
},
{
closed = 1;
nodes = (
"328 671 LINE",
"425 671 LINE",
"720 8 LINE",
"610 8 LINE",
"545 169 LINE",
"208 169 LINE",
"143 8 LINE",
"33 8 LINE"
);
},
{
closed = 1;
nodes = (
"377 532 LINE",
"487 271 LINE",
"266 271 LINE"
);
},
{
closed = 1;
nodes = (
"511 255 LINE",
"377 572 LINE",
"242 255 LINE"
);
}
);
width = 753;
}
);
leftKerningGroup = A;
note = A;
rightKerningGroup = A;
unicode = 0041;
},
{
glyphname = Aacute;
lastChange = "2018-03-11 16:48:06 +0000";
layers = (
{
hints = (
{
horizontal = 1;
place = "{161, 102}";
type = Stem;
},
{
horizontal = 1;
place = "{748, 171}";
type = Stem;
},
{
place = "{21, 711}";
type = Stem;
}
);
layerId = "8D160AFA-A4A8-46CF-B5C1-48E538516704";
paths = (
{
closed = 1;
nodes = (
"153 -8 LINE",
"218 153 LINE",
"535 153 LINE",
"600 -8 LINE",
"744 -8 LINE",
"435 687 LINE",
"318 687 LINE",
"9 -8 LINE"
);
},
{
closed = 1;
nodes = (
"328 671 LINE",
"425 671 LINE",
"720 8 LINE",
"610 8 LINE",
"545 169 LINE",
"208 169 LINE",
"143 8 LINE",
"33 8 LINE"
);
},
{
closed = 1;
nodes = (
"377 532 LINE",
"487 271 LINE",
"266 271 LINE"
);
},
{
closed = 1;
nodes = (
"511 255 LINE",
"377 572 LINE",
"242 255 LINE"
);
},
{
closed = 1;
nodes = (
"431 740 LINE",
"565 927 LINE",
"411 927 LINE",
"313 740 LINE"
);
},
{
closed = 1;
nodes = (
"421 911 LINE",
"533 911 LINE",
"423 756 LINE",
"339 756 LINE"
);
}
);
width = 753;
}
);
leftKerningGroup = A;
note = Aacute;
rightKerningGroup = A;
unicode = 00C1;
},
{
glyphname = Abreve;
lastChange = "2018-03-11 16:48:06 +0000";
layers = (
{
hints = (
{
horizontal = 1;
place = "{161, 102}";
type = Stem;
},
{
horizontal = 1;
place = "{748, 88}";
type = Stem;
},
{
place = "{212, 101}";
type = Stem;
},
{
place = "{434, 101}";
type = Stem;
}
);
layerId = "8D160AFA-A4A8-46CF-B5C1-48E538516704";
paths = (
{
closed = 1;
nodes = (
"153 -8 LINE",
"218 153 LINE",
"535 153 LINE",
"600 -8 LINE",
"744 -8 LINE",
"435 687 LINE",
"318 687 LINE",
"9 -8 LINE"
);
},
{
closed = 1;
nodes = (
"328 671 LINE",
"425 671 LINE",
"720 8 LINE",
"610 8 LINE",
"545 169 LINE",
"208 169 LINE",
"143 8 LINE",
"33 8 LINE"
);
},
{
closed = 1;
nodes = (
"377 532 LINE",
"487 271 LINE",
"266 271 LINE"
);
},
{
closed = 1;
nodes = (
"511 255 LINE",
"377 572 LINE",
"242 255 LINE"
);
},
{
closed = 1;
nodes = (
"499 740 OFFCURVE",
"546 847 OFFCURVE",
"543 927 CURVE",
"426 927 LINE",
"429 902 OFFCURVE",
"416 844 OFFCURVE",
"373 844 CURVE SMOOTH",
"330 844 OFFCURVE",
"319 901 OFFCURVE",
"321 927 CURVE",
"204 927 LINE",
"201 847 OFFCURVE",
"247 740 OFFCURVE",
"373 740 CURVE SMOOTH"
);
},
{
closed = 1;
nodes = (
"265 756 OFFCURVE",
"223 838 OFFCURVE",
"220 911 CURVE",
"305 911 LINE",
"308 879 OFFCURVE",
"326 828 OFFCURVE",
"373 828 CURVE SMOOTH",
"420 828 OFFCURVE",
"439 879 OFFCURVE",
"442 911 CURVE",
"527 911 LINE",
"524 838 OFFCURVE",
"481 756 OFFCURVE",
"373 756 CURVE SMOOTH"
);
}
);
width = 753;
}
);
leftKerningGroup = A;
note = Abreve;
rightKerningGroup = A;
unicode = 0102;
},
{
glyphname = Acircumflex;
lastChange = "2018-03-11 16:48:06 +0000";
layers = (
{
hints = (
{
horizontal = 1;
place = "{161, 102}";
type = Stem;
},
{
horizontal = 1;
place = "{748, 171}";
type = Stem;
},
{
place = "{21, 711}";
type = Stem;
}
);
layerId = "8D160AFA-A4A8-46CF-B5C1-48E538516704";
paths = (
{
closed = 1;
nodes = (
"153 -8 LINE",
"218 153 LINE",
"535 153 LINE",
"600 -8 LINE",
"744 -8 LINE",
"435 687 LINE",
"318 687 LINE",
"9 -8 LINE"
);
},
{
closed = 1;
nodes = (
"328 671 LINE",
"425 671 LINE",
"720 8 LINE",
"610 8 LINE",
"545 169 LINE",
"208 169 LINE",
"143 8 LINE",
"33 8 LINE"
);
},
{
closed = 1;
nodes = (
"377 532 LINE",
"487 271 LINE",
"266 271 LINE"
);
},
{
closed = 1;
nodes = (
"511 255 LINE",
"377 572 LINE",
"242 255 LINE"
);
},
{
closed = 1;
nodes = (
"317 740 LINE",
"374 817 LINE",
"430 740 LINE",
"549 740 LINE",
"434 927 LINE",
"313 927 LINE",
"198 740 LINE"
);
},
{
closed = 1;
nodes = (
"321 911 LINE",
"426 911 LINE",
"521 756 LINE",
"438 756 LINE",
"374 845 LINE",
"309 756 LINE",
"226 756 LINE"
);
}
);
width = 753;
}
);
leftKerningGroup = A;
note = Acircumflex;
rightKerningGroup = A;
unicode = 00C2;
},
{
glyphname = Adieresis;
lastChange = "2018-03-11 16:48:06 +0000";
layers = (
{
hints = (
{
horizontal = 1;
place = "{161, 102}";
type = Stem;
},
{
horizontal = 1;
place = "{760, 111}";
type = Stem;
},
{
place = "{222, 111}";
type = Stem;
},
{
place = "{414, 111}";
type = Stem;
}
);
layerId = "8D160AFA-A4A8-46CF-B5C1-48E538516704";
paths = (
{
closed = 1;
nodes = (
"153 -8 LINE",
"218 153 LINE",
"535 153 LINE",
"600 -8 LINE",
"744 -8 LINE",
"435 687 LINE",
"318 687 LINE",
"9 -8 LINE"
);
},
{
closed = 1;
nodes = (
"328 671 LINE",
"425 671 LINE",
"720 8 LINE",
"610 8 LINE",
"545 169 LINE",
"208 169 LINE",
"143 8 LINE",
"33 8 LINE"
);
},
{
closed = 1;
nodes = (
"377 532 LINE",
"487 271 LINE",
"266 271 LINE"
);
},
{
closed = 1;
nodes = (
"511 255 LINE",
"377 572 LINE",
"242 255 LINE"
);
},
{
closed = 1;
nodes = (
"312 752 OFFCURVE",
"341 781 OFFCURVE",
"341 815 CURVE SMOOTH",
"341 850 OFFCURVE",
"313 879 OFFCURVE",
"278 879 CURVE SMOOTH",
"243 879 OFFCURVE",
"214 850 OFFCURVE",
"214 815 CURVE SMOOTH",
"214 780 OFFCURVE",
"243 752 OFFCURVE",
"278 752 CURVE SMOOTH"
);
},
{
closed = 1;
nodes = (
"252 768 OFFCURVE",
"230 789 OFFCURVE",
"230 815 CURVE SMOOTH",
"230 842 OFFCURVE",
"251 863 OFFCURVE",
"278 863 CURVE SMOOTH",
"304 863 OFFCURVE",
"325 841 OFFCURVE",
"325 815 CURVE SMOOTH",
"325 789 OFFCURVE",
"304 768 OFFCURVE",
"278 768 CURVE SMOOTH"
);
},
{
closed = 1;
nodes = (
"504 752 OFFCURVE",
"533 781 OFFCURVE",
"533 815 CURVE SMOOTH",
"533 850 OFFCURVE",
"505 879 OFFCURVE",
"470 879 CURVE SMOOTH",
"435 879 OFFCURVE",
"406 850 OFFCURVE",
"406 815 CURVE SMOOTH",
"406 780 OFFCURVE",
"435 752 OFFCURVE",
"470 752 CURVE SMOOTH"
);
},
{
closed = 1;
nodes = (
"444 768 OFFCURVE",
"422 789 OFFCURVE",
"422 815 CURVE SMOOTH",
"422 842 OFFCURVE",
"443 863 OFFCURVE",
"470 863 CURVE SMOOTH",
"496 863 OFFCURVE",
"517 841 OFFCURVE",
"517 815 CURVE SMOOTH",
"517 789 OFFCURVE",
"496 768 OFFCURVE",
"470 768 CURVE SMOOTH"
);
}
);
width = 753;
}
);
leftKerningGroup = A;
note = Adieresis;
rightKerningGroup = A;
unicode = 00C4;
},
{
glyphname = Agrave;
lastChange = "2018-03-11 16:48:06 +0000";
layers = (
{
hints = (
{
horizontal = 1;
place = "{161, 102}";
type = Stem;
},
{
horizontal = 1;
place = "{748, 171}";
type = Stem;
},
{
place = "{21, 711}";
type = Stem;
}
);
layerId = "8D160AFA-A4A8-46CF-B5C1-48E538516704";
paths = (
{
closed = 1;
nodes = (
"153 -8 LINE",
"218 153 LINE",
"535 153 LINE",
"600 -8 LINE",
"744 -8 LINE",
"435 687 LINE",
"318 687 LINE",
"9 -8 LINE"
);
},
{
closed = 1;
nodes = (
"328 671 LINE",
"425 671 LINE",
"720 8 LINE",
"610 8 LINE",
"545 169 LINE",
"208 169 LINE",
"143 8 LINE",
"33 8 LINE"
);
},
{
closed = 1;
nodes = (
"377 532 LINE",
"487 271 LINE",
"266 271 LINE"
);
},
{
closed = 1;
nodes = (
"511 255 LINE",
"377 572 LINE",
"242 255 LINE"
);
},
{
closed = 1;
nodes = (
"436 740 LINE",
"338 927 LINE",
"184 927 LINE",
"318 740 LINE"
);
},
{
closed = 1;
nodes = (
"216 911 LINE",
"328 911 LINE",
"410 756 LINE",
"326 756 LINE"
);
}
);
width = 753;
}
);
leftKerningGroup = A;
note = Agrave;
rightKerningGroup = A;
unicode = 00C0;
},
{
glyphname = Amacron;
lastChange = "2018-03-11 16:48:06 +0000";
layers = (
{
hints = (
{
horizontal = 1;
place = "{161, 102}";
type = Stem;
},
{
horizontal = 1;
place = "{763, 90}";
type = Stem;
},
{
place = "{235, 277}";
type = Stem;
}
);
layerId = "8D160AFA-A4A8-46CF-B5C1-48E538516704";
paths = (
{
closed = 1;
nodes = (
"153 -8 LINE",
"218 153 LINE",
"535 153 LINE",
"600 -8 LINE",
"744 -8 LINE",
"435 687 LINE",
"318 687 LINE",
"9 -8 LINE"
);
},
{
closed = 1;
nodes = (
"328 671 LINE",
"425 671 LINE",
"720 8 LINE",
"610 8 LINE",
"545 169 LINE",
"208 169 LINE",
"143 8 LINE",
"33 8 LINE"
);
},
{
closed = 1;
nodes = (
"377 532 LINE",
"487 271 LINE",
"266 271 LINE"
);
},
{
closed = 1;
nodes = (
"511 255 LINE",
"377 572 LINE",
"242 255 LINE"
);
},
{
closed = 1;
nodes = (
"520 755 LINE",
"520 861 LINE",
"227 861 LINE",
"227 755 LINE"
);
},
{
closed = 1;
nodes = (
"243 845 LINE",
"504 845 LINE",
"504 771 LINE",
"243 771 LINE"
);
}
);
width = 753;
}
);
leftKerningGroup = A;
note = Amacron;
rightKerningGroup = A;
unicode = 0100;
},
{
glyphname = Aogonek;
lastChange = "2018-03-11 16:48:06 +0000";
layers = (
{
hints = (
{
horizontal = 1;
place = "{-225, 88}";
type = Stem;
},
{
horizontal = 1;
place = "{161, 102}";
type = Stem;
},
{
place = "{597, 88}";
type = Stem;
}
);
layerId = "8D160AFA-A4A8-46CF-B5C1-48E538516704";
paths = (
{
closed = 1;
nodes = (
"753 -129 LINE",
"707 -130 OFFCURVE",
"693 -122 OFFCURVE",
"693 -94 CURVE SMOOTH",
"693 -60 OFFCURVE",
"738 -5 OFFCURVE",
"738 -5 CURVE",
"739 3 LINE",
"435 687 LINE",
"318 687 LINE",
"9 -8 LINE",
"153 -8 LINE",
"218 153 LINE",
"535 153 LINE",
"600 -8 LINE",
"635 -8 LINE",
"617 -27 OFFCURVE",
"589 -63 OFFCURVE",
"589 -109 CURVE SMOOTH",
"589 -211 OFFCURVE",
"706 -236 OFFCURVE",
"753 -233 CURVE"
);
},
{
closed = 1;
nodes = (
"687 -214 OFFCURVE",
"605 -188 OFFCURVE",
"605 -109 CURVE SMOOTH",
"605 -48 OFFCURVE",
"661 -6 OFFCURVE",
"661 -6 CURVE",
"656 8 LINE",
"610 8 LINE",
"545 169 LINE",
"208 169 LINE",
"143 8 LINE",
"33 8 LINE",
"328 671 LINE",
"425 671 LINE",
"723 1 LINE",
"712 -13 OFFCURVE",
"677 -60 OFFCURVE",
"677 -94 CURVE SMOOTH",
"677 -128 OFFCURVE",
"695 -143 OFFCURVE",
"737 -145 CURVE",
"737 -217 LINE"
);
},
{
closed = 1;
nodes = (
"377 532 LINE",
"487 271 LINE",
"266 271 LINE"
);
},
{
closed = 1;
nodes = (
"511 255 LINE",
"377 572 LINE",
"242 255 LINE"
);
}
);
width = 753;
}
);
leftKerningGroup = A;
note = Aogonek;
rightKerningGroup = A;
unicode = 0104;
},
{
glyphname = Aring;
lastChange = "2018-03-11 16:48:06 +0000";
layers = (
{
hints = (
{
horizontal = 1;
place = "{161, 102}";
type = Stem;
},
{
horizontal = 1;
place = "{743, 72}";
type = Stem;
},
{
horizontal = 1;
place = "{877, 72}";
type = Stem;
},
{
place = "{271, 72}";
type = Stem;
},
{
place = "{404, 72}";
type = Stem;
}
);
layerId = "8D160AFA-A4A8-46CF-B5C1-48E538516704";
paths = (
{
closed = 1;
nodes = (
"153 -8 LINE",
"218 153 LINE",
"535 153 LINE",
"600 -8 LINE",
"744 -8 LINE",
"435 687 LINE",
"318 687 LINE",
"9 -8 LINE"
);
},
{
closed = 1;
nodes = (
"328 671 LINE",
"425 671 LINE",
"720 8 LINE",
"610 8 LINE",
"545 169 LINE",
"208 169 LINE",
"143 8 LINE",
"33 8 LINE"
);
},
{
closed = 1;
nodes = (
"377 532 LINE",
"487 271 LINE",
"266 271 LINE"
);
},
{
closed = 1;
nodes = (
"511 255 LINE",
"377 572 LINE",
"242 255 LINE"
);
},
{
closed = 1;
nodes = (
"435 735 OFFCURVE",
"484 784 OFFCURVE",
"484 845 CURVE SMOOTH",
"484 907 OFFCURVE",
"435 957 OFFCURVE",
"373 957 CURVE SMOOTH",
"311 957 OFFCURVE",
"263 908 OFFCURVE",
"263 845 CURVE SMOOTH",
"263 783 OFFCURVE",
"311 735 OFFCURVE",
"373 735 CURVE SMOOTH"
);
},
{
closed = 1;
nodes = (
"320 751 OFFCURVE",
"279 792 OFFCURVE",
"279 845 CURVE SMOOTH",
"279 899 OFFCURVE",
"320 941 OFFCURVE",
"373 941 CURVE SMOOTH",
"426 941 OFFCURVE",
"468 898 OFFCURVE",
"468 845 CURVE SMOOTH",
"468 793 OFFCURVE",
"426 751 OFFCURVE",
"373 751 CURVE SMOOTH"
);
},
{
closed = 1;
nodes = (
"360 823 OFFCURVE",
"351 832 OFFCURVE",
"351 845 CURVE SMOOTH",
"351 859 OFFCURVE",
"360 869 OFFCURVE",
"373 869 CURVE SMOOTH",
"386 869 OFFCURVE",
"396 858 OFFCURVE",
"396 845 CURVE SMOOTH",
"396 833 OFFCURVE",
"386 823 OFFCURVE",
"373 823 CURVE SMOOTH"
);
},
{
closed = 1;
nodes = (
"395 807 OFFCURVE",
"412 824 OFFCURVE",
"412 845 CURVE SMOOTH",
"412 867 OFFCURVE",
"395 885 OFFCURVE",
"373 885 CURVE SMOOTH",
"352 885 OFFCURVE",
"335 867 OFFCURVE",
"335 845 CURVE SMOOTH",
"335 824 OFFCURVE",
"352 807 OFFCURVE",
"373 807 CURVE SMOOTH"
);
}
);
width = 753;
}
);
leftKerningGroup = A;
note = Aring;
rightKerningGroup = A;
unicode = 00C5;
},
{
glyphname = Atilde;
lastChange = "2018-03-11 16:48:06 +0000";
layers = (
{
hints = (
{
horizontal = 1;
place = "{161, 102}";
type = Stem;
},
{
horizontal = 1;
place = "{743, 90}";
type = Stem;
},
{
place = "{21, 711}";
type = Stem;
},
{
horizontal = 1;
place = "{797, 90}";
type = Stem;
}
);
layerId = "8D160AFA-A4A8-46CF-B5C1-48E538516704";
paths = (
{
closed = 1;
nodes = (
"153 -8 LINE",
"218 153 LINE",
"535 153 LINE",
"600 -8 LINE",
"744 -8 LINE",
"435 687 LINE",
"318 687 LINE",
"9 -8 LINE"
);
},
{
closed = 1;
nodes = (
"328 671 LINE",
"425 671 LINE",
"720 8 LINE",
"610 8 LINE",
"545 169 LINE",
"208 169 LINE",
"143 8 LINE",
"33 8 LINE"
);
},
{
closed = 1;
nodes = (
"377 532 LINE",
"487 271 LINE",
"266 271 LINE"
);
},
{
closed = 1;
nodes = (
"511 255 LINE",
"377 572 LINE",
"242 255 LINE"
);
},
{
closed = 1;
nodes = (
"500 735 OFFCURVE",
"537 779 OFFCURVE",
"548 855 CURVE",
"450 891 LINE",
"444 867 OFFCURVE",
"445 841 OFFCURVE",
"427 841 CURVE SMOOTH",
"417 841 OFFCURVE",
"404 848 OFFCURVE",
"379 866 CURVE",
"374 868 LINE",
"381 868 LINE",
"381 869 LINE",
"375 869 LINE",
"357 881 OFFCURVE",
"331 895 OFFCURVE",
"299 895 CURVE SMOOTH",
"246 895 OFFCURVE",
"209 851 OFFCURVE",
"198 775 CURVE",
"296 739 LINE",
"302 763 OFFCURVE",
"301 789 OFFCURVE",
"319 789 CURVE SMOOTH",
"329 789 OFFCURVE",
"342 782 OFFCURVE",
"367 764 CURVE",
"372 762 LINE",
"365 762 LINE",
"365 761 LINE",
"371 761 LINE",
"389 749 OFFCURVE",
"415 735 OFFCURVE",
"447 735 CURVE SMOOTH"
);
},
{
closed = 1;
nodes = (
"424 751 OFFCURVE",
"402 759 OFFCURVE",
"379 776 CURVE",
"374 777 LINE",
"381 777 LINE",
"381 778 LINE",
"375 778 LINE",
"357 791 OFFCURVE",
"336 805 OFFCURVE",
"319 805 CURVE SMOOTH",
"293 805 OFFCURVE",
"287 780 OFFCURVE",
"284 761 CURVE",
"216 785 LINE",
"228 846 OFFCURVE",
"258 879 OFFCURVE",
"299 879 CURVE SMOOTH",
"322 879 OFFCURVE",
"344 871 OFFCURVE",
"367 854 CURVE",
"372 853 LINE",
"365 853 LINE",
"365 852 LINE",
"371 852 LINE",
"389 839 OFFCURVE",
"410 825 OFFCURVE",
"427 825 CURVE SMOOTH",
"453 825 OFFCURVE",
"459 850 OFFCURVE",
"462 869 CURVE",
"530 845 LINE",
"518 784 OFFCURVE",
"488 751 OFFCURVE",
"447 751 CURVE SMOOTH"
);
}
);
width = 753;
}
);
leftKerningGroup = A;
note = Atilde;
rightKerningGroup = A;
unicode = 00C3;
},
{
glyphname = AE;
lastChange = "2018-03-11 16:48:06 +0000";
layers = (
{
hints = (
{
horizontal = 1;
place = "{0, 102}";
type = Stem;
},
{
horizontal = 1;
place = "{161, 102}";
type = Stem;
},
{
horizontal = 1;
place = "{311, 102}";
type = Stem;
},
{
horizontal = 1;
place = "{577, 102}";
type = Stem;
},
{
place = "{499, 109}";
type = Stem;
}
);
layerId = "8D160AFA-A4A8-46CF-B5C1-48E538516704";
paths = (
{
closed = 1;
nodes = (
"129 -8 LINE",
"242 153 LINE",
"491 153 LINE",
"491 -8 LINE",
"1009 -8 LINE",
"1009 110 LINE",
"616 110 LINE",
"616 303 LINE",
"924 303 LINE",
"924 421 LINE",
"616 421 LINE",
"616 569 LINE",
"1003 569 LINE",
"1003 687 LINE",
"483 687 LINE",
"-16 -8 LINE"
);
},
{
closed = 1;
nodes = (
"491 671 LINE",
"987 671 LINE",
"987 585 LINE",
"600 585 LINE",
"600 405 LINE",
"908 405 LINE",
"908 319 LINE",
"600 319 LINE",
"600 94 LINE",
"993 94 LINE",
"993 8 LINE",
"507 8 LINE",
"507 169 LINE",
"234 169 LINE",
"121 8 LINE",
"16 8 LINE"
);
},
{
closed = 1;
nodes = (
"491 507 LINE",
"491 271 LINE",
"325 271 LINE"
);
},
{
closed = 1;
nodes = (
"507 255 LINE",
"507 557 LINE",
"295 255 LINE"
);
}
);
width = 1051;
}
);
leftKerningGroup = AE;
note = AE;
rightKerningGroup = AE;
unicode = 00C6;
},
{
glyphname = B;
lastChange = "2018-03-11 16:48:06 +0000";
layers = (
{
hints = (
{
horizontal = 1;
place = "{0, 102}";
type = Stem;
},
{
horizontal = 1;
place = "{311, 97}";
type = Stem;
},
{
horizontal = 1;
place = "{577, 102}";
type = Stem;
},
{
place = "{90, 109}";
type = Stem;
},
{
place = "{511, 115}";
type = Stem;
},
{
place = "{482, 107}";
type = Stem;
}
);
layerId = "8D160AFA-A4A8-46CF-B5C1-48E538516704";
paths = (
{
closed = 1;
nodes = (
"386 -8 LINE SMOOTH",
"544 -8 OFFCURVE",
"634 69 OFFCURVE",
"634 206 CURVE SMOOTH",
"634 288 OFFCURVE",
"587 350 OFFCURVE",
"512 371 CURVE",
"566 392 OFFCURVE",
"597 440 OFFCURVE",
"597 504 CURVE SMOOTH",
"597 627 OFFCURVE",
"522 687 OFFCURVE",
"368 687 CURVE SMOOTH",
"82 687 LINE",
"82 -8 LINE"
);
},
{
closed = 1;
nodes = (
"98 671 LINE",
"368 671 LINE SMOOTH",
"514 671 OFFCURVE",
"581 618 OFFCURVE",
"581 504 CURVE SMOOTH",
"581 435 OFFCURVE",
"541 388 OFFCURVE",
"475 377 CURVE",
"475 361 LINE",
"562 354 OFFCURVE",
"618 292 OFFCURVE",
"618 206 CURVE SMOOTH",
"618 79 OFFCURVE",
"535 8 OFFCURVE",
"386 8 CURVE SMOOTH",
"98 8 LINE"
);
},
{
closed = 1;
nodes = (
"207 303 LINE",
"378 303 LINE SMOOTH",
"463 303 OFFCURVE",
"503 272 OFFCURVE",
"503 208 CURVE SMOOTH",
"503 142 OFFCURVE",
"463 110 OFFCURVE",
"378 110 CURVE SMOOTH",
"207 110 LINE"
);
},
{
closed = 1;
nodes = (
"378 94 LINE SMOOTH",
"471 94 OFFCURVE",
"519 132 OFFCURVE",
"519 208 CURVE SMOOTH",
"519 282 OFFCURVE",
"471 319 OFFCURVE",
"378 319 CURVE SMOOTH",
"191 319 LINE",
"191 94 LINE"
);
},
{
closed = 1;
nodes = (
"207 569 LINE",
"354 569 LINE SMOOTH",
"427 569 OFFCURVE",
"470 565 OFFCURVE",
"474 496 CURVE",
"474 438 OFFCURVE",
"441 416 OFFCURVE",
"348 416 CURVE SMOOTH",
"207 416 LINE"
);
},
{
closed = 1;
nodes = (
"348 400 LINE SMOOTH",
"448 400 OFFCURVE",
"490 427 OFFCURVE",
"490 496 CURVE",
"486 579 OFFCURVE",
"427 585 OFFCURVE",
"354 585 CURVE SMOOTH",
"191 585 LINE",
"191 400 LINE"
);
}
);
width = 666;
}
);
note = B;
rightKerningGroup = B;
unicode = 0042;
},
{
glyphname = C;
lastChange = "2018-03-11 16:48:06 +0000";
layers = (
{
hints = (
{
horizontal = 1;
place = "{-15, 103}";
type = Stem;
},
{
horizontal = 1;
place = "{593, 102}";
type = Stem;
},
{
place = "{45, 113}";
type = Stem;
}
);
layerId = "8D160AFA-A4A8-46CF-B5C1-48E538516704";
paths = (
{
closed = 1;
nodes = (
"576 -23 OFFCURVE",
"647 30 OFFCURVE",
"663 39 CURVE",
"667 46 LINE",
"667 181 LINE",
"615 129 OFFCURVE",
"520 96 OFFCURVE",
"420 96 CURVE SMOOTH",
"267 96 OFFCURVE",
"166 193 OFFCURVE",
"166 340 CURVE SMOOTH",
"166 486 OFFCURVE",
"268 585 OFFCURVE",
"420 585 CURVE SMOOTH",
"537 585 OFFCURVE",
"628 524 OFFCURVE",
"633 516 CURVE",
"648 520 LINE",
"648 639 LINE",
"614 663 OFFCURVE",
"538 703 OFFCURVE",
"420 703 CURVE SMOOTH",
"201 706 OFFCURVE",
"34 546 OFFCURVE",
"37 340 CURVE SMOOTH",
"34 134 OFFCURVE",
"201 -26 OFFCURVE",
"420 -23 CURVE SMOOTH"
);
},
{
closed = 1;
nodes = (
"210 -10 OFFCURVE",
"50 142 OFFCURVE",
"53 340 CURVE",
"50 538 OFFCURVE",
"210 690 OFFCURVE",
"420 687 CURVE SMOOTH",
"527 687 OFFCURVE",
"596 654 OFFCURVE",
"632 631 CURVE",
"632 537 LINE",
"599 559 OFFCURVE",
"517 601 OFFCURVE",
"420 601 CURVE SMOOTH",
"259 601 OFFCURVE",
"150 495 OFFCURVE",
"150 340 CURVE SMOOTH",
"150 184 OFFCURVE",
"259 80 OFFCURVE",
"420 80 CURVE SMOOTH",
"509 80 OFFCURVE",
"594 105 OFFCURVE",
"651 147 CURVE",
"651 51 LINE",
"629 37 OFFCURVE",
"560 -7 OFFCURVE",
"420 -7 CURVE SMOOTH"
);
}
);
width = 704;
}
);
leftKerningGroup = C;
note = C;
rightKerningGroup = C;
unicode = 0043;
},
{
glyphname = Cacute;
lastChange = "2018-03-11 16:48:06 +0000";
layers = (
{
hints = (
{
horizontal = 1;
place = "{-15, 103}";
type = Stem;
},
{
horizontal = 1;
place = "{593, 102}";
type = Stem;
},
{
horizontal = 1;
place = "{748, 171}";
type = Stem;
},
{
place = "{45, 113}";
type = Stem;
}
);
layerId = "8D160AFA-A4A8-46CF-B5C1-48E538516704";
paths = (
{
closed = 1;
nodes = (
"576 -23 OFFCURVE",
"647 30 OFFCURVE",
"663 39 CURVE",
"667 46 LINE",
"667 181 LINE",
"615 129 OFFCURVE",
"520 96 OFFCURVE",
"420 96 CURVE SMOOTH",
"267 96 OFFCURVE",
"166 193 OFFCURVE",
"166 340 CURVE SMOOTH",
"166 486 OFFCURVE",
"268 585 OFFCURVE",
"420 585 CURVE SMOOTH",
"537 585 OFFCURVE",
"628 524 OFFCURVE",
"633 516 CURVE",
"648 520 LINE",
"648 639 LINE",
"614 663 OFFCURVE",
"538 703 OFFCURVE",
"420 703 CURVE SMOOTH",
"201 706 OFFCURVE",
"34 546 OFFCURVE",
"37 340 CURVE SMOOTH",
"34 134 OFFCURVE",
"201 -26 OFFCURVE",
"420 -23 CURVE SMOOTH"
);
},
{
closed = 1;
nodes = (
"210 -10 OFFCURVE",
"50 142 OFFCURVE",
"53 340 CURVE",
"50 538 OFFCURVE",
"210 690 OFFCURVE",
"420 687 CURVE SMOOTH",
"527 687 OFFCURVE",
"596 654 OFFCURVE",
"632 631 CURVE",
"632 537 LINE",
"599 559 OFFCURVE",
"517 601 OFFCURVE",
"420 601 CURVE SMOOTH",
"259 601 OFFCURVE",
"150 495 OFFCURVE",
"150 340 CURVE SMOOTH",
"150 184 OFFCURVE",
"259 80 OFFCURVE",
"420 80 CURVE SMOOTH",
"509 80 OFFCURVE",
"594 105 OFFCURVE",
"651 147 CURVE",
"651 51 LINE",
"629 37 OFFCURVE",
"560 -7 OFFCURVE",
"420 -7 CURVE SMOOTH"
);
},
{
closed = 1;
nodes = (
"476 740 LINE",
"610 927 LINE",
"456 927 LINE",
"358 740 LINE"
);
},
{
closed = 1;
nodes = (
"466 911 LINE",
"578 911 LINE",
"468 756 LINE",
"384 756 LINE"
);
}
);
width = 704;
}
);
leftKerningGroup = C;
note = Cacute;
rightKerningGroup = C;
unicode = 0106;
},
{
glyphname = Ccaron;
lastChange = "2018-03-11 16:48:06 +0000";
layers = (
{
hints = (
{
horizontal = 1;
place = "{-15, 103}";
type = Stem;
},
{
horizontal = 1;
place = "{593, 102}";
type = Stem;
},
{
horizontal = 1;
place = "{748, 171}";
type = Stem;
},
{
place = "{45, 113}";
type = Stem;
}
);
layerId = "8D160AFA-A4A8-46CF-B5C1-48E538516704";
paths = (
{
closed = 1;
nodes = (
"576 -23 OFFCURVE",
"647 30 OFFCURVE",
"663 39 CURVE",
"667 46 LINE",
"667 181 LINE",
"615 129 OFFCURVE",
"520 96 OFFCURVE",
"420 96 CURVE SMOOTH",
"267 96 OFFCURVE",
"166 193 OFFCURVE",
"166 340 CURVE SMOOTH",
"166 486 OFFCURVE",
"268 585 OFFCURVE",
"420 585 CURVE SMOOTH",
"537 585 OFFCURVE",
"628 524 OFFCURVE",
"633 516 CURVE",
"648 520 LINE",
"648 639 LINE",
"614 663 OFFCURVE",
"538 703 OFFCURVE",
"420 703 CURVE SMOOTH",
"201 706 OFFCURVE",
"34 546 OFFCURVE",
"37 340 CURVE SMOOTH",
"34 134 OFFCURVE",
"201 -26 OFFCURVE",
"420 -23 CURVE SMOOTH"
);
},
{
closed = 1;
nodes = (
"210 -10 OFFCURVE",
"50 142 OFFCURVE",
"53 340 CURVE",
"50 538 OFFCURVE",
"210 690 OFFCURVE",
"420 687 CURVE SMOOTH",
"527 687 OFFCURVE",
"596 654 OFFCURVE",
"632 631 CURVE",
"632 537 LINE",
"599 559 OFFCURVE",
"517 601 OFFCURVE",
"420 601 CURVE SMOOTH",
"259 601 OFFCURVE",
"150 495 OFFCURVE",
"150 340 CURVE SMOOTH",
"150 184 OFFCURVE",
"259 80 OFFCURVE",
"420 80 CURVE SMOOTH",
"509 80 OFFCURVE",
"594 105 OFFCURVE",
"651 147 CURVE",
"651 51 LINE",
"629 37 OFFCURVE",
"560 -7 OFFCURVE",
"420 -7 CURVE SMOOTH"
);
},
{
closed = 1;
nodes = (
"479 740 LINE",
"594 927 LINE",
"475 927 LINE",
"419 850 LINE",
"362 927 LINE",
"243 927 LINE",
"358 740 LINE"
);
},
{
closed = 1;
nodes = (
"271 911 LINE",
"354 911 LINE",
"419 822 LINE",
"483 911 LINE",
"566 911 LINE",
"471 756 LINE",
"366 756 LINE"
);
}
);
width = 704;
}
);
leftKerningGroup = C;
note = Ccaron;
rightKerningGroup = C;
unicode = 010C;
},
{
glyphname = Ccedilla;
lastChange = "2018-03-11 16:48:06 +0000";
layers = (
{
hints = (
{
horizontal = 1;
place = "{-211, 58}";
type = Stem;
},
{
horizontal = 1;
place = "{-14, 102}";
type = Stem;
},
{
horizontal = 1;
place = "{593, 102}";
type = Stem;
},
{
place = "{45, 113}";
type = Stem;
},
{
place = "{422, 81}";
type = Stem;
}
);
layerId = "8D160AFA-A4A8-46CF-B5C1-48E538516704";
paths = (
{
closed = 1;
nodes = (
"450 -221 OFFCURVE",
"511 -186 OFFCURVE",
"511 -128 CURVE SMOOTH",
"511 -83 OFFCURVE",
"467 -65 OFFCURVE",
"448 -59 CURVE",
"459 -22 LINE",
"588 -14 OFFCURVE",
"648 31 OFFCURVE",
"663 39 CURVE",
"667 46 LINE",
"667 181 LINE",
"615 129 OFFCURVE",
"520 96 OFFCURVE",
"420 96 CURVE SMOOTH",
"267 96 OFFCURVE",
"166 193 OFFCURVE",
"166 340 CURVE SMOOTH",
"166 486 OFFCURVE",
"268 585 OFFCURVE",
"420 585 CURVE SMOOTH",
"537 585 OFFCURVE",
"628 524 OFFCURVE",
"633 516 CURVE",
"648 520 LINE",
"648 639 LINE",
"614 663 OFFCURVE",
"538 703 OFFCURVE",
"420 703 CURVE SMOOTH",
"201 706 OFFCURVE",
"34 546 OFFCURVE",
"37 340 CURVE SMOOTH",
"34 151 OFFCURVE",
"176 -2 OFFCURVE",
"373 -21 CURVE",
"357 -77 LINE",
"364 -87 LINE",
"364 -87 OFFCURVE",
"414 -90 OFFCURVE",
"414 -117 CURVE SMOOTH",
"414 -134 OFFCURVE",
"388 -147 OFFCURVE",
"354 -145 CURVE",
"354 -219 LINE"
);
},
{
closed = 1;
nodes = (
"370 -161 LINE",
"405 -158 OFFCURVE",
"430 -141 OFFCURVE",
"430 -117 CURVE SMOOTH",
"430 -86 OFFCURVE",
"393 -75 OFFCURVE",
"375 -72 CURVE",
"393 -7 LINE",
"195 3 OFFCURVE",
"50 152 OFFCURVE",
"53 340 CURVE",
"50 538 OFFCURVE",
"210 690 OFFCURVE",
"420 687 CURVE SMOOTH",
"527 687 OFFCURVE",
"596 654 OFFCURVE",
"632 631 CURVE",
"632 537 LINE",
"599 559 OFFCURVE",
"517 601 OFFCURVE",
"420 601 CURVE SMOOTH",
"259 601 OFFCURVE",
"150 495 OFFCURVE",
"150 340 CURVE SMOOTH",
"150 184 OFFCURVE",
"259 80 OFFCURVE",
"420 80 CURVE SMOOTH",
"509 80 OFFCURVE",
"594 105 OFFCURVE",
"651 147 CURVE",
"651 51 LINE",
"630 38 OFFCURVE",
"569 -1 OFFCURVE",
"447 -6 CURVE",
"430 -63 LINE",
"436 -73 LINE",
"436 -73 OFFCURVE",
"495 -84 OFFCURVE",
"495 -128 CURVE SMOOTH",
"495 -173 OFFCURVE",
"447 -201 OFFCURVE",
"370 -203 CURVE"
);
}
);
width = 704;
}
);
leftKerningGroup = C;
note = Ccedilla;
rightKerningGroup = C;
unicode = 00C7;
},
{
glyphname = Cdotaccent;
lastChange = "2018-03-11 16:48:06 +0000";
layers = (
{
hints = (
{
horizontal = 1;
place = "{-15, 103}";
type = Stem;
},
{
horizontal = 1;
place = "{593, 102}";
type = Stem;
},
{
horizontal = 1;
place = "{753, 123}";
type = Stem;
},
{
place = "{45, 113}";
type = Stem;
},
{
place = "{357, 123}";
type = Stem;
}
);
layerId = "8D160AFA-A4A8-46CF-B5C1-48E538516704";
paths = (
{
closed = 1;
nodes = (
"576 -23 OFFCURVE",
"647 30 OFFCURVE",
"663 39 CURVE",
"667 46 LINE",
"667 181 LINE",
"615 129 OFFCURVE",
"520 96 OFFCURVE",
"420 96 CURVE SMOOTH",
"267 96 OFFCURVE",
"166 193 OFFCURVE",
"166 340 CURVE SMOOTH",
"166 486 OFFCURVE",
"268 585 OFFCURVE",
"420 585 CURVE SMOOTH",
"537 585 OFFCURVE",
"628 524 OFFCURVE",
"633 516 CURVE",
"648 520 LINE",
"648 639 LINE",
"614 663 OFFCURVE",
"538 703 OFFCURVE",
"420 703 CURVE SMOOTH",
"201 706 OFFCURVE",
"34 546 OFFCURVE",
"37 340 CURVE SMOOTH",
"34 134 OFFCURVE",
"201 -26 OFFCURVE",
"420 -23 CURVE SMOOTH"
);
},
{
closed = 1;
nodes = (
"210 -10 OFFCURVE",
"50 142 OFFCURVE",
"53 340 CURVE",
"50 538 OFFCURVE",
"210 690 OFFCURVE",
"420 687 CURVE SMOOTH",
"527 687 OFFCURVE",
"596 654 OFFCURVE",
"632 631 CURVE",
"632 537 LINE",
"599 559 OFFCURVE",
"517 601 OFFCURVE",
"420 601 CURVE SMOOTH",
"259 601 OFFCURVE",
"150 495 OFFCURVE",
"150 340 CURVE SMOOTH",
"150 184 OFFCURVE",
"259 80 OFFCURVE",
"420 80 CURVE SMOOTH",
"509 80 OFFCURVE",
"594 105 OFFCURVE",
"651 147 CURVE",
"651 51 LINE",
"629 37 OFFCURVE",
"560 -7 OFFCURVE",
"420 -7 CURVE SMOOTH"
);
},
{
closed = 1;
nodes = (
"457 745 OFFCURVE",
"488 775 OFFCURVE",
"488 814 CURVE SMOOTH",
"488 853 OFFCURVE",
"457 884 OFFCURVE",
"418 884 CURVE SMOOTH",
"379 884 OFFCURVE",
"349 853 OFFCURVE",
"349 814 CURVE SMOOTH",
"349 776 OFFCURVE",
"380 745 OFFCURVE",
"418 745 CURVE SMOOTH"
);
},
{
closed = 1;
nodes = (
"388 761 OFFCURVE",
"365 784 OFFCURVE",
"365 814 CURVE SMOOTH",
"365 844 OFFCURVE",
"388 868 OFFCURVE",
"418 868 CURVE SMOOTH",
"449 868 OFFCURVE",
"472 845 OFFCURVE",
"472 814 CURVE SMOOTH",
"472 784 OFFCURVE",
"448 761 OFFCURVE",
"418 761 CURVE SMOOTH"
);
}
);
width = 704;
}
);
leftKerningGroup = C;
note = Cdotaccent;
rightKerningGroup = C;
unicode = 010A;
},
{
glyphname = D;
lastChange = "2018-03-11 16:48:06 +0000";
layers = (
{
hints = (
{
horizontal = 1;
place = "{0, 103}";
type = Stem;
},
{
horizontal = 1;
place = "{577, 102}";
type = Stem;
},
{
place = "{90, 109}";
type = Stem;
},
{
place = "{592, 113}";
type = Stem;
}
);
layerId = "8D160AFA-A4A8-46CF-B5C1-48E538516704";
paths = (
{
closed = 1;
nodes = (
"336 -8 LINE SMOOTH",
"560 -8 OFFCURVE",
"713 134 OFFCURVE",
"713 340 CURVE SMOOTH",
"713 551 OFFCURVE",
"565 687 OFFCURVE",
"336 687 CURVE SMOOTH",
"82 687 LINE",
"82 -8 LINE"
);
},
{
closed = 1;
nodes = (
"98 671 LINE",
"336 671 LINE SMOOTH",
"556 671 OFFCURVE",
"697 542 OFFCURVE",
"697 340 CURVE SMOOTH",
"697 142 OFFCURVE",
"551 8 OFFCURVE",
"336 8 CURVE SMOOTH",
"98 8 LINE"
);
},
{
closed = 1;
nodes = (
"207 569 LINE",
"327 569 LINE SMOOTH",
"493 569 OFFCURVE",
"584 488 OFFCURVE",
"584 340 CURVE SMOOTH",
"579 191 OFFCURVE",
"491 111 OFFCURVE",
"328 111 CURVE SMOOTH",
"207 111 LINE"
);
},
{
closed = 1;
nodes = (
"328 95 LINE SMOOTH",
"499 95 OFFCURVE",
"595 181 OFFCURVE",
"600 340 CURVE SMOOTH",
"600 497 OFFCURVE",
"502 585 OFFCURVE",
"327 585 CURVE SMOOTH",
"191 585 LINE",
"191 95 LINE"
);
}
);
width = 760;
}
);
note = D;
rightKerningGroup = D;
unicode = 0044;
},
{
glyphname = Eth;
lastChange = "2018-03-11 16:48:06 +0000";
layers = (
{
hints = (
{
horizontal = 1;
place = "{0, 103}";
type = Stem;
},
{
horizontal = 1;
place = "{297, 90}";
type = Stem;
},
{
horizontal = 1;
place = "{577, 102}";
type = Stem;
},
{
place = "{120, 109}";
type = Stem;
},
{
place = "{622, 113}";
type = Stem;
}
);
layerId = "8D160AFA-A4A8-46CF-B5C1-48E538516704";
paths = (
{
closed = 1;
nodes = (
"366 -8 LINE SMOOTH",
"590 -8 OFFCURVE",
"743 134 OFFCURVE",
"743 340 CURVE SMOOTH",
"743 551 OFFCURVE",
"595 687 OFFCURVE",
"366 687 CURVE SMOOTH",
"112 687 LINE",
"112 395 LINE",
"-8 395 LINE",
"-8 289 LINE",
"112 289 LINE",
"112 -8 LINE"
);
},
{
closed = 1;
nodes = (
"128 305 LINE",
"8 305 LINE",
"8 379 LINE",
"128 379 LINE",
"128 671 LINE",
"366 671 LINE SMOOTH",
"586 671 OFFCURVE",
"727 542 OFFCURVE",
"727 340 CURVE SMOOTH",
"727 142 OFFCURVE",
"581 8 OFFCURVE",
"366 8 CURVE SMOOTH",
"128 8 LINE"
);
},
{
closed = 1;
nodes = (
"237 289 LINE",
"355 289 LINE",
"355 395 LINE",
"237 395 LINE",
"237 569 LINE",
"357 569 LINE SMOOTH",
"523 569 OFFCURVE",
"614 488 OFFCURVE",
"614 340 CURVE SMOOTH",
"609 191 OFFCURVE",
"521 111 OFFCURVE",
"358 111 CURVE SMOOTH",
"237 111 LINE"
);
},
{
closed = 1;
nodes = (
"358 95 LINE SMOOTH",
"529 95 OFFCURVE",
"625 181 OFFCURVE",
"630 340 CURVE SMOOTH",
"630 497 OFFCURVE",
"532 585 OFFCURVE",
"357 585 CURVE SMOOTH",
"221 585 LINE",
"221 379 LINE",
"339 379 LINE",
"339 305 LINE",
"221 305 LINE",
"221 95 LINE"
);
}
);
width = 790;
}
);
note = Eth;
rightKerningGroup = D;
unicode = 00D0;
},
{
glyphname = Dcaron;
lastChange = "2018-03-11 16:48:06 +0000";
layers = (
{
hints = (
{
horizontal = 1;
place = "{0, 103}";
type = Stem;
},
{
horizontal = 1;
place = "{577, 102}";
type = Stem;
},
{
horizontal = 1;
place = "{748, 171}";
type = Stem;
},
{
place = "{90, 109}";
type = Stem;
},
{
place = "{592, 113}";
type = Stem;
}
);
layerId = "8D160AFA-A4A8-46CF-B5C1-48E538516704";
paths = (
{
closed = 1;
nodes = (
"336 -8 LINE SMOOTH",
"560 -8 OFFCURVE",
"713 134 OFFCURVE",
"713 340 CURVE SMOOTH",
"713 551 OFFCURVE",
"565 687 OFFCURVE",
"336 687 CURVE SMOOTH",
"82 687 LINE",
"82 -8 LINE"
);
},
{
closed = 1;
nodes = (
"98 671 LINE",
"336 671 LINE SMOOTH",
"556 671 OFFCURVE",
"697 542 OFFCURVE",
"697 340 CURVE SMOOTH",
"697 142 OFFCURVE",
"551 8 OFFCURVE",
"336 8 CURVE SMOOTH",
"98 8 LINE"
);
},
{
closed = 1;
nodes = (
"207 569 LINE",
"327 569 LINE SMOOTH",
"493 569 OFFCURVE",
"584 488 OFFCURVE",
"584 340 CURVE SMOOTH",
"579 191 OFFCURVE",
"491 111 OFFCURVE",
"328 111 CURVE SMOOTH",
"207 111 LINE"
);
},
{
closed = 1;
nodes = (
"328 95 LINE SMOOTH",
"499 95 OFFCURVE",
"595 181 OFFCURVE",
"600 340 CURVE SMOOTH",
"600 497 OFFCURVE",
"502 585 OFFCURVE",
"327 585 CURVE SMOOTH",
"191 585 LINE",
"191 95 LINE"
);
},
{
closed = 1;
nodes = (
"440 740 LINE",
"555 927 LINE",
"436 927 LINE",
"380 850 LINE",
"323 927 LINE",
"204 927 LINE",
"319 740 LINE"
);
},
{
closed = 1;
nodes = (
"232 911 LINE",
"315 911 LINE",
"380 822 LINE",
"444 911 LINE",
"527 911 LINE",
"432 756 LINE",
"327 756 LINE"
);
}
);
width = 760;
}
);
note = Dcaron;
rightKerningGroup = D;
unicode = 010E;
},
{
glyphname = Dcroat;
lastChange = "2018-03-11 16:48:06 +0000";
layers = (
{
hints = (
{
horizontal = 1;
place = "{0, 103}";
type = Stem;
},
{
horizontal = 1;
place = "{297, 90}";
type = Stem;
},
{
horizontal = 1;
place = "{577, 102}";
type = Stem;
},
{
place = "{120, 109}";
type = Stem;
},
{
place = "{622, 113}";
type = Stem;
}
);
layerId = "8D160AFA-A4A8-46CF-B5C1-48E538516704";
paths = (
{
closed = 1;
nodes = (
"366 -8 LINE SMOOTH",
"590 -8 OFFCURVE",
"743 134 OFFCURVE",
"743 340 CURVE SMOOTH",
"743 551 OFFCURVE",
"595 687 OFFCURVE",
"366 687 CURVE SMOOTH",
"112 687 LINE",
"112 395 LINE",
"-8 395 LINE",
"-8 289 LINE",
"112 289 LINE",
"112 -8 LINE"
);
},
{
closed = 1;
nodes = (
"128 305 LINE",
"8 305 LINE",
"8 379 LINE",
"128 379 LINE",
"128 671 LINE",
"366 671 LINE SMOOTH",
"586 671 OFFCURVE",
"727 542 OFFCURVE",
"727 340 CURVE SMOOTH",
"727 142 OFFCURVE",
"581 8 OFFCURVE",
"366 8 CURVE SMOOTH",
"128 8 LINE"
);
},
{
closed = 1;
nodes = (
"237 289 LINE",
"355 289 LINE",
"355 395 LINE",
"237 395 LINE",
"237 569 LINE",
"357 569 LINE SMOOTH",
"523 569 OFFCURVE",
"614 488 OFFCURVE",
"614 340 CURVE SMOOTH",
"609 191 OFFCURVE",
"521 111 OFFCURVE",
"358 111 CURVE SMOOTH",
"237 111 LINE"
);
},
{
closed = 1;
nodes = (
"358 95 LINE SMOOTH",
"529 95 OFFCURVE",
"625 181 OFFCURVE",
"630 340 CURVE SMOOTH",
"630 497 OFFCURVE",
"532 585 OFFCURVE",
"357 585 CURVE SMOOTH",
"221 585 LINE",
"221 379 LINE",
"339 379 LINE",
"339 305 LINE",
"221 305 LINE",
"221 95 LINE"
);
}
);
width = 790;
}
);
note = Dcroat;
rightKerningGroup = D;
unicode = 0110;
},
{
glyphname = E;
lastChange = "2018-03-11 16:48:06 +0000";
layers = (
{
hints = (
{
horizontal = 1;
place = "{0, 102}";
type = Stem;
},
{
horizontal = 1;
place = "{311, 102}";
type = Stem;
},
{
horizontal = 1;
place = "{577, 102}";
type = Stem;
},
{
place = "{90, 109}";
type = Stem;
}
);
layerId = "8D160AFA-A4A8-46CF-B5C1-48E538516704";
paths = (
{
closed = 1;
nodes = (
"600 -8 LINE",
"600 110 LINE",
"207 110 LINE",
"207 303 LINE",
"515 303 LINE",
"515 421 LINE",
"207 421 LINE",
"207 569 LINE",
"594 569 LINE",
"594 687 LINE",
"82 687 LINE",
"82 -8 LINE"
);
},
{
closed = 1;
nodes = (
"98 671 LINE",
"578 671 LINE",
"578 585 LINE",
"191 585 LINE",
"191 405 LINE",
"499 405 LINE",
"499 319 LINE",
"191 319 LINE",
"191 94 LINE",
"584 94 LINE",
"584 8 LINE",
"98 8 LINE"
);
}
);
width = 642;
}
);
note = E;
rightKerningGroup = AE;
unicode = 0045;
},
{
glyphname = Eacute;
lastChange = "2018-03-11 16:48:06 +0000";
layers = (
{
hints = (
{
horizontal = 1;
place = "{0, 102}";
type = Stem;
},
{
horizontal = 1;
place = "{311, 102}";
type = Stem;
},
{
horizontal = 1;
place = "{577, 102}";
type = Stem;
},
{
horizontal = 1;
place = "{748, 171}";
type = Stem;
},
{
place = "{90, 109}";
type = Stem;
}
);
layerId = "8D160AFA-A4A8-46CF-B5C1-48E538516704";
paths = (
{
closed = 1;
nodes = (
"600 -8 LINE",
"600 110 LINE",
"207 110 LINE",
"207 303 LINE",
"515 303 LINE",
"515 421 LINE",
"207 421 LINE",
"207 569 LINE",
"594 569 LINE",
"594 687 LINE",
"82 687 LINE",
"82 -8 LINE"
);
},
{
closed = 1;
nodes = (
"98 671 LINE",
"578 671 LINE",
"578 585 LINE",
"191 585 LINE",
"191 405 LINE",
"499 405 LINE",
"499 319 LINE",
"191 319 LINE",
"191 94 LINE",
"584 94 LINE",
"584 8 LINE",
"98 8 LINE"
);
},
{
closed = 1;
nodes = (
"398 740 LINE",
"532 927 LINE",
"378 927 LINE",
"280 740 LINE"
);
},
{
closed = 1;
nodes = (
"388 911 LINE",
"500 911 LINE",
"390 756 LINE",
"306 756 LINE"
);
}
);
width = 642;
}
);
note = Eacute;
rightKerningGroup = AE;
unicode = 00C9;
},
{
glyphname = Ecaron;
lastChange = "2018-03-11 16:48:06 +0000";
layers = (
{
hints = (
{
horizontal = 1;
place = "{0, 102}";
type = Stem;
},
{
horizontal = 1;
place = "{311, 102}";
type = Stem;
},
{
horizontal = 1;
place = "{577, 102}";
type = Stem;
},
{
horizontal = 1;
place = "{748, 171}";
type = Stem;
},
{
place = "{90, 109}";
type = Stem;
}
);
layerId = "8D160AFA-A4A8-46CF-B5C1-48E538516704";
paths = (
{
closed = 1;
nodes = (
"600 -8 LINE",
"600 110 LINE",
"207 110 LINE",
"207 303 LINE",
"515 303 LINE",
"515 421 LINE",
"207 421 LINE",
"207 569 LINE",
"594 569 LINE",
"594 687 LINE",
"82 687 LINE",
"82 -8 LINE"
);
},
{
closed = 1;
nodes = (
"98 671 LINE",
"578 671 LINE",
"578 585 LINE",
"191 585 LINE",
"191 405 LINE",
"499 405 LINE",
"499 319 LINE",
"191 319 LINE",
"191 94 LINE",
"584 94 LINE",
"584 8 LINE",
"98 8 LINE"
);
},
{
closed = 1;
nodes = (
"401 740 LINE",
"516 927 LINE",
"397 927 LINE",
"341 850 LINE",
"284 927 LINE",
"165 927 LINE",
"280 740 LINE"
);
},
{
closed = 1;
nodes = (
"193 911 LINE",
"276 911 LINE",
"341 822 LINE",
"405 911 LINE",
"488 911 LINE",
"393 756 LINE",
"288 756 LINE"
);
}
);
width = 642;
}
);
note = Ecaron;
rightKerningGroup = AE;
unicode = 011A;
},
{
glyphname = Ecircumflex;
lastChange = "2018-03-11 16:48:06 +0000";
layers = (
{
hints = (
{
horizontal = 1;
place = "{0, 102}";
type = Stem;
},
{
horizontal = 1;
place = "{311, 102}";
type = Stem;
},
{
horizontal = 1;
place = "{577, 102}";
type = Stem;
},
{
horizontal = 1;
place = "{748, 171}";
type = Stem;
},
{
place = "{90, 109}";
type = Stem;
}
);
layerId = "8D160AFA-A4A8-46CF-B5C1-48E538516704";
paths = (
{
closed = 1;
nodes = (
"600 -8 LINE",
"600 110 LINE",
"207 110 LINE",
"207 303 LINE",
"515 303 LINE",
"515 421 LINE",
"207 421 LINE",
"207 569 LINE",
"594 569 LINE",
"594 687 LINE",
"82 687 LINE",
"82 -8 LINE"
);
},
{
closed = 1;
nodes = (
"98 671 LINE",
"578 671 LINE",
"578 585 LINE",
"191 585 LINE",
"191 405 LINE",
"499 405 LINE",
"499 319 LINE",
"191 319 LINE",
"191 94 LINE",
"584 94 LINE",
"584 8 LINE",
"98 8 LINE"
);
},
{
closed = 1;
nodes = (
"284 740 LINE",
"341 817 LINE",
"397 740 LINE",
"516 740 LINE",
"401 927 LINE",
"280 927 LINE",
"165 740 LINE"
);
},
{
closed = 1;
nodes = (
"288 911 LINE",
"393 911 LINE",
"488 756 LINE",
"405 756 LINE",
"341 845 LINE",
"276 756 LINE",
"193 756 LINE"
);
}
);
width = 642;
}
);
note = Ecircumflex;
rightKerningGroup = AE;
unicode = 00CA;
},
{
glyphname = Edieresis;
lastChange = "2018-03-11 16:48:06 +0000";
layers = (
{
hints = (
{
horizontal = 1;
place = "{0, 102}";
type = Stem;
},
{
horizontal = 1;
place = "{311, 102}";
type = Stem;
},
{
horizontal = 1;
place = "{577, 102}";
type = Stem;
},
{
horizontal = 1;
place = "{760, 111}";
type = Stem;
},
{
place = "{189, 111}";
type = Stem;
},
{
place = "{381, 111}";
type = Stem;
},
{
place = "{90, 109}";
type = Stem;
}
);
layerId = "8D160AFA-A4A8-46CF-B5C1-48E538516704";
paths = (
{
closed = 1;
nodes = (
"600 -8 LINE",
"600 110 LINE",
"207 110 LINE",
"207 303 LINE",
"515 303 LINE",
"515 421 LINE",
"207 421 LINE",
"207 569 LINE",
"594 569 LINE",
"594 687 LINE",
"82 687 LINE",
"82 -8 LINE"
);
},
{
closed = 1;
nodes = (
"98 671 LINE",
"578 671 LINE",
"578 585 LINE",
"191 585 LINE",
"191 405 LINE",
"499 405 LINE",
"499 319 LINE",
"191 319 LINE",
"191 94 LINE",
"584 94 LINE",
"584 8 LINE",
"98 8 LINE"
);
},
{
closed = 1;
nodes = (
"279 752 OFFCURVE",
"308 781 OFFCURVE",
"308 815 CURVE SMOOTH",
"308 850 OFFCURVE",
"280 879 OFFCURVE",
"245 879 CURVE SMOOTH",
"210 879 OFFCURVE",
"181 850 OFFCURVE",
"181 815 CURVE SMOOTH",
"181 780 OFFCURVE",
"210 752 OFFCURVE",
"245 752 CURVE SMOOTH"
);
},
{
closed = 1;
nodes = (
"219 768 OFFCURVE",
"197 789 OFFCURVE",
"197 815 CURVE SMOOTH",
"197 842 OFFCURVE",
"218 863 OFFCURVE",
"245 863 CURVE SMOOTH",
"271 863 OFFCURVE",
"292 841 OFFCURVE",
"292 815 CURVE SMOOTH",
"292 789 OFFCURVE",
"271 768 OFFCURVE",
"245 768 CURVE SMOOTH"
);
},
{
closed = 1;
nodes = (
"471 752 OFFCURVE",
"500 781 OFFCURVE",
"500 815 CURVE SMOOTH",
"500 850 OFFCURVE",
"472 879 OFFCURVE",
"437 879 CURVE SMOOTH",
"402 879 OFFCURVE",
"373 850 OFFCURVE",
"373 815 CURVE SMOOTH",
"373 780 OFFCURVE",
"402 752 OFFCURVE",
"437 752 CURVE SMOOTH"
);
},
{
closed = 1;
nodes = (
"411 768 OFFCURVE",
"389 789 OFFCURVE",
"389 815 CURVE SMOOTH",
"389 842 OFFCURVE",
"410 863 OFFCURVE",
"437 863 CURVE SMOOTH",
"463 863 OFFCURVE",
"484 841 OFFCURVE",
"484 815 CURVE SMOOTH",
"484 789 OFFCURVE",
"463 768 OFFCURVE",
"437 768 CURVE SMOOTH"
);
}
);
width = 642;
}
);
note = Edieresis;
rightKerningGroup = AE;
unicode = 00CB;
},
{
glyphname = Edotaccent;
lastChange = "2018-03-11 16:48:06 +0000";
layers = (
{
hints = (
{
horizontal = 1;
place = "{0, 102}";
type = Stem;
},
{
horizontal = 1;
place = "{311, 102}";
type = Stem;
},
{
horizontal = 1;
place = "{577, 102}";
type = Stem;
},
{
horizontal = 1;
place = "{753, 123}";
type = Stem;
},
{
place = "{90, 109}";
type = Stem;
},
{
place = "{279, 123}";
type = Stem;
}
);
layerId = "8D160AFA-A4A8-46CF-B5C1-48E538516704";
paths = (
{
closed = 1;
nodes = (
"600 -8 LINE",
"600 110 LINE",
"207 110 LINE",
"207 303 LINE",
"515 303 LINE",
"515 421 LINE",
"207 421 LINE",
"207 569 LINE",
"594 569 LINE",
"594 687 LINE",
"82 687 LINE",
"82 -8 LINE"
);
},
{
closed = 1;
nodes = (
"98 671 LINE",
"578 671 LINE",
"578 585 LINE",
"191 585 LINE",
"191 405 LINE",
"499 405 LINE",
"499 319 LINE",
"191 319 LINE",
"191 94 LINE",
"584 94 LINE",
"584 8 LINE",
"98 8 LINE"
);
},
{
closed = 1;
nodes = (
"379 745 OFFCURVE",
"410 775 OFFCURVE",
"410 814 CURVE SMOOTH",
"410 853 OFFCURVE",
"379 884 OFFCURVE",
"340 884 CURVE SMOOTH",
"301 884 OFFCURVE",
"271 853 OFFCURVE",
"271 814 CURVE SMOOTH",
"271 776 OFFCURVE",
"302 745 OFFCURVE",
"340 745 CURVE SMOOTH"
);
},
{
closed = 1;
nodes = (
"310 761 OFFCURVE",
"287 784 OFFCURVE",
"287 814 CURVE SMOOTH",
"287 844 OFFCURVE",
"310 868 OFFCURVE",
"340 868 CURVE SMOOTH",
"371 868 OFFCURVE",
"394 845 OFFCURVE",
"394 814 CURVE SMOOTH",
"394 784 OFFCURVE",
"370 761 OFFCURVE",
"340 761 CURVE SMOOTH"
);
}
);
width = 642;
}
);
note = Edotaccent;
rightKerningGroup = AE;
unicode = 0116;
},
{
glyphname = Egrave;
lastChange = "2018-03-11 16:48:06 +0000";
layers = (
{
hints = (
{
horizontal = 1;
place = "{0, 102}";
type = Stem;
},
{
horizontal = 1;
place = "{311, 102}";
type = Stem;
},
{
horizontal = 1;
place = "{577, 102}";
type = Stem;
},
{
horizontal = 1;
place = "{748, 171}";
type = Stem;
},
{
place = "{90, 109}";
type = Stem;
}
);
layerId = "8D160AFA-A4A8-46CF-B5C1-48E538516704";
paths = (
{
closed = 1;
nodes = (
"600 -8 LINE",
"600 110 LINE",
"207 110 LINE",
"207 303 LINE",
"515 303 LINE",
"515 421 LINE",
"207 421 LINE",
"207 569 LINE",
"594 569 LINE",
"594 687 LINE",
"82 687 LINE",
"82 -8 LINE"
);
},
{
closed = 1;
nodes = (
"98 671 LINE",
"578 671 LINE",
"578 585 LINE",
"191 585 LINE",
"191 405 LINE",
"499 405 LINE",
"499 319 LINE",
"191 319 LINE",
"191 94 LINE",
"584 94 LINE",
"584 8 LINE",
"98 8 LINE"
);
},
{
closed = 1;
nodes = (
"403 740 LINE",
"305 927 LINE",
"151 927 LINE",
"285 740 LINE"
);
},
{
closed = 1;
nodes = (
"183 911 LINE",
"295 911 LINE",
"377 756 LINE",
"293 756 LINE"
);
}
);
width = 642;
}
);
note = Egrave;
rightKerningGroup = AE;
unicode = 00C8;
},
{
glyphname = Emacron;
lastChange = "2018-03-11 16:48:06 +0000";
layers = (
{
hints = (
{
horizontal = 1;
place = "{0, 102}";
type = Stem;
},
{
horizontal = 1;
place = "{311, 102}";
type = Stem;
},
{
horizontal = 1;
place = "{577, 102}";
type = Stem;
},
{
horizontal = 1;
place = "{763, 90}";
type = Stem;
},
{
place = "{202, 277}";
type = Stem;
},
{
place = "{90, 109}";
type = Stem;
}
);
layerId = "8D160AFA-A4A8-46CF-B5C1-48E538516704";
paths = (
{
closed = 1;
nodes = (
"600 -8 LINE",
"600 110 LINE",
"207 110 LINE",
"207 303 LINE",
"515 303 LINE",
"515 421 LINE",
"207 421 LINE",
"207 569 LINE",
"594 569 LINE",
"594 687 LINE",
"82 687 LINE",
"82 -8 LINE"
);
},
{
closed = 1;
nodes = (
"98 671 LINE",
"578 671 LINE",
"578 585 LINE",
"191 585 LINE",
"191 405 LINE",
"499 405 LINE",
"499 319 LINE",
"191 319 LINE",
"191 94 LINE",
"584 94 LINE",
"584 8 LINE",
"98 8 LINE"
);
},
{
closed = 1;
nodes = (
"487 755 LINE",
"487 861 LINE",
"194 861 LINE",
"194 755 LINE"
);
},
{
closed = 1;
nodes = (
"210 845 LINE",
"471 845 LINE",
"471 771 LINE",
"210 771 LINE"
);
}
);
width = 642;
}
);
note = Emacron;
rightKerningGroup = AE;
unicode = 0112;
},
{
glyphname = Eogonek;
lastChange = "2018-03-11 16:48:06 +0000";
layers = (
{
hints = (
{
horizontal = 1;
place = "{-225, 88}";
type = Stem;
},
{
horizontal = 1;
place = "{0, 102}";
type = Stem;
},
{
horizontal = 1;
place = "{311, 102}";
type = Stem;
},
{
horizontal = 1;
place = "{577, 102}";
type = Stem;
},
{
place = "{90, 109}";
type = Stem;
},
{
place = "{457, 88}";
type = Stem;
}
);
layerId = "8D160AFA-A4A8-46CF-B5C1-48E538516704";
paths = (
{
closed = 1;
nodes = (
"613 -129 LINE",
"567 -130 OFFCURVE",
"553 -122 OFFCURVE",
"553 -94 CURVE SMOOTH",
"553 -60 OFFCURVE",
"598 -5 OFFCURVE",
"598 -5 CURVE",
"600 0 LINE",
"600 110 LINE",
"207 110 LINE",
"207 303 LINE",
"515 303 LINE",
"515 421 LINE",
"207 421 LINE",
"207 569 LINE",
"594 569 LINE",
"594 687 LINE",
"82 687 LINE",
"82 -8 LINE",
"495 -8 LINE",
"477 -27 OFFCURVE",
"449 -63 OFFCURVE",
"449 -109 CURVE SMOOTH",
"449 -211 OFFCURVE",
"566 -236 OFFCURVE",
"613 -233 CURVE"
);
},
{
closed = 1;
nodes = (
"547 -214 OFFCURVE",
"465 -188 OFFCURVE",
"465 -109 CURVE SMOOTH",
"465 -48 OFFCURVE",
"521 -6 OFFCURVE",
"521 -6 CURVE",
"516 8 LINE",
"98 8 LINE",
"98 671 LINE",
"578 671 LINE",
"578 585 LINE",
"191 585 LINE",
"191 405 LINE",
"499 405 LINE",
"499 319 LINE",
"191 319 LINE",
"191 94 LINE",
"584 94 LINE",
"584 3 LINE",
"575 -8 OFFCURVE",
"537 -59 OFFCURVE",
"537 -94 CURVE SMOOTH",
"537 -128 OFFCURVE",
"555 -143 OFFCURVE",
"597 -145 CURVE",
"597 -217 LINE"
);
}
);
width = 642;
}
);
note = Eogonek;
rightKerningGroup = AE;
unicode = 0118;
},
{
glyphname = F;
lastChange = "2018-03-11 16:48:06 +0000";
layers = (
{
hints = (
{
horizontal = 1;
place = "{311, 102}";
type = Stem;
},
{
horizontal = 1;
place = "{577, 102}";
type = Stem;
},
{
place = "{90, 109}";
type = Stem;
}
);
layerId = "8D160AFA-A4A8-46CF-B5C1-48E538516704";
paths = (
{
closed = 1;
nodes = (
"207 -8 LINE",
"207 303 LINE",
"515 303 LINE",
"515 421 LINE",
"207 421 LINE",
"207 569 LINE",
"594 569 LINE",
"594 687 LINE",
"82 687 LINE",
"82 -8 LINE"
);
},
{
closed = 1;
nodes = (
"98 671 LINE",
"578 671 LINE",
"578 585 LINE",
"191 585 LINE",
"191 405 LINE",
"499 405 LINE",
"499 319 LINE",
"191 319 LINE",
"191 8 LINE",
"98 8 LINE"
);
}
);
width = 624;
}
);
note = F;
rightKerningGroup = F;
unicode = 0046;
},
{
glyphname = G;
lastChange = "2018-03-11 16:48:06 +0000";
layers = (
{
hints = (
{
horizontal = 1;
place = "{-15, 102}";
type = Stem;
},
{
horizontal = 1;
place = "{295, 102}";
type = Stem;
},
{
horizontal = 1;
place = "{593, 102}";
type = Stem;
},
{
place = "{50, 113}";
type = Stem;
},
{
place = "{591, 109}";
type = Stem;
}
);
layerId = "8D160AFA-A4A8-46CF-B5C1-48E538516704";
paths = (
{
closed = 1;
nodes = (
"481 -23 OFFCURVE",
"542 -2 OFFCURVE",
"583 21 CURVE",
"583 -8 LINE",
"708 -8 LINE",
"708 405 LINE",
"380 405 LINE",
"380 287 LINE",
"583 287 LINE",
"583 152 LINE",
"533 116 OFFCURVE",
"470 95 OFFCURVE",
"407 95 CURVE SMOOTH",
"272 95 OFFCURVE",
"171 200 OFFCURVE",
"171 340 CURVE SMOOTH",
"171 486 OFFCURVE",
"273 585 OFFCURVE",
"425 585 CURVE SMOOTH",
"483 585 OFFCURVE",
"532 576 OFFCURVE",
"573 559 CURVE SMOOTH",
"624 537 OFFCURVE",
"658 517 OFFCURVE",
"672 499 CURVE",
"672 638 LINE",
"653 651 OFFCURVE",
"621 665 OFFCURVE",
"575 681 CURVE SMOOTH",
"534 695 OFFCURVE",
"484 703 OFFCURVE",
"425 703 CURVE SMOOTH",
"206 706 OFFCURVE",
"39 546 OFFCURVE",
"42 340 CURVE SMOOTH",
"39 136 OFFCURVE",
"198 -23 OFFCURVE",
"407 -23 CURVE SMOOTH"
);
},
{
closed = 1;
nodes = (
"207 -7 OFFCURVE",
"55 145 OFFCURVE",
"58 340 CURVE",
"55 538 OFFCURVE",
"215 690 OFFCURVE",
"425 687 CURVE SMOOTH",
"482 687 OFFCURVE",
"530 680 OFFCURVE",
"569 665 CURVE",
"608 652 OFFCURVE",
"638 640 OFFCURVE",
"656 630 CURVE",
"656 534 LINE",
"637 547 OFFCURVE",
"612 560 OFFCURVE",
"579 573 CURVE",
"537 592 OFFCURVE",
"486 601 OFFCURVE",
"425 601 CURVE SMOOTH",
"264 601 OFFCURVE",
"155 495 OFFCURVE",
"155 340 CURVE SMOOTH",
"155 191 OFFCURVE",
"263 79 OFFCURVE",
"407 79 CURVE SMOOTH",
"490 79 OFFCURVE",
"559 113 OFFCURVE",
"599 144 CURVE",
"599 303 LINE",
"396 303 LINE",
"396 389 LINE",
"692 389 LINE",
"692 8 LINE",
"599 8 LINE",
"599 50 LINE",
"548 14 OFFCURVE",
"478 -7 OFFCURVE",
"407 -7 CURVE SMOOTH"
);
}
);
width = 776;
}
);
leftKerningGroup = C;
note = G;
rightKerningGroup = G;
unicode = 0047;
},
{
glyphname = Gbreve;
lastChange = "2018-03-11 16:48:06 +0000";
layers = (
{
hints = (
{
horizontal = 1;
place = "{-15, 102}";
type = Stem;
},
{
horizontal = 1;
place = "{295, 102}";
type = Stem;
},
{
horizontal = 1;
place = "{593, 102}";
type = Stem;
},
{
horizontal = 1;
place = "{748, 88}";
type = Stem;
},
{
place = "{50, 113}";
type = Stem;
},
{
place = "{226, 101}";
type = Stem;
},
{
place = "{448, 101}";
type = Stem;
},
{
place = "{591, 109}";
type = Stem;
}
);
layerId = "8D160AFA-A4A8-46CF-B5C1-48E538516704";
paths = (
{
closed = 1;
nodes = (
"481 -23 OFFCURVE",
"542 -2 OFFCURVE",
"583 21 CURVE",
"583 -8 LINE",
"708 -8 LINE",
"708 405 LINE",
"380 405 LINE",
"380 287 LINE",
"583 287 LINE",
"583 152 LINE",
"533 116 OFFCURVE",
"470 95 OFFCURVE",
"407 95 CURVE SMOOTH",
"272 95 OFFCURVE",
"171 200 OFFCURVE",
"171 340 CURVE SMOOTH",
"171 486 OFFCURVE",
"273 585 OFFCURVE",
"425 585 CURVE SMOOTH",
"483 585 OFFCURVE",
"532 576 OFFCURVE",
"573 559 CURVE SMOOTH",
"624 537 OFFCURVE",
"658 517 OFFCURVE",
"672 499 CURVE",
"672 638 LINE",
"653 651 OFFCURVE",
"621 665 OFFCURVE",
"575 681 CURVE SMOOTH",
"534 695 OFFCURVE",
"484 703 OFFCURVE",
"425 703 CURVE SMOOTH",
"206 706 OFFCURVE",
"39 546 OFFCURVE",
"42 340 CURVE SMOOTH",
"39 136 OFFCURVE",
"198 -23 OFFCURVE",
"407 -23 CURVE SMOOTH"
);
},
{
closed = 1;
nodes = (
"207 -7 OFFCURVE",
"55 145 OFFCURVE",
"58 340 CURVE",
"55 538 OFFCURVE",
"215 690 OFFCURVE",
"425 687 CURVE SMOOTH",
"482 687 OFFCURVE",
"530 680 OFFCURVE",
"569 665 CURVE",
"608 652 OFFCURVE",
"638 640 OFFCURVE",
"656 630 CURVE",
"656 534 LINE",
"637 547 OFFCURVE",
"612 560 OFFCURVE",
"579 573 CURVE",
"537 592 OFFCURVE",
"486 601 OFFCURVE",
"425 601 CURVE SMOOTH",
"264 601 OFFCURVE",
"155 495 OFFCURVE",
"155 340 CURVE SMOOTH",
"155 191 OFFCURVE",
"263 79 OFFCURVE",
"407 79 CURVE SMOOTH",
"490 79 OFFCURVE",
"559 113 OFFCURVE",
"599 144 CURVE",
"599 303 LINE",
"396 303 LINE",
"396 389 LINE",
"692 389 LINE",
"692 8 LINE",
"599 8 LINE",
"599 50 LINE",
"548 14 OFFCURVE",
"478 -7 OFFCURVE",
"407 -7 CURVE SMOOTH"
);
},
{
closed = 1;
nodes = (
"513 740 OFFCURVE",
"560 847 OFFCURVE",
"557 927 CURVE",
"440 927 LINE",
"443 902 OFFCURVE",
"430 844 OFFCURVE",
"387 844 CURVE SMOOTH",
"344 844 OFFCURVE",
"333 901 OFFCURVE",
"335 927 CURVE",
"218 927 LINE",
"215 847 OFFCURVE",
"261 740 OFFCURVE",
"387 740 CURVE SMOOTH"
);
},
{
closed = 1;
nodes = (
"279 756 OFFCURVE",
"237 838 OFFCURVE",
"234 911 CURVE",
"319 911 LINE",
"322 879 OFFCURVE",
"340 828 OFFCURVE",
"387 828 CURVE SMOOTH",
"434 828 OFFCURVE",
"453 879 OFFCURVE",
"456 911 CURVE",
"541 911 LINE",
"538 838 OFFCURVE",
"495 756 OFFCURVE",
"387 756 CURVE SMOOTH"
);
}
);
width = 776;
}
);
leftKerningGroup = C;
note = Gbreve;
rightKerningGroup = G;
unicode = 011E;
},
{
glyphname = Gdotaccent;
lastChange = "2018-03-11 16:48:06 +0000";
layers = (
{
hints = (
{
horizontal = 1;
place = "{-15, 102}";
type = Stem;
},
{
horizontal = 1;
place = "{295, 102}";
type = Stem;
},
{
horizontal = 1;
place = "{593, 102}";
type = Stem;
},
{
horizontal = 1;
place = "{753, 123}";
type = Stem;
},
{
place = "{50, 113}";
type = Stem;
},
{
place = "{326, 123}";
type = Stem;
},
{
place = "{591, 109}";
type = Stem;
}
);
layerId = "8D160AFA-A4A8-46CF-B5C1-48E538516704";
paths = (
{
closed = 1;
nodes = (
"481 -23 OFFCURVE",
"542 -2 OFFCURVE",
"583 21 CURVE",
"583 -8 LINE",
"708 -8 LINE",
"708 405 LINE",
"380 405 LINE",
"380 287 LINE",
"583 287 LINE",
"583 152 LINE",
"533 116 OFFCURVE",
"470 95 OFFCURVE",
"407 95 CURVE SMOOTH",
"272 95 OFFCURVE",
"171 200 OFFCURVE",
"171 340 CURVE SMOOTH",
"171 486 OFFCURVE",
"273 585 OFFCURVE",
"425 585 CURVE SMOOTH",
"483 585 OFFCURVE",
"532 576 OFFCURVE",
"573 559 CURVE SMOOTH",
"624 537 OFFCURVE",
"658 517 OFFCURVE",
"672 499 CURVE",
"672 638 LINE",
"653 651 OFFCURVE",
"621 665 OFFCURVE",
"575 681 CURVE SMOOTH",
"534 695 OFFCURVE",
"484 703 OFFCURVE",
"425 703 CURVE SMOOTH",
"206 706 OFFCURVE",
"39 546 OFFCURVE",
"42 340 CURVE SMOOTH",
"39 136 OFFCURVE",
"198 -23 OFFCURVE",
"407 -23 CURVE SMOOTH"
);
},
{
closed = 1;
nodes = (
"207 -7 OFFCURVE",
"55 145 OFFCURVE",
"58 340 CURVE",
"55 538 OFFCURVE",
"215 690 OFFCURVE",
"425 687 CURVE SMOOTH",
"482 687 OFFCURVE",
"530 680 OFFCURVE",
"569 665 CURVE",
"608 652 OFFCURVE",
"638 640 OFFCURVE",
"656 630 CURVE",
"656 534 LINE",
"637 547 OFFCURVE",
"612 560 OFFCURVE",
"579 573 CURVE",
"537 592 OFFCURVE",
"486 601 OFFCURVE",
"425 601 CURVE SMOOTH",
"264 601 OFFCURVE",
"155 495 OFFCURVE",
"155 340 CURVE SMOOTH",
"155 191 OFFCURVE",
"263 79 OFFCURVE",
"407 79 CURVE SMOOTH",
"490 79 OFFCURVE",
"559 113 OFFCURVE",
"599 144 CURVE",
"599 303 LINE",
"396 303 LINE",
"396 389 LINE",
"692 389 LINE",
"692 8 LINE",
"599 8 LINE",
"599 50 LINE",
"548 14 OFFCURVE",
"478 -7 OFFCURVE",
"407 -7 CURVE SMOOTH"
);
},
{
closed = 1;
nodes = (
"426 745 OFFCURVE",
"457 775 OFFCURVE",
"457 814 CURVE SMOOTH",
"457 853 OFFCURVE",
"426 884 OFFCURVE",
"387 884 CURVE SMOOTH",
"348 884 OFFCURVE",
"318 853 OFFCURVE",
"318 814 CURVE SMOOTH",
"318 776 OFFCURVE",
"349 745 OFFCURVE",
"387 745 CURVE SMOOTH"
);
},
{
closed = 1;
nodes = (
"357 761 OFFCURVE",
"334 784 OFFCURVE",
"334 814 CURVE SMOOTH",
"334 844 OFFCURVE",
"357 868 OFFCURVE",
"387 868 CURVE SMOOTH",
"418 868 OFFCURVE",
"441 845 OFFCURVE",
"441 814 CURVE SMOOTH",
"441 784 OFFCURVE",
"417 761 OFFCURVE",
"387 761 CURVE SMOOTH"
);
}
);
width = 776;
}
);
leftKerningGroup = C;
note = Gdotaccent;
rightKerningGroup = G;
unicode = 0120;
},
{
glyphname = H;
lastChange = "2018-03-11 16:48:06 +0000";
layers = (
{
hints = (
{
horizontal = 1;
place = "{311, 102}";
type = Stem;
},
{
place = "{90, 109}";
type = Stem;
},
{
place = "{552, 109}";
type = Stem;
}
);
layerId = "8D160AFA-A4A8-46CF-B5C1-48E538516704";
paths = (
{
closed = 1;
nodes = (
"207 -8 LINE",
"207 303 LINE",
"544 303 LINE",
"544 -8 LINE",
"669 -8 LINE",
"669 687 LINE",
"544 687 LINE",
"544 421 LINE",
"207 421 LINE",
"207 687 LINE",
"82 687 LINE",
"82 -8 LINE"
);
},
{
closed = 1;
nodes = (
"98 671 LINE",
"191 671 LINE",
"191 405 LINE",
"560 405 LINE",
"560 671 LINE",
"653 671 LINE",
"653 8 LINE",
"560 8 LINE",
"560 319 LINE",
"191 319 LINE",
"191 8 LINE",
"98 8 LINE"
);
}
);
width = 751;
}
);
leftKerningGroup = H;
note = H;
unicode = 0048;
},
{
glyphname = Hbar;
lastChange = "2018-03-11 16:48:06 +0000";
layers = (
{
hints = (
{
horizontal = 1;
place = "{311, 102}";
type = Stem;
},
{
horizontal = 1;
place = "{504, 90}";
type = Stem;
},
{
place = "{90, 109}";
type = Stem;
},
{
place = "{552, 109}";
type = Stem;
}
);
layerId = "8D160AFA-A4A8-46CF-B5C1-48E538516704";
paths = (
{
closed = 1;
nodes = (
"207 -8 LINE",
"207 303 LINE",
"544 303 LINE",
"544 -8 LINE",
"669 -8 LINE",
"669 496 LINE",
"724 496 LINE",
"724 602 LINE",
"669 602 LINE",
"669 687 LINE",
"544 687 LINE",
"544 602 LINE",
"207 602 LINE",
"207 687 LINE",
"82 687 LINE",
"82 602 LINE",
"27 602 LINE",
"27 496 LINE",
"82 496 LINE",
"82 -8 LINE"
);
},
{
closed = 1;
nodes = (
"98 512 LINE",
"43 512 LINE",
"43 586 LINE",
"98 586 LINE",
"98 671 LINE",
"191 671 LINE",
"191 586 LINE",
"560 586 LINE",
"560 671 LINE",
"653 671 LINE",
"653 586 LINE",
"708 586 LINE",
"708 512 LINE",
"653 512 LINE",
"653 8 LINE",
"560 8 LINE",
"560 319 LINE",
"191 319 LINE",
"191 8 LINE",
"98 8 LINE"
);
},
{
closed = 1;
nodes = (
"207 496 LINE",
"544 496 LINE",
"544 421 LINE",
"207 421 LINE"
);
},
{
closed = 1;
nodes = (
"560 405 LINE",
"560 512 LINE",
"191 512 LINE",
"191 405 LINE"
);
}
);
width = 751;
}
);
leftKerningGroup = H;
note = Hbar;
unicode = 0126;
},
{
glyphname = I;
lastChange = "2018-03-11 16:48:06 +0000";
layers = (
{
hints = (
{
place = "{90, 109}";
type = Stem;
}
);
layerId = "8D160AFA-A4A8-46CF-B5C1-48E538516704";
paths = (
{
closed = 1;
nodes = (
"207 -8 LINE",
"207 687 LINE",
"82 687 LINE",
"82 -8 LINE"
);
},
{
closed = 1;
nodes = (
"98 671 LINE",
"191 671 LINE",
"191 8 LINE",
"98 8 LINE"
);
}
);
width = 289;
}
);
note = I;
unicode = 0049;
},
{
glyphname = Iacute;
lastChange = "2018-03-11 16:48:06 +0000";
layers = (
{
hints = (
{
horizontal = 1;
place = "{748, 171}";
type = Stem;
},
{
place = "{90, 109}";
type = Stem;
}
);
layerId = "8D160AFA-A4A8-46CF-B5C1-48E538516704";
paths = (
{
closed = 1;
nodes = (
"207 -8 LINE",
"207 687 LINE",
"82 687 LINE",
"82 -8 LINE"
);
},
{
closed = 1;
nodes = (
"98 671 LINE",
"191 671 LINE",
"191 8 LINE",
"98 8 LINE"
);
},
{
closed = 1;
nodes = (
"202 740 LINE",
"336 927 LINE",
"182 927 LINE",
"84 740 LINE"
);
},
{
closed = 1;
nodes = (
"192 911 LINE",
"304 911 LINE",
"194 756 LINE",
"110 756 LINE"
);
}
);
width = 289;
}
);
note = Iacute;
unicode = 00CD;
},
{
glyphname = Icircumflex;
lastChange = "2018-03-11 16:48:06 +0000";
layers = (
{
hints = (
{
horizontal = 1;
place = "{748, 171}";
type = Stem;
},
{
place = "{90, 109}";
type = Stem;
}
);
layerId = "8D160AFA-A4A8-46CF-B5C1-48E538516704";
paths = (
{
closed = 1;
nodes = (
"207 -8 LINE",
"207 687 LINE",
"82 687 LINE",
"82 -8 LINE"
);
},
{
closed = 1;
nodes = (
"98 671 LINE",
"191 671 LINE",
"191 8 LINE",
"98 8 LINE"
);
},
{
closed = 1;
nodes = (
"88 740 LINE",
"145 817 LINE",
"201 740 LINE",
"320 740 LINE",
"205 927 LINE",
"84 927 LINE",
"-31 740 LINE"
);
},
{
closed = 1;
nodes = (
"92 911 LINE",
"197 911 LINE",
"292 756 LINE",
"209 756 LINE",
"145 845 LINE",
"80 756 LINE",
"-3 756 LINE"
);
}
);
width = 289;
}
);
note = Icircumflex;
unicode = 00CE;
},
{
glyphname = Idieresis;
lastChange = "2018-03-11 16:48:06 +0000";
layers = (
{
hints = (
{
horizontal = 1;
place = "{760, 111}";
type = Stem;
},
{
place = "{-7, 111}";
type = Stem;
},
{
place = "{185, 111}";
type = Stem;
},
{
place = "{90, 109}";
type = Stem;
}
);
layerId = "8D160AFA-A4A8-46CF-B5C1-48E538516704";
paths = (
{
closed = 1;
nodes = (
"207 -8 LINE",
"207 687 LINE",
"82 687 LINE",
"82 -8 LINE"
);
},
{
closed = 1;
nodes = (
"98 671 LINE",
"191 671 LINE",
"191 8 LINE",
"98 8 LINE"
);
},
{
closed = 1;
nodes = (
"83 752 OFFCURVE",
"112 781 OFFCURVE",
"112 815 CURVE SMOOTH",
"112 850 OFFCURVE",
"84 879 OFFCURVE",
"49 879 CURVE SMOOTH",
"14 879 OFFCURVE",
"-15 850 OFFCURVE",
"-15 815 CURVE SMOOTH",
"-15 780 OFFCURVE",
"14 752 OFFCURVE",
"49 752 CURVE SMOOTH"
);
},
{
closed = 1;
nodes = (
"23 768 OFFCURVE",
"1 789 OFFCURVE",
"1 815 CURVE SMOOTH",
"1 842 OFFCURVE",
"22 863 OFFCURVE",
"49 863 CURVE SMOOTH",
"75 863 OFFCURVE",
"96 841 OFFCURVE",
"96 815 CURVE SMOOTH",
"96 789 OFFCURVE",
"75 768 OFFCURVE",
"49 768 CURVE SMOOTH"
);
},
{
closed = 1;
nodes = (
"275 752 OFFCURVE",
"304 781 OFFCURVE",
"304 815 CURVE SMOOTH",
"304 850 OFFCURVE",
"276 879 OFFCURVE",
"241 879 CURVE SMOOTH",
"206 879 OFFCURVE",
"177 850 OFFCURVE",
"177 815 CURVE SMOOTH",
"177 780 OFFCURVE",
"206 752 OFFCURVE",
"241 752 CURVE SMOOTH"
);
},
{
closed = 1;
nodes = (
"215 768 OFFCURVE",
"193 789 OFFCURVE",
"193 815 CURVE SMOOTH",
"193 842 OFFCURVE",
"214 863 OFFCURVE",
"241 863 CURVE SMOOTH",
"267 863 OFFCURVE",
"288 841 OFFCURVE",
"288 815 CURVE SMOOTH",
"288 789 OFFCURVE",
"267 768 OFFCURVE",
"241 768 CURVE SMOOTH"
);
}
);
width = 289;
}
);
note = Idieresis;
unicode = 00CF;
},
{
glyphname = Idotaccent;
lastChange = "2018-03-11 16:48:06 +0000";
layers = (
{
hints = (
{
horizontal = 1;
place = "{753, 123}";
type = Stem;
},
{
place = "{83, 123}";
type = Stem;
},
{
place = "{90, 109}";
type = Stem;
}
);
layerId = "8D160AFA-A4A8-46CF-B5C1-48E538516704";
paths = (
{
closed = 1;
nodes = (
"207 -8 LINE",
"207 687 LINE",
"82 687 LINE",
"82 -8 LINE"
);
},
{
closed = 1;
nodes = (
"98 671 LINE",
"191 671 LINE",
"191 8 LINE",
"98 8 LINE"
);
},
{
closed = 1;
nodes = (
"183 745 OFFCURVE",
"214 775 OFFCURVE",
"214 814 CURVE SMOOTH",
"214 853 OFFCURVE",
"183 884 OFFCURVE",
"144 884 CURVE SMOOTH",
"105 884 OFFCURVE",
"75 853 OFFCURVE",
"75 814 CURVE SMOOTH",
"75 776 OFFCURVE",
"106 745 OFFCURVE",
"144 745 CURVE SMOOTH"
);
},
{
closed = 1;
nodes = (
"114 761 OFFCURVE",
"91 784 OFFCURVE",
"91 814 CURVE SMOOTH",
"91 844 OFFCURVE",
"114 868 OFFCURVE",
"144 868 CURVE SMOOTH",
"175 868 OFFCURVE",
"198 845 OFFCURVE",
"198 814 CURVE SMOOTH",
"198 784 OFFCURVE",
"174 761 OFFCURVE",
"144 761 CURVE SMOOTH"
);
}
);
width = 289;
}
);
note = Idotaccent;
unicode = 0130;
},
{
glyphname = Igrave;
lastChange = "2018-03-11 16:48:06 +0000";
layers = (
{
hints = (
{
horizontal = 1;
place = "{748, 171}";
type = Stem;
},
{
place = "{90, 109}";
type = Stem;
}
);
layerId = "8D160AFA-A4A8-46CF-B5C1-48E538516704";
paths = (
{
closed = 1;
nodes = (
"207 -8 LINE",
"207 687 LINE",
"82 687 LINE",
"82 -8 LINE"
);
},
{
closed = 1;
nodes = (
"98 671 LINE",
"191 671 LINE",
"191 8 LINE",
"98 8 LINE"
);
},
{
closed = 1;
nodes = (
"207 740 LINE",
"109 927 LINE",
"-45 927 LINE",
"89 740 LINE"
);
},
{
closed = 1;
nodes = (
"-13 911 LINE",
"99 911 LINE",
"181 756 LINE",
"97 756 LINE"
);
}
);
width = 289;
}
);
note = Igrave;
unicode = 00CC;
},
{
glyphname = Imacron;
lastChange = "2018-03-11 16:48:06 +0000";
layers = (
{
hints = (
{
horizontal = 1;
place = "{763, 90}";
type = Stem;
},
{
place = "{90, 109}";
type = Stem;
}
);
layerId = "8D160AFA-A4A8-46CF-B5C1-48E538516704";
paths = (
{
closed = 1;
nodes = (
"207 -8 LINE",
"207 687 LINE",
"82 687 LINE",
"82 -8 LINE"
);
},
{
closed = 1;
nodes = (
"98 671 LINE",
"191 671 LINE",
"191 8 LINE",
"98 8 LINE"
);
},
{
closed = 1;
nodes = (
"291 755 LINE",
"291 861 LINE",
"-2 861 LINE",
"-2 755 LINE"
);
},
{
closed = 1;
nodes = (
"14 845 LINE",
"275 845 LINE",
"275 771 LINE",
"14 771 LINE"
);
}
);
width = 289;
}
);
note = Imacron;
unicode = 012A;
},
{
glyphname = Iogonek;
lastChange = "2018-03-11 16:48:06 +0000";
layers = (
{
hints = (
{
horizontal = 1;
place = "{-216, 88}";
type = Stem;
},
{
place = "{90, 109}";
type = Stem;
}
);
layerId = "8D160AFA-A4A8-46CF-B5C1-48E538516704";
paths = (
{
closed = 1;
nodes = (
"214 -120 LINE",
"168 -121 OFFCURVE",
"154 -113 OFFCURVE",
"154 -85 CURVE SMOOTH",
"154 -68 OFFCURVE",
"167 -41 OFFCURVE",
"190 -8 CURVE",
"207 -8 LINE",
"207 687 LINE",
"82 687 LINE",
"82 -8 LINE",
"88 -8 LINE",
"71 -28 OFFCURVE",
"50 -60 OFFCURVE",
"50 -100 CURVE SMOOTH",
"50 -202 OFFCURVE",
"167 -227 OFFCURVE",
"214 -224 CURVE"
);
},
{
closed = 1;
nodes = (
"148 -205 OFFCURVE",
"66 -179 OFFCURVE",
"66 -100 CURVE SMOOTH",
"66 -55 OFFCURVE",
"96 -22 OFFCURVE",
"112 -6 CURVE",
"107 8 LINE",
"98 8 LINE",
"98 671 LINE",
"191 671 LINE",
"191 8 LINE",
"182 8 LINE",
"170 -8 OFFCURVE",
"138 -52 OFFCURVE",
"138 -85 CURVE SMOOTH",
"138 -119 OFFCURVE",
"156 -134 OFFCURVE",
"198 -136 CURVE",
"198 -208 LINE"
);
}
);
width = 289;
}
);
note = Iogonek;
unicode = 012E;
},
{
glyphname = J;
lastChange = "2018-03-11 16:48:06 +0000";
layers = (
{
hints = (
{
horizontal = 1;
place = "{-15, 103}";
type = Stem;
},
{
place = "{368, 109}";
type = Stem;
}
);
layerId = "8D160AFA-A4A8-46CF-B5C1-48E538516704";
paths = (
{
closed = 1;
nodes = (
"387 -23 OFFCURVE",
"485 73 OFFCURVE",
"485 229 CURVE SMOOTH",
"485 687 LINE",
"360 687 LINE",
"360 227 LINE SMOOTH",
"360 133 OFFCURVE",
"320 96 OFFCURVE",
"214 96 CURVE SMOOTH",
"144 96 OFFCURVE",
"57 142 OFFCURVE",
"45 149 CURVE",
"33 142 LINE",
"33 38 LINE SMOOTH",
"33 15 OFFCURVE",
"167 -23 OFFCURVE",
"229 -23 CURVE SMOOTH"
);
},
{
closed = 1;
nodes = (
"137 -7 OFFCURVE",
"49 38 OFFCURVE",
"49 38 CURVE",
"49 129 LINE",
"79 113 OFFCURVE",
"152 80 OFFCURVE",
"214 80 CURVE SMOOTH",
"328 80 OFFCURVE",
"376 123 OFFCURVE",
"376 227 CURVE SMOOTH",
"376 671 LINE",
"469 671 LINE",
"469 229 LINE SMOOTH",
"469 82 OFFCURVE",
"379 -7 OFFCURVE",
"229 -7 CURVE SMOOTH"
);
}
);
width = 542;
}
);
leftKerningGroup = J;
note = J;
unicode = 004A;
},
{
glyphname = K;
lastChange = "2018-03-11 16:48:06 +0000";
layers = (
{
hints = (
{
place = "{90, 108}";
type = Stem;
}
);
layerId = "8D160AFA-A4A8-46CF-B5C1-48E538516704";
paths = (
{
closed = 1;
nodes = (
"206 -8 LINE",
"206 240 LINE",
"288 317 LINE",
"528 -8 LINE",
"684 -8 LINE",
"379 403 LINE",
"689 687 LINE",
"523 687 LINE",
"206 389 LINE",
"206 687 LINE",
"82 687 LINE",
"82 -8 LINE"
);
},
{
closed = 1;
nodes = (
"98 671 LINE",
"190 671 LINE",
"190 351 LINE",
"529 671 LINE",
"647 671 LINE",
"357 405 LINE",
"652 8 LINE",
"536 8 LINE",
"290 341 LINE",
"190 246 LINE",
"190 8 LINE",
"98 8 LINE"
);
}
);
width = 686;
}
);
note = K;
rightKerningGroup = K;
unicode = 004B;
},
{
glyphname = L;
lastChange = "2018-03-11 16:48:06 +0000";
layers = (
{
hints = (
{
horizontal = 1;
place = "{0, 102}";
type = Stem;
},
{
place = "{90, 108}";
type = Stem;
}
);
layerId = "8D160AFA-A4A8-46CF-B5C1-48E538516704";
paths = (
{
closed = 1;
nodes = (
"618 -8 LINE",
"618 110 LINE",
"206 110 LINE",
"206 687 LINE",
"82 687 LINE",
"82 -8 LINE"
);
},
{
closed = 1;
nodes = (
"98 671 LINE",
"190 671 LINE",
"190 94 LINE",
"602 94 LINE",
"602 8 LINE",
"98 8 LINE"
);
}
);
width = 648;
}
);
note = L;
rightKerningGroup = L;
unicode = 004C;
},
{
glyphname = Lacute;
lastChange = "2018-03-11 16:48:06 +0000";
layers = (
{
hints = (
{
horizontal = 1;
place = "{0, 102}";
type = Stem;
},
{
horizontal = 1;
place = "{748, 171}";
type = Stem;
},
{
place = "{90, 108}";
type = Stem;
}
);
layerId = "8D160AFA-A4A8-46CF-B5C1-48E538516704";
paths = (
{
closed = 1;
nodes = (
"618 -8 LINE",
"618 110 LINE",
"206 110 LINE",
"206 687 LINE",
"82 687 LINE",
"82 -8 LINE"
);
},
{
closed = 1;
nodes = (
"98 671 LINE",
"190 671 LINE",
"190 94 LINE",
"602 94 LINE",
"602 8 LINE",
"98 8 LINE"
);
},
{
closed = 1;
nodes = (
"195 740 LINE",
"329 927 LINE",
"175 927 LINE",
"77 740 LINE"
);
},
{
closed = 1;
nodes = (
"185 911 LINE",
"297 911 LINE",
"187 756 LINE",
"103 756 LINE"
);
}
);
width = 648;
}
);
note = Lacute;
rightKerningGroup = L;
unicode = 0139;
},
{
glyphname = Lcaron;
lastChange = "2018-03-11 16:48:06 +0000";
layers = (
{
hints = (
{
horizontal = 1;
place = "{0, 102}";
type = Stem;
},
{
horizontal = 1;
place = "{523, 156}";
type = Stem;
},
{
place = "{90, 108}";
type = Stem;
}
);
layerId = "8D160AFA-A4A8-46CF-B5C1-48E538516704";
paths = (
{
closed = 1;
nodes = (
"618 -8 LINE",
"618 110 LINE",
"206 110 LINE",
"206 687 LINE",
"82 687 LINE",
"82 -8 LINE"
);
},
{
closed = 1;
nodes = (
"98 671 LINE",
"190 671 LINE",
"190 94 LINE",
"602 94 LINE",
"602 8 LINE",
"98 8 LINE"
);
},
{
closed = 1;
nodes = (
"410 515 LINE",
"483 687 LINE",
"355 687 LINE",
"329 515 LINE"
);
},
{
closed = 1;
nodes = (
"369 671 LINE",
"459 671 LINE",
"400 531 LINE",
"347 531 LINE"
);
}
);
width = 648;
}
);
note = Lcaron;
rightKerningGroup = L;
unicode = 013D;
},
{
glyphname = Ldot;
lastChange = "2018-03-11 16:48:06 +0000";
layers = (
{
hints = (
{
horizontal = 1;
place = "{0, 102}";
type = Stem;
},
{
horizontal = 1;
place = "{266, 160}";
type = Stem;
},
{
place = "{90, 108}";
type = Stem;
},
{
place = "{322, 160}";
type = Stem;
}
);
layerId = "8D160AFA-A4A8-46CF-B5C1-48E538516704";
paths = (
{
closed = 1;
nodes = (
"618 -8 LINE",
"618 110 LINE",
"206 110 LINE",
"206 687 LINE",
"82 687 LINE",
"82 -8 LINE"
);
},
{
closed = 1;
nodes = (
"98 671 LINE",
"190 671 LINE",
"190 94 LINE",
"602 94 LINE",
"602 8 LINE",
"98 8 LINE"
);
},
{
closed = 1;
nodes = (
"451 258 OFFCURVE",
"490 297 OFFCURVE",
"490 346 CURVE SMOOTH",
"490 394 OFFCURVE",
"450 434 OFFCURVE",
"402 434 CURVE SMOOTH",
"353 434 OFFCURVE",
"314 395 OFFCURVE",
"314 346 CURVE SMOOTH",
"314 296 OFFCURVE",
"352 258 OFFCURVE",
"402 258 CURVE SMOOTH"
);
},
{
closed = 1;
nodes = (
"360 274 OFFCURVE",
"330 304 OFFCURVE",
"330 346 CURVE SMOOTH",
"330 387 OFFCURVE",
"361 418 OFFCURVE",
"402 418 CURVE SMOOTH",
"442 418 OFFCURVE",
"474 386 OFFCURVE",
"474 346 CURVE SMOOTH",
"474 305 OFFCURVE",
"443 274 OFFCURVE",
"402 274 CURVE SMOOTH"
);
}
);
width = 648;
}
);
note = Ldot;
unicode = 013F;
},
{
glyphname = Lslash;
lastChange = "2018-03-11 16:48:06 +0000";
layers = (
{
hints = (
{
horizontal = 1;
place = "{0, 102}";
type = Stem;
},
{
horizontal = 1;
place = "{318, 90}";
type = Stem;
},
{
place = "{90, 108}";
type = Stem;
}
);
layerId = "8D160AFA-A4A8-46CF-B5C1-48E538516704";
paths = (
{
closed = 1;
nodes = (
"618 -8 LINE",
"618 110 LINE",
"206 110 LINE",
"206 310 LINE",
"326 310 LINE",
"326 416 LINE",
"206 416 LINE",
"206 687 LINE",
"82 687 LINE",
"82 416 LINE",
"-37 416 LINE",
"-37 310 LINE",
"82 310 LINE",
"82 -8 LINE"
);
},
{
closed = 1;
nodes = (
"98 326 LINE",
"-21 326 LINE",
"-21 400 LINE",
"98 400 LINE",
"98 671 LINE",
"190 671 LINE",
"190 400 LINE",
"310 400 LINE",
"310 326 LINE",
"190 326 LINE",
"190 94 LINE",
"602 94 LINE",
"602 8 LINE",
"98 8 LINE"
);
}
);
width = 648;
}
);
note = Lslash;
rightKerningGroup = L;
unicode = 0141;
},
{
glyphname = M;
lastChange = "2018-03-11 16:48:06 +0000";
layers = (
{
hints = (
{
place = "{90, 108}";
type = Stem;
},
{
place = "{629, 108}";
type = Stem;
}
);
layerId = "8D160AFA-A4A8-46CF-B5C1-48E538516704";
paths = (
{
closed = 1;
nodes = (
"206 -8 LINE",
"206 488 LINE",
"360 255 LINE",
"467 255 LINE",
"621 488 LINE",
"621 -8 LINE",
"745 -8 LINE",
"745 687 LINE",
"606 687 LINE",
"421 403 LINE",
"421 379 LINE",
"221 687 LINE",
"82 687 LINE",
"82 -8 LINE"
);
},
{
closed = 1;
nodes = (
"98 671 LINE",
"213 671 LINE",
"405 375 LINE",
"405 349 LINE",
"614 671 LINE",
"729 671 LINE",
"729 8 LINE",
"637 8 LINE",
"637 542 LINE",
"459 271 LINE",
"368 271 LINE",
"190 542 LINE",
"190 8 LINE",
"98 8 LINE"
);
}
);
width = 827;
}
);
note = M;
unicode = 004D;
},
{
glyphname = N;
lastChange = "2018-03-11 16:48:06 +0000";
layers = (
{
hints = (
{
place = "{90, 108}";
type = Stem;
},
{
place = "{573, 108}";
type = Stem;
}
);
layerId = "8D160AFA-A4A8-46CF-B5C1-48E538516704";
paths = (
{
closed = 1;
nodes = (
"206 -8 LINE",
"206 497 LINE",
"556 -8 LINE",
"689 -8 LINE",
"689 687 LINE",
"565 687 LINE",
"565 190 LINE",
"219 687 LINE",
"82 687 LINE",
"82 -8 LINE"
);
},
{
closed = 1;
nodes = (
"98 671 LINE",
"211 671 LINE",
"581 140 LINE",
"581 671 LINE",
"673 671 LINE",
"673 8 LINE",
"564 8 LINE",
"190 549 LINE",
"190 8 LINE",
"98 8 LINE"
);
}
);
width = 771;
}
);
note = N;
unicode = 004E;
},
{
glyphname = Nacute;
lastChange = "2018-03-11 16:48:06 +0000";
layers = (
{
hints = (
{
horizontal = 1;
place = "{748, 171}";
type = Stem;
},
{
place = "{90, 108}";
type = Stem;
},
{
place = "{573, 108}";
type = Stem;
}
);
layerId = "8D160AFA-A4A8-46CF-B5C1-48E538516704";
paths = (
{
closed = 1;
nodes = (
"206 -8 LINE",
"206 497 LINE",
"556 -8 LINE",
"689 -8 LINE",
"689 687 LINE",
"565 687 LINE",
"565 190 LINE",
"219 687 LINE",
"82 687 LINE",
"82 -8 LINE"
);
},
{
closed = 1;
nodes = (
"98 671 LINE",
"211 671 LINE",
"581 140 LINE",
"581 671 LINE",
"673 671 LINE",
"673 8 LINE",
"564 8 LINE",
"190 549 LINE",
"190 8 LINE",
"98 8 LINE"
);
},
{
closed = 1;
nodes = (
"443 740 LINE",
"577 927 LINE",
"423 927 LINE",
"325 740 LINE"
);
},
{
closed = 1;
nodes = (
"433 911 LINE",
"545 911 LINE",
"435 756 LINE",
"351 756 LINE"
);
}
);
width = 771;
}
);
note = Nacute;
unicode = 0143;
},
{
glyphname = Ncaron;
lastChange = "2018-03-11 16:48:06 +0000";
layers = (
{
hints = (
{
horizontal = 1;
place = "{748, 171}";
type = Stem;
},
{
place = "{90, 108}";
type = Stem;
},
{
place = "{573, 108}";
type = Stem;
}
);
layerId = "8D160AFA-A4A8-46CF-B5C1-48E538516704";
paths = (
{
closed = 1;
nodes = (
"206 -8 LINE",
"206 497 LINE",
"556 -8 LINE",
"689 -8 LINE",
"689 687 LINE",
"565 687 LINE",
"565 190 LINE",
"219 687 LINE",
"82 687 LINE",
"82 -8 LINE"
);
},
{
closed = 1;
nodes = (
"98 671 LINE",
"211 671 LINE",
"581 140 LINE",
"581 671 LINE",
"673 671 LINE",
"673 8 LINE",
"564 8 LINE",
"190 549 LINE",
"190 8 LINE",
"98 8 LINE"
);
},
{
closed = 1;
nodes = (
"446 740 LINE",
"561 927 LINE",
"442 927 LINE",
"386 850 LINE",
"329 927 LINE",
"210 927 LINE",
"325 740 LINE"
);
},
{
closed = 1;
nodes = (
"238 911 LINE",
"321 911 LINE",
"386 822 LINE",
"450 911 LINE",
"533 911 LINE",
"438 756 LINE",
"333 756 LINE"
);
}
);
width = 771;
}
);
note = Ncaron;
unicode = 0147;
},
{
glyphname = Eng;
lastChange = "2018-03-11 16:48:06 +0000";
layers = (
{
hints = (
{
horizontal = 1;
place = "{-224, 96}";
type = Stem;
},
{
place = "{90, 108}";
type = Stem;
},
{
place = "{573, 108}";
type = Stem;
}
);
layerId = "8D160AFA-A4A8-46CF-B5C1-48E538516704";
paths = (
{
closed = 1;
nodes = (
"661 -232 OFFCURVE",
"689 -109 OFFCURVE",
"689 -31 CURVE SMOOTH",
"689 687 LINE",
"565 687 LINE",
"565 190 LINE",
"219 687 LINE",
"82 687 LINE",
"82 -8 LINE",
"206 -8 LINE",
"206 497 LINE",
"556 -8 LINE",
"565 -8 LINE",
"565 -40 LINE SMOOTH",
"565 -92 OFFCURVE",
"544 -120 OFFCURVE",
"506 -120 CURVE SMOOTH",
"430 -120 OFFCURVE",
"382 -45 OFFCURVE",
"382 -45 CURVE",
"367 -49 LINE",
"367 -161 LINE",
"368 -165 LINE",
"368 -165 OFFCURVE",
"406 -232 OFFCURVE",
"521 -232 CURVE SMOOTH"
);
},
{
closed = 1;
nodes = (
"427 -216 OFFCURVE",
"390 -169 OFFCURVE",
"383 -159 CURVE",
"383 -72 LINE",
"404 -97 OFFCURVE",
"448 -136 OFFCURVE",
"506 -136 CURVE SMOOTH",
"554 -136 OFFCURVE",
"581 -100 OFFCURVE",
"581 -40 CURVE SMOOTH",
"581 8 LINE",
"564 8 LINE",
"190 549 LINE",
"190 8 LINE",
"98 8 LINE",
"98 671 LINE",
"211 671 LINE",
"581 140 LINE",
"581 671 LINE",
"673 671 LINE",
"673 -31 LINE SMOOTH",
"673 -107 OFFCURVE",
"649 -216 OFFCURVE",
"521 -216 CURVE SMOOTH"
);
}
);
width = 771;
}
);
note = Eng;
unicode = 014A;
},
{
glyphname = Ntilde;
lastChange = "2018-03-11 16:48:06 +0000";
layers = (
{
hints = (
{
horizontal = 1;
place = "{743, 90}";
type = Stem;
},
{
place = "{90, 108}";
type = Stem;
},
{
place = "{573, 108}";
type = Stem;
},
{
horizontal = 1;
place = "{797, 90}";
type = Stem;
}
);
layerId = "8D160AFA-A4A8-46CF-B5C1-48E538516704";
paths = (
{
closed = 1;
nodes = (
"206 -8 LINE",
"206 497 LINE",
"556 -8 LINE",
"689 -8 LINE",
"689 687 LINE",
"565 687 LINE",
"565 190 LINE",
"219 687 LINE",
"82 687 LINE",
"82 -8 LINE"
);
},
{
closed = 1;
nodes = (
"98 671 LINE",
"211 671 LINE",
"581 140 LINE",
"581 671 LINE",
"673 671 LINE",
"673 8 LINE",
"564 8 LINE",
"190 549 LINE",
"190 8 LINE",
"98 8 LINE"
);
},
{
closed = 1;
nodes = (
"512 735 OFFCURVE",
"549 779 OFFCURVE",
"560 855 CURVE",
"462 891 LINE",
"456 867 OFFCURVE",
"457 841 OFFCURVE",
"439 841 CURVE SMOOTH",
"429 841 OFFCURVE",
"416 848 OFFCURVE",
"391 866 CURVE",
"386 868 LINE",
"393 868 LINE",
"393 869 LINE",
"387 869 LINE",
"369 881 OFFCURVE",
"343 895 OFFCURVE",
"311 895 CURVE SMOOTH",
"258 895 OFFCURVE",
"221 851 OFFCURVE",
"210 775 CURVE",
"308 739 LINE",
"314 763 OFFCURVE",
"313 789 OFFCURVE",
"331 789 CURVE SMOOTH",
"341 789 OFFCURVE",
"354 782 OFFCURVE",
"379 764 CURVE",
"384 762 LINE",
"377 762 LINE",
"377 761 LINE",
"383 761 LINE",
"401 749 OFFCURVE",
"427 735 OFFCURVE",
"459 735 CURVE SMOOTH"
);
},
{
closed = 1;
nodes = (
"436 751 OFFCURVE",
"414 759 OFFCURVE",
"391 776 CURVE",
"386 777 LINE",
"393 777 LINE",
"393 778 LINE",
"387 778 LINE",
"369 791 OFFCURVE",
"348 805 OFFCURVE",
"331 805 CURVE SMOOTH",
"305 805 OFFCURVE",
"299 780 OFFCURVE",
"296 761 CURVE",
"228 785 LINE",
"240 846 OFFCURVE",
"270 879 OFFCURVE",
"311 879 CURVE SMOOTH",
"334 879 OFFCURVE",
"356 871 OFFCURVE",
"379 854 CURVE",
"384 853 LINE",
"377 853 LINE",
"377 852 LINE",
"383 852 LINE",
"401 839 OFFCURVE",
"422 825 OFFCURVE",
"439 825 CURVE SMOOTH",
"465 825 OFFCURVE",
"471 850 OFFCURVE",
"474 869 CURVE",
"542 845 LINE",
"530 784 OFFCURVE",
"500 751 OFFCURVE",
"459 751 CURVE SMOOTH"
);
}
);
width = 771;
}
);
note = Ntilde;
unicode = 00D1;
},
{
glyphname = O;
lastChange = "2018-03-11 16:48:06 +0000";
layers = (
{
hints = (
{
horizontal = 1;
place = "{-15, 103}";
type = Stem;
},
{
horizontal = 1;
place = "{593, 102}";
type = Stem;
},
{
place = "{45, 112}";
type = Stem;
},
{
place = "{645, 113}";
type = Stem;
}
);
layerId = "8D160AFA-A4A8-46CF-B5C1-48E538516704";
paths = (
{
closed = 1;
nodes = (
"607 -26 OFFCURVE",
"769 136 OFFCURVE",
"766 340 CURVE",
"769 544 OFFCURVE",
"607 706 OFFCURVE",
"401 703 CURVE SMOOTH",
"196 706 OFFCURVE",
"34 544 OFFCURVE",
"37 340 CURVE SMOOTH",
"34 136 OFFCURVE",
"196 -26 OFFCURVE",
"401 -23 CURVE SMOOTH"
);
},
{
closed = 1;
nodes = (
"204 -10 OFFCURVE",
"50 144 OFFCURVE",
"53 340 CURVE",
"50 536 OFFCURVE",
"204 690 OFFCURVE",
"401 687 CURVE SMOOTH",
"598 690 OFFCURVE",
"753 535 OFFCURVE",
"750 340 CURVE SMOOTH",
"753 145 OFFCURVE",
"598 -10 OFFCURVE",
"401 -7 CURVE SMOOTH"
);
},
{
closed = 1;
nodes = (
"262 96 OFFCURVE",
"165 196 OFFCURVE",
"165 340 CURVE SMOOTH",
"165 483 OFFCURVE",
"263 585 OFFCURVE",
"401 585 CURVE SMOOTH",
"540 585 OFFCURVE",
"637 484 OFFCURVE",
"637 340 CURVE SMOOTH",
"637 195 OFFCURVE",
"541 96 OFFCURVE",
"401 96 CURVE SMOOTH"
);
},
{
closed = 1;
nodes = (
"550 80 OFFCURVE",
"653 187 OFFCURVE",
"653 340 CURVE SMOOTH",
"653 493 OFFCURVE",
"549 601 OFFCURVE",
"401 601 CURVE SMOOTH",
"254 601 OFFCURVE",
"149 492 OFFCURVE",
"149 340 CURVE SMOOTH",
"149 188 OFFCURVE",
"253 80 OFFCURVE",
"401 80 CURVE SMOOTH"
);
}
);
width = 803;
}
);
leftKerningGroup = C;
note = O;
rightKerningGroup = O;
unicode = 004F;
},
{
glyphname = Oacute;
lastChange = "2018-03-11 16:48:06 +0000";
layers = (
{
hints = (
{
horizontal = 1;
place = "{-15, 103}";
type = Stem;
},
{
horizontal = 1;
place = "{593, 102}";
type = Stem;
},
{
horizontal = 1;
place = "{748, 171}";
type = Stem;
},
{
place = "{45, 112}";
type = Stem;
},
{
place = "{645, 113}";
type = Stem;
}
);
layerId = "8D160AFA-A4A8-46CF-B5C1-48E538516704";
paths = (
{
closed = 1;
nodes = (
"607 -26 OFFCURVE",
"769 136 OFFCURVE",
"766 340 CURVE",
"769 544 OFFCURVE",
"607 706 OFFCURVE",
"401 703 CURVE SMOOTH",
"196 706 OFFCURVE",
"34 544 OFFCURVE",
"37 340 CURVE SMOOTH",
"34 136 OFFCURVE",
"196 -26 OFFCURVE",
"401 -23 CURVE SMOOTH"
);
},
{
closed = 1;
nodes = (
"204 -10 OFFCURVE",
"50 144 OFFCURVE",
"53 340 CURVE",
"50 536 OFFCURVE",
"204 690 OFFCURVE",
"401 687 CURVE SMOOTH",
"598 690 OFFCURVE",
"753 535 OFFCURVE",
"750 340 CURVE SMOOTH",
"753 145 OFFCURVE",
"598 -10 OFFCURVE",
"401 -7 CURVE SMOOTH"
);
},
{
closed = 1;
nodes = (
"262 96 OFFCURVE",
"165 196 OFFCURVE",
"165 340 CURVE SMOOTH",
"165 483 OFFCURVE",
"263 585 OFFCURVE",
"401 585 CURVE SMOOTH",
"540 585 OFFCURVE",
"637 484 OFFCURVE",
"637 340 CURVE SMOOTH",
"637 195 OFFCURVE",
"541 96 OFFCURVE",
"401 96 CURVE SMOOTH"
);
},
{
closed = 1;
nodes = (
"550 80 OFFCURVE",
"653 187 OFFCURVE",
"653 340 CURVE SMOOTH",
"653 493 OFFCURVE",
"549 601 OFFCURVE",
"401 601 CURVE SMOOTH",
"254 601 OFFCURVE",
"149 492 OFFCURVE",
"149 340 CURVE SMOOTH",
"149 188 OFFCURVE",
"253 80 OFFCURVE",
"401 80 CURVE SMOOTH"
);
},
{
closed = 1;
nodes = (
"459 740 LINE",
"593 927 LINE",
"439 927 LINE",
"341 740 LINE"
);
},
{
closed = 1;
nodes = (
"449 911 LINE",
"561 911 LINE",
"451 756 LINE",
"367 756 LINE"
);
}
);
width = 803;
}
);
leftKerningGroup = C;
note = Oacute;
rightKerningGroup = O;
unicode = 00D3;
},
{
glyphname = Ocircumflex;
lastChange = "2018-03-11 16:48:06 +0000";
layers = (
{
hints = (
{
horizontal = 1;
place = "{-15, 103}";
type = Stem;
},
{
horizontal = 1;
place = "{593, 102}";
type = Stem;
},
{
horizontal = 1;
place = "{748, 171}";
type = Stem;
},
{
place = "{45, 112}";
type = Stem;
},
{
place = "{645, 113}";
type = Stem;
}
);
layerId = "8D160AFA-A4A8-46CF-B5C1-48E538516704";
paths = (
{
closed = 1;
nodes = (
"607 -26 OFFCURVE",
"769 136 OFFCURVE",
"766 340 CURVE",
"769 544 OFFCURVE",
"607 706 OFFCURVE",
"401 703 CURVE SMOOTH",
"196 706 OFFCURVE",
"34 544 OFFCURVE",
"37 340 CURVE SMOOTH",
"34 136 OFFCURVE",
"196 -26 OFFCURVE",
"401 -23 CURVE SMOOTH"
);
},
{
closed = 1;
nodes = (
"204 -10 OFFCURVE",
"50 144 OFFCURVE",
"53 340 CURVE",
"50 536 OFFCURVE",
"204 690 OFFCURVE",
"401 687 CURVE SMOOTH",
"598 690 OFFCURVE",
"753 535 OFFCURVE",
"750 340 CURVE SMOOTH",
"753 145 OFFCURVE",
"598 -10 OFFCURVE",
"401 -7 CURVE SMOOTH"
);
},
{
closed = 1;
nodes = (
"262 96 OFFCURVE",
"165 196 OFFCURVE",
"165 340 CURVE SMOOTH",
"165 483 OFFCURVE",
"263 585 OFFCURVE",
"401 585 CURVE SMOOTH",
"540 585 OFFCURVE",
"637 484 OFFCURVE",
"637 340 CURVE SMOOTH",
"637 195 OFFCURVE",
"541 96 OFFCURVE",
"401 96 CURVE SMOOTH"
);
},
{
closed = 1;
nodes = (
"550 80 OFFCURVE",
"653 187 OFFCURVE",
"653 340 CURVE SMOOTH",
"653 493 OFFCURVE",
"549 601 OFFCURVE",
"401 601 CURVE SMOOTH",
"254 601 OFFCURVE",
"149 492 OFFCURVE",
"149 340 CURVE SMOOTH",
"149 188 OFFCURVE",
"253 80 OFFCURVE",
"401 80 CURVE SMOOTH"
);
},
{
closed = 1;
nodes = (
"345 740 LINE",
"402 817 LINE",
"458 740 LINE",
"577 740 LINE",
"462 927 LINE",
"341 927 LINE",
"226 740 LINE"
);
},
{
closed = 1;
nodes = (
"349 911 LINE",
"454 911 LINE",
"549 756 LINE",
"466 756 LINE",
"402 845 LINE",
"337 756 LINE",
"254 756 LINE"
);
}
);
width = 803;
}
);
leftKerningGroup = C;
note = Ocircumflex;
rightKerningGroup = O;
unicode = 00D4;
},
{
glyphname = Odieresis;
lastChange = "2018-03-11 16:48:06 +0000";
layers = (
{
hints = (
{
horizontal = 1;
place = "{-15, 103}";
type = Stem;
},
{
horizontal = 1;
place = "{593, 102}";
type = Stem;
},
{
horizontal = 1;
place = "{760, 111}";
type = Stem;
},
{
place = "{45, 112}";
type = Stem;
},
{
place = "{250, 111}";
type = Stem;
},
{
place = "{442, 111}";
type = Stem;
},
{
place = "{645, 113}";
type = Stem;
}
);
layerId = "8D160AFA-A4A8-46CF-B5C1-48E538516704";
paths = (
{
closed = 1;
nodes = (
"607 -26 OFFCURVE",
"769 136 OFFCURVE",
"766 340 CURVE",
"769 544 OFFCURVE",
"607 706 OFFCURVE",
"401 703 CURVE SMOOTH",
"196 706 OFFCURVE",
"34 544 OFFCURVE",
"37 340 CURVE SMOOTH",
"34 136 OFFCURVE",
"196 -26 OFFCURVE",
"401 -23 CURVE SMOOTH"
);
},
{
closed = 1;
nodes = (
"204 -10 OFFCURVE",
"50 144 OFFCURVE",
"53 340 CURVE",
"50 536 OFFCURVE",
"204 690 OFFCURVE",
"401 687 CURVE SMOOTH",
"598 690 OFFCURVE",
"753 535 OFFCURVE",
"750 340 CURVE SMOOTH",
"753 145 OFFCURVE",
"598 -10 OFFCURVE",
"401 -7 CURVE SMOOTH"
);
},
{
closed = 1;
nodes = (
"262 96 OFFCURVE",
"165 196 OFFCURVE",
"165 340 CURVE SMOOTH",
"165 483 OFFCURVE",
"263 585 OFFCURVE",
"401 585 CURVE SMOOTH",
"540 585 OFFCURVE",
"637 484 OFFCURVE",
"637 340 CURVE SMOOTH",
"637 195 OFFCURVE",
"541 96 OFFCURVE",
"401 96 CURVE SMOOTH"
);
},
{
closed = 1;
nodes = (
"550 80 OFFCURVE",
"653 187 OFFCURVE",
"653 340 CURVE SMOOTH",
"653 493 OFFCURVE",
"549 601 OFFCURVE",
"401 601 CURVE SMOOTH",
"254 601 OFFCURVE",
"149 492 OFFCURVE",
"149 340 CURVE SMOOTH",
"149 188 OFFCURVE",
"253 80 OFFCURVE",
"401 80 CURVE SMOOTH"
);
},
{
closed = 1;
nodes = (
"340 752 OFFCURVE",
"369 781 OFFCURVE",
"369 815 CURVE SMOOTH",
"369 850 OFFCURVE",
"341 879 OFFCURVE",
"306 879 CURVE SMOOTH",
"271 879 OFFCURVE",
"242 850 OFFCURVE",
"242 815 CURVE SMOOTH",
"242 780 OFFCURVE",
"271 752 OFFCURVE",
"306 752 CURVE SMOOTH"
);
},
{
closed = 1;
nodes = (
"280 768 OFFCURVE",
"258 789 OFFCURVE",
"258 815 CURVE SMOOTH",
"258 842 OFFCURVE",
"279 863 OFFCURVE",
"306 863 CURVE SMOOTH",
"332 863 OFFCURVE",
"353 841 OFFCURVE",
"353 815 CURVE SMOOTH",
"353 789 OFFCURVE",
"332 768 OFFCURVE",
"306 768 CURVE SMOOTH"
);
},
{
closed = 1;
nodes = (
"532 752 OFFCURVE",
"561 781 OFFCURVE",
"561 815 CURVE SMOOTH",
"561 850 OFFCURVE",
"533 879 OFFCURVE",
"498 879 CURVE SMOOTH",
"463 879 OFFCURVE",
"434 850 OFFCURVE",
"434 815 CURVE SMOOTH",
"434 780 OFFCURVE",
"463 752 OFFCURVE",
"498 752 CURVE SMOOTH"
);
},
{
closed = 1;
nodes = (
"472 768 OFFCURVE",
"450 789 OFFCURVE",
"450 815 CURVE SMOOTH",
"450 842 OFFCURVE",
"471 863 OFFCURVE",
"498 863 CURVE SMOOTH",
"524 863 OFFCURVE",
"545 841 OFFCURVE",
"545 815 CURVE SMOOTH",
"545 789 OFFCURVE",
"524 768 OFFCURVE",
"498 768 CURVE SMOOTH"
);
}
);
width = 803;
}
);
leftKerningGroup = C;
note = Odieresis;
rightKerningGroup = O;
unicode = 00D6;
},
{
glyphname = Ograve;
lastChange = "2018-03-11 16:48:06 +0000";
layers = (
{
hints = (
{
horizontal = 1;
place = "{-15, 103}";
type = Stem;
},
{
horizontal = 1;
place = "{593, 102}";
type = Stem;
},
{
horizontal = 1;
place = "{748, 171}";
type = Stem;
},
{
place = "{45, 112}";
type = Stem;
},
{
place = "{645, 113}";
type = Stem;
}
);
layerId = "8D160AFA-A4A8-46CF-B5C1-48E538516704";
paths = (
{
closed = 1;
nodes = (
"607 -26 OFFCURVE",
"769 136 OFFCURVE",
"766 340 CURVE",
"769 544 OFFCURVE",
"607 706 OFFCURVE",
"401 703 CURVE SMOOTH",
"196 706 OFFCURVE",
"34 544 OFFCURVE",
"37 340 CURVE SMOOTH",
"34 136 OFFCURVE",
"196 -26 OFFCURVE",
"401 -23 CURVE SMOOTH"
);
},
{
closed = 1;
nodes = (
"204 -10 OFFCURVE",
"50 144 OFFCURVE",
"53 340 CURVE",
"50 536 OFFCURVE",
"204 690 OFFCURVE",
"401 687 CURVE SMOOTH",
"598 690 OFFCURVE",
"753 535 OFFCURVE",
"750 340 CURVE SMOOTH",
"753 145 OFFCURVE",
"598 -10 OFFCURVE",
"401 -7 CURVE SMOOTH"
);
},
{
closed = 1;
nodes = (
"262 96 OFFCURVE",
"165 196 OFFCURVE",
"165 340 CURVE SMOOTH",
"165 483 OFFCURVE",
"263 585 OFFCURVE",
"401 585 CURVE SMOOTH",
"540 585 OFFCURVE",
"637 484 OFFCURVE",
"637 340 CURVE SMOOTH",
"637 195 OFFCURVE",
"541 96 OFFCURVE",
"401 96 CURVE SMOOTH"
);
},
{
closed = 1;
nodes = (
"550 80 OFFCURVE",
"653 187 OFFCURVE",
"653 340 CURVE SMOOTH",
"653 493 OFFCURVE",
"549 601 OFFCURVE",
"401 601 CURVE SMOOTH",
"254 601 OFFCURVE",
"149 492 OFFCURVE",
"149 340 CURVE SMOOTH",
"149 188 OFFCURVE",
"253 80 OFFCURVE",
"401 80 CURVE SMOOTH"
);
},
{
closed = 1;
nodes = (
"464 740 LINE",
"366 927 LINE",
"212 927 LINE",
"346 740 LINE"
);
},
{
closed = 1;
nodes = (
"244 911 LINE",
"356 911 LINE",
"438 756 LINE",
"354 756 LINE"
);
}
);
width = 803;
}
);
leftKerningGroup = C;
note = Ograve;
rightKerningGroup = O;
unicode = 00D2;
},
{
glyphname = Ohungarumlaut;
lastChange = "2018-03-11 16:48:06 +0000";
layers = (
{
hints = (
{
horizontal = 1;
place = "{-15, 103}";
type = Stem;
},
{
horizontal = 1;
place = "{593, 102}";
type = Stem;
},
{
horizontal = 1;
place = "{748, 171}";
type = Stem;
},
{
place = "{45, 112}";
type = Stem;
},
{
place = "{645, 113}";
type = Stem;
}
);
layerId = "8D160AFA-A4A8-46CF-B5C1-48E538516704";
paths = (
{
closed = 1;
nodes = (
"607 -26 OFFCURVE",
"769 136 OFFCURVE",
"766 340 CURVE",
"769 544 OFFCURVE",
"607 706 OFFCURVE",
"401 703 CURVE SMOOTH",
"196 706 OFFCURVE",
"34 544 OFFCURVE",
"37 340 CURVE SMOOTH",
"34 136 OFFCURVE",
"196 -26 OFFCURVE",
"401 -23 CURVE SMOOTH"
);
},
{
closed = 1;
nodes = (
"204 -10 OFFCURVE",
"50 144 OFFCURVE",
"53 340 CURVE",
"50 536 OFFCURVE",
"204 690 OFFCURVE",
"401 687 CURVE SMOOTH",
"598 690 OFFCURVE",
"753 535 OFFCURVE",
"750 340 CURVE SMOOTH",
"753 145 OFFCURVE",
"598 -10 OFFCURVE",
"401 -7 CURVE SMOOTH"
);
},
{
closed = 1;
nodes = (
"262 96 OFFCURVE",
"165 196 OFFCURVE",
"165 340 CURVE SMOOTH",
"165 483 OFFCURVE",
"263 585 OFFCURVE",
"401 585 CURVE SMOOTH",
"540 585 OFFCURVE",
"637 484 OFFCURVE",
"637 340 CURVE SMOOTH",
"637 195 OFFCURVE",
"541 96 OFFCURVE",
"401 96 CURVE SMOOTH"
);
},
{
closed = 1;
nodes = (
"550 80 OFFCURVE",
"653 187 OFFCURVE",
"653 340 CURVE SMOOTH",
"653 493 OFFCURVE",
"549 601 OFFCURVE",
"401 601 CURVE SMOOTH",
"254 601 OFFCURVE",
"149 492 OFFCURVE",
"149 340 CURVE SMOOTH",
"149 188 OFFCURVE",
"253 80 OFFCURVE",
"401 80 CURVE SMOOTH"
);
},
{
closed = 1;
nodes = (
"370 740 LINE",
"504 927 LINE",
"350 927 LINE",
"252 740 LINE"
);
},
{
closed = 1;
nodes = (
"360 911 LINE",
"472 911 LINE",
"362 756 LINE",
"278 756 LINE"
);
},
{
closed = 1;
nodes = (
"550 740 LINE",
"694 927 LINE",
"540 927 LINE",
"431 740 LINE"
);
},
{
closed = 1;
nodes = (
"550 911 LINE",
"662 911 LINE",
"542 756 LINE",
"459 756 LINE"
);
}
);
width = 803;
}
);
leftKerningGroup = C;
note = Ohungarumlaut;
rightKerningGroup = O;
unicode = 0150;
},
{
glyphname = Omacron;
lastChange = "2018-03-11 16:48:06 +0000";
layers = (
{
hints = (
{
horizontal = 1;
place = "{-15, 103}";
type = Stem;
},
{
horizontal = 1;
place = "{593, 102}";
type = Stem;
},
{
horizontal = 1;
place = "{763, 90}";
type = Stem;
},
{
place = "{45, 112}";
type = Stem;
},
{
place = "{263, 277}";
type = Stem;
},
{
place = "{645, 113}";
type = Stem;
}
);
layerId = "8D160AFA-A4A8-46CF-B5C1-48E538516704";
paths = (
{
closed = 1;
nodes = (
"607 -26 OFFCURVE",
"769 136 OFFCURVE",
"766 340 CURVE",
"769 544 OFFCURVE",
"607 706 OFFCURVE",
"401 703 CURVE SMOOTH",
"196 706 OFFCURVE",
"34 544 OFFCURVE",
"37 340 CURVE SMOOTH",
"34 136 OFFCURVE",
"196 -26 OFFCURVE",
"401 -23 CURVE SMOOTH"
);
},
{
closed = 1;
nodes = (
"204 -10 OFFCURVE",
"50 144 OFFCURVE",
"53 340 CURVE",
"50 536 OFFCURVE",
"204 690 OFFCURVE",
"401 687 CURVE SMOOTH",
"598 690 OFFCURVE",
"753 535 OFFCURVE",
"750 340 CURVE SMOOTH",
"753 145 OFFCURVE",
"598 -10 OFFCURVE",
"401 -7 CURVE SMOOTH"
);
},
{
closed = 1;
nodes = (
"262 96 OFFCURVE",
"165 196 OFFCURVE",
"165 340 CURVE SMOOTH",
"165 483 OFFCURVE",
"263 585 OFFCURVE",
"401 585 CURVE SMOOTH",
"540 585 OFFCURVE",
"637 484 OFFCURVE",
"637 340 CURVE SMOOTH",
"637 195 OFFCURVE",
"541 96 OFFCURVE",
"401 96 CURVE SMOOTH"
);
},
{
closed = 1;
nodes = (
"550 80 OFFCURVE",
"653 187 OFFCURVE",
"653 340 CURVE SMOOTH",
"653 493 OFFCURVE",
"549 601 OFFCURVE",
"401 601 CURVE SMOOTH",
"254 601 OFFCURVE",
"149 492 OFFCURVE",
"149 340 CURVE SMOOTH",
"149 188 OFFCURVE",
"253 80 OFFCURVE",
"401 80 CURVE SMOOTH"
);
},
{
closed = 1;
nodes = (
"548 755 LINE",
"548 861 LINE",
"255 861 LINE",
"255 755 LINE"
);
},
{
closed = 1;
nodes = (
"271 845 LINE",
"532 845 LINE",
"532 771 LINE",
"271 771 LINE"
);
}
);
width = 803;
}
);
leftKerningGroup = C;
note = Omacron;
rightKerningGroup = O;
unicode = 014C;
},
{
glyphname = Oslash;
lastChange = "2018-03-11 16:48:06 +0000";
layers = (
{
hints = (
{
horizontal = 1;
place = "{-15, 103}";
type = Stem;
},
{
place = "{45, 112}";
type = Stem;
},
{
place = "{645, 113}";
type = Stem;
},
{
horizontal = 1;
place = "{593, 102}";
type = Stem;
}
);
layerId = "8D160AFA-A4A8-46CF-B5C1-48E538516704";
paths = (
{
closed = 1;
nodes = (
"607 -26 OFFCURVE",
"769 136 OFFCURVE",
"766 340 CURVE",
"767 412 OFFCURVE",
"747 483 OFFCURVE",
"707 544 CURVE",
"793 623 LINE",
"703 712 LINE",
"620 634 LINE",
"558 681 OFFCURVE",
"482 704 OFFCURVE",
"401 703 CURVE SMOOTH",
"196 706 OFFCURVE",
"34 544 OFFCURVE",
"37 340 CURVE SMOOTH",
"36 270 OFFCURVE",
"55 201 OFFCURVE",
"92 142 CURVE",
"8 65 LINE",
"98 -24 LINE",
"176 49 LINE",
"239 1 OFFCURVE",
"318 -24 OFFCURVE",
"401 -23 CURVE SMOOTH"
);
},
{
closed = 1;
nodes = (
"316 -8 OFFCURVE",
"237 19 OFFCURVE",
"176 71 CURVE",
"98 -2 LINE",
"32 65 LINE",
"112 140 LINE",
"73 198 OFFCURVE",
"52 268 OFFCURVE",
"53 340 CURVE",
"50 536 OFFCURVE",
"204 690 OFFCURVE",
"401 687 CURVE SMOOTH",
"484 688 OFFCURVE",
"560 663 OFFCURVE",
"621 613 CURVE",
"703 690 LINE",
"769 623 LINE",
"686 546 LINE",
"729 486 OFFCURVE",
"751 415 OFFCURVE",
"750 340 CURVE SMOOTH",
"753 145 OFFCURVE",
"598 -10 OFFCURVE",
"401 -7 CURVE SMOOTH"
);
},
{
closed = 1;
nodes = (
"350 96 OFFCURVE",
"304 109 OFFCURVE",
"268 134 CURVE",
"613 456 LINE",
"629 421 OFFCURVE",
"637 382 OFFCURVE",
"637 340 CURVE SMOOTH",
"637 195 OFFCURVE",
"541 96 OFFCURVE",
"401 96 CURVE SMOOTH"
);
},
{
closed = 1;
nodes = (
"550 80 OFFCURVE",
"653 187 OFFCURVE",
"653 340 CURVE SMOOTH",
"653 393 OFFCURVE",
"641 441 OFFCURVE",
"617 482 CURVE",
"243 132 LINE",
"285 98 OFFCURVE",
"340 80 OFFCURVE",
"401 80 CURVE SMOOTH"
);
},
{
closed = 1;
nodes = (
"172 264 OFFCURVE",
"165 300 OFFCURVE",
"165 340 CURVE SMOOTH",
"165 483 OFFCURVE",
"263 585 OFFCURVE",
"401 585 CURVE SMOOTH",
"449 585 OFFCURVE",
"493 573 OFFCURVE",
"529 551 CURVE",
"187 231 LINE"
);
},
{
closed = 1;
nodes = (
"555 553 LINE",
"512 585 OFFCURVE",
"459 601 OFFCURVE",
"401 601 CURVE SMOOTH",
"254 601 OFFCURVE",
"149 492 OFFCURVE",
"149 340 CURVE SMOOTH",
"149 289 OFFCURVE",
"160 244 OFFCURVE",
"182 205 CURVE"
);
}
);
width = 803;
}
);
leftKerningGroup = C;
note = Oslash;
rightKerningGroup = O;
unicode = 00D8;
},
{
glyphname = Otilde;
lastChange = "2018-03-11 16:48:06 +0000";
layers = (
{
hints = (
{
horizontal = 1;
place = "{-15, 103}";
type = Stem;
},
{
horizontal = 1;
place = "{593, 102}";
type = Stem;
},
{
horizontal = 1;
place = "{743, 90}";
type = Stem;
},
{
place = "{45, 112}";
type = Stem;
},
{
place = "{645, 113}";
type = Stem;
},
{
horizontal = 1;
place = "{797, 90}";
type = Stem;
}
);
layerId = "8D160AFA-A4A8-46CF-B5C1-48E538516704";
paths = (
{
closed = 1;
nodes = (
"607 -26 OFFCURVE",
"769 136 OFFCURVE",
"766 340 CURVE",
"769 544 OFFCURVE",
"607 706 OFFCURVE",
"401 703 CURVE SMOOTH",
"196 706 OFFCURVE",
"34 544 OFFCURVE",
"37 340 CURVE SMOOTH",
"34 136 OFFCURVE",
"196 -26 OFFCURVE",
"401 -23 CURVE SMOOTH"
);
},
{
closed = 1;
nodes = (
"204 -10 OFFCURVE",
"50 144 OFFCURVE",
"53 340 CURVE",
"50 536 OFFCURVE",
"204 690 OFFCURVE",
"401 687 CURVE SMOOTH",
"598 690 OFFCURVE",
"753 535 OFFCURVE",
"750 340 CURVE SMOOTH",
"753 145 OFFCURVE",
"598 -10 OFFCURVE",
"401 -7 CURVE SMOOTH"
);
},
{
closed = 1;
nodes = (
"262 96 OFFCURVE",
"165 196 OFFCURVE",
"165 340 CURVE SMOOTH",
"165 483 OFFCURVE",
"263 585 OFFCURVE",
"401 585 CURVE SMOOTH",
"540 585 OFFCURVE",
"637 484 OFFCURVE",
"637 340 CURVE SMOOTH",
"637 195 OFFCURVE",
"541 96 OFFCURVE",
"401 96 CURVE SMOOTH"
);
},
{
closed = 1;
nodes = (
"550 80 OFFCURVE",
"653 187 OFFCURVE",
"653 340 CURVE SMOOTH",
"653 493 OFFCURVE",
"549 601 OFFCURVE",
"401 601 CURVE SMOOTH",
"254 601 OFFCURVE",
"149 492 OFFCURVE",
"149 340 CURVE SMOOTH",
"149 188 OFFCURVE",
"253 80 OFFCURVE",
"401 80 CURVE SMOOTH"
);
},
{
closed = 1;
nodes = (
"528 735 OFFCURVE",
"565 779 OFFCURVE",
"576 855 CURVE",
"478 891 LINE",
"472 867 OFFCURVE",
"473 841 OFFCURVE",
"455 841 CURVE SMOOTH",
"445 841 OFFCURVE",
"432 848 OFFCURVE",
"407 866 CURVE",
"402 868 LINE",
"409 868 LINE",
"409 869 LINE",
"403 869 LINE",
"385 881 OFFCURVE",
"359 895 OFFCURVE",
"327 895 CURVE SMOOTH",
"274 895 OFFCURVE",
"237 851 OFFCURVE",
"226 775 CURVE",
"324 739 LINE",
"330 763 OFFCURVE",
"329 789 OFFCURVE",
"347 789 CURVE SMOOTH",
"357 789 OFFCURVE",
"370 782 OFFCURVE",
"395 764 CURVE",
"400 762 LINE",
"393 762 LINE",
"393 761 LINE",
"399 761 LINE",
"417 749 OFFCURVE",
"443 735 OFFCURVE",
"475 735 CURVE SMOOTH"
);
},
{
closed = 1;
nodes = (
"452 751 OFFCURVE",
"430 759 OFFCURVE",
"407 776 CURVE",
"402 777 LINE",
"409 777 LINE",
"409 778 LINE",
"403 778 LINE",
"385 791 OFFCURVE",
"364 805 OFFCURVE",
"347 805 CURVE SMOOTH",
"321 805 OFFCURVE",
"315 780 OFFCURVE",
"312 761 CURVE",
"244 785 LINE",
"256 846 OFFCURVE",
"286 879 OFFCURVE",
"327 879 CURVE SMOOTH",
"350 879 OFFCURVE",
"372 871 OFFCURVE",
"395 854 CURVE",
"400 853 LINE",
"393 853 LINE",
"393 852 LINE",
"399 852 LINE",
"417 839 OFFCURVE",
"438 825 OFFCURVE",
"455 825 CURVE SMOOTH",
"481 825 OFFCURVE",
"487 850 OFFCURVE",
"490 869 CURVE",
"558 845 LINE",
"546 784 OFFCURVE",
"516 751 OFFCURVE",
"475 751 CURVE SMOOTH"
);
}
);
width = 803;
}
);
leftKerningGroup = C;
note = Otilde;
rightKerningGroup = O;
unicode = 00D5;
},
{
glyphname = OE;
lastChange = "2018-03-11 16:48:06 +0000";
layers = (
{
hints = (
{
horizontal = 1;
place = "{0, 102}";
type = Stem;
},
{
horizontal = 1;
place = "{311, 102}";
type = Stem;
},
{
horizontal = 1;
place = "{577, 102}";
type = Stem;
},
{
place = "{45, 112}";
type = Stem;
},
{
place = "{645, 109}";
type = Stem;
},
{
horizontal = 1;
place = "{-15, 103}";
type = Stem;
},
{
horizontal = 1;
place = "{593, 102}";
type = Stem;
}
);
layerId = "8D160AFA-A4A8-46CF-B5C1-48E538516704";
paths = (
{
closed = 1;
nodes = (
"489 -24 OFFCURVE",
"571 5 OFFCURVE",
"637 59 CURVE",
"637 -8 LINE",
"1155 -8 LINE",
"1155 110 LINE",
"762 110 LINE",
"762 303 LINE",
"1070 303 LINE",
"1070 421 LINE",
"762 421 LINE",
"762 569 LINE",
"1149 569 LINE",
"1149 687 LINE",
"637 687 LINE",
"637 621 LINE",
"571 675 OFFCURVE",
"489 704 OFFCURVE",
"401 703 CURVE SMOOTH",
"196 706 OFFCURVE",
"34 544 OFFCURVE",
"37 340 CURVE SMOOTH",
"34 136 OFFCURVE",
"196 -26 OFFCURVE",
"401 -23 CURVE SMOOTH"
);
},
{
closed = 1;
nodes = (
"204 -10 OFFCURVE",
"50 144 OFFCURVE",
"53 340 CURVE",
"50 536 OFFCURVE",
"204 690 OFFCURVE",
"401 687 CURVE SMOOTH",
"498 688 OFFCURVE",
"587 652 OFFCURVE",
"653 585 CURVE",
"653 671 LINE",
"1133 671 LINE",
"1133 585 LINE",
"746 585 LINE",
"746 405 LINE",
"1054 405 LINE",
"1054 319 LINE",
"746 319 LINE",
"746 94 LINE",
"1139 94 LINE",
"1139 8 LINE",
"653 8 LINE",
"653 95 LINE",
"587 28 OFFCURVE",
"498 -8 OFFCURVE",
"401 -7 CURVE SMOOTH"
);
},
{
closed = 1;
nodes = (
"262 96 OFFCURVE",
"165 196 OFFCURVE",
"165 340 CURVE SMOOTH",
"165 483 OFFCURVE",
"263 585 OFFCURVE",
"401 585 CURVE SMOOTH",
"540 585 OFFCURVE",
"637 484 OFFCURVE",
"637 340 CURVE SMOOTH",
"637 195 OFFCURVE",
"541 96 OFFCURVE",
"401 96 CURVE SMOOTH"
);
},
{
closed = 1;
nodes = (
"550 80 OFFCURVE",
"653 187 OFFCURVE",
"653 340 CURVE SMOOTH",
"653 493 OFFCURVE",
"549 601 OFFCURVE",
"401 601 CURVE SMOOTH",
"254 601 OFFCURVE",
"149 492 OFFCURVE",
"149 340 CURVE SMOOTH",
"149 188 OFFCURVE",
"253 80 OFFCURVE",
"401 80 CURVE SMOOTH"
);
}
);
width = 1197;
}
);
leftKerningGroup = C;
note = OE;
rightKerningGroup = AE;
unicode = 0152;
},
{
glyphname = P;
lastChange = "2018-03-11 16:48:06 +0000";
layers = (
{
hints = (
{
horizontal = 1;
place = "{233, 100}";
type = Stem;
},
{
horizontal = 1;
place = "{577, 102}";
type = Stem;
},
{
place = "{90, 109}";
type = Stem;
},
{
place = "{537, 112}";
type = Stem;
}
);
layerId = "8D160AFA-A4A8-46CF-B5C1-48E538516704";
paths = (
{
closed = 1;
nodes = (
"207 -8 LINE",
"207 225 LINE",
"406 225 LINE SMOOTH",
"552 225 OFFCURVE",
"657 321 OFFCURVE",
"657 456 CURVE SMOOTH",
"657 591 OFFCURVE",
"553 687 OFFCURVE",
"409 687 CURVE SMOOTH",
"82 687 LINE",
"82 -8 LINE"
);
},
{
closed = 1;
nodes = (
"98 671 LINE",
"409 671 LINE SMOOTH",
"545 671 OFFCURVE",
"641 582 OFFCURVE",
"641 456 CURVE SMOOTH",
"641 330 OFFCURVE",
"544 241 OFFCURVE",
"406 241 CURVE SMOOTH",
"191 241 LINE",
"191 8 LINE",
"98 8 LINE"
);
},
{
closed = 1;
nodes = (
"207 569 LINE",
"401 569 LINE SMOOTH",
"475 569 OFFCURVE",
"529 520 OFFCURVE",
"529 454 CURVE SMOOTH",
"529 389 OFFCURVE",
"475 341 OFFCURVE",
"401 341 CURVE SMOOTH",
"207 341 LINE"
);
},
{
closed = 1;
nodes = (
"401 325 LINE SMOOTH",
"483 325 OFFCURVE",
"545 380 OFFCURVE",
"545 454 CURVE SMOOTH",
"545 529 OFFCURVE",
"483 585 OFFCURVE",
"401 585 CURVE SMOOTH",
"191 585 LINE",
"191 325 LINE"
);
}
);
width = 698;
}
);
note = P;
rightKerningGroup = P;
unicode = 0050;
},
{
glyphname = Thorn;
lastChange = "2018-03-11 16:48:06 +0000";
layers = (
{
hints = (
{
horizontal = 1;
place = "{0, 193}";
type = Stem;
},
{
horizontal = 1;
place = "{487, 102}";
type = Stem;
},
{
place = "{90, 109}";
type = Stem;
},
{
place = "{537, 112}";
type = Stem;
},
{
horizontal = 1;
place = "{93, 100}";
type = Stem;
}
);
layerId = "8D160AFA-A4A8-46CF-B5C1-48E538516704";
paths = (
{
closed = 1;
nodes = (
"207 -8 LINE",
"207 85 LINE",
"386 85 LINE SMOOTH",
"549 85 OFFCURVE",
"657 187 OFFCURVE",
"657 341 CURVE SMOOTH",
"657 501 OFFCURVE",
"557 597 OFFCURVE",
"389 597 CURVE SMOOTH",
"207 597 LINE",
"207 687 LINE",
"82 687 LINE",
"82 -8 LINE"
);
},
{
closed = 1;
nodes = (
"98 671 LINE",
"191 671 LINE",
"191 581 LINE",
"389 581 LINE SMOOTH",
"548 581 OFFCURVE",
"641 492 OFFCURVE",
"641 341 CURVE SMOOTH",
"641 195 OFFCURVE",
"541 101 OFFCURVE",
"386 101 CURVE SMOOTH",
"191 101 LINE",
"191 8 LINE",
"98 8 LINE"
);
},
{
closed = 1;
nodes = (
"207 479 LINE",
"381 479 LINE SMOOTH",
"481 479 OFFCURVE",
"529 433 OFFCURVE",
"529 339 CURVE SMOOTH",
"529 246 OFFCURVE",
"481 201 OFFCURVE",
"381 201 CURVE SMOOTH",
"207 201 LINE"
);
},
{
closed = 1;
nodes = (
"381 185 LINE SMOOTH",
"489 185 OFFCURVE",
"545 237 OFFCURVE",
"545 339 CURVE SMOOTH",
"545 442 OFFCURVE",
"489 495 OFFCURVE",
"381 495 CURVE SMOOTH",
"191 495 LINE",
"191 185 LINE"
);
}
);
width = 698;
}
);
note = Thorn;
rightKerningGroup = P;
unicode = 00DE;
},
{
glyphname = Q;
lastChange = "2018-03-11 16:48:06 +0000";
layers = (
{
hints = (
{
horizontal = 1;
place = "{-15, 102}";
type = Stem;
},
{
horizontal = 1;
place = "{593, 102}";
type = Stem;
},
{
place = "{45, 112}";
type = Stem;
},
{
place = "{645, 113}";
type = Stem;
}
);
layerId = "8D160AFA-A4A8-46CF-B5C1-48E538516704";
paths = (
{
closed = 1;
nodes = (
"412 -23 LINE",
"791 -23 LINE",
"791 95 LINE",
"675 95 LINE",
"735 163 OFFCURVE",
"768 250 OFFCURVE",
"766 340 CURVE",
"769 544 OFFCURVE",
"607 706 OFFCURVE",
"401 703 CURVE SMOOTH",
"196 706 OFFCURVE",
"34 544 OFFCURVE",
"37 340 CURVE SMOOTH",
"34 136 OFFCURVE",
"196 -26 OFFCURVE",
"401 -23 CURVE SMOOTH"
);
},
{
closed = 1;
nodes = (
"204 -10 OFFCURVE",
"50 144 OFFCURVE",
"53 340 CURVE",
"50 536 OFFCURVE",
"204 690 OFFCURVE",
"401 687 CURVE SMOOTH",
"598 690 OFFCURVE",
"753 535 OFFCURVE",
"750 340 CURVE",
"752 241 OFFCURVE",
"711 146 OFFCURVE",
"637 79 CURVE",
"775 79 LINE",
"775 -7 LINE",
"412 -7 LINE",
"401 -7 LINE SMOOTH"
);
},
{
closed = 1;
nodes = (
"262 96 OFFCURVE",
"165 196 OFFCURVE",
"165 340 CURVE SMOOTH",
"165 483 OFFCURVE",
"263 585 OFFCURVE",
"401 585 CURVE SMOOTH",
"540 585 OFFCURVE",
"637 484 OFFCURVE",
"637 340 CURVE SMOOTH",
"637 195 OFFCURVE",
"541 96 OFFCURVE",
"401 96 CURVE SMOOTH"
);
},
{
closed = 1;
nodes = (
"550 80 OFFCURVE",
"653 187 OFFCURVE",
"653 340 CURVE SMOOTH",
"653 493 OFFCURVE",
"549 601 OFFCURVE",
"401 601 CURVE SMOOTH",
"254 601 OFFCURVE",
"149 492 OFFCURVE",
"149 340 CURVE SMOOTH",
"149 188 OFFCURVE",
"253 80 OFFCURVE",
"401 80 CURVE SMOOTH"
);
}
);
width = 803;
}
);
leftKerningGroup = C;
note = Q;
rightKerningGroup = O;
unicode = 0051;
},
{
glyphname = R;
lastChange = "2018-03-11 16:48:06 +0000";
layers = (
{
hints = (
{
horizontal = 1;
place = "{263, 100}";
type = Stem;
},
{
horizontal = 1;
place = "{577, 102}";
type = Stem;
},
{
place = "{90, 109}";
type = Stem;
},
{
place = "{517, 112}";
type = Stem;
}
);
layerId = "8D160AFA-A4A8-46CF-B5C1-48E538516704";
paths = (
{
closed = 1;
nodes = (
"207 -8 LINE",
"207 255 LINE",
"334 255 LINE",
"528 -8 LINE",
"684 -8 LINE",
"479 267 LINE",
"579 296 OFFCURVE",
"637 371 OFFCURVE",
"637 471 CURVE SMOOTH",
"637 602 OFFCURVE",
"539 687 OFFCURVE",
"389 687 CURVE SMOOTH",
"82 687 LINE",
"82 -8 LINE"
);
},
{
closed = 1;
nodes = (
"98 671 LINE",
"389 671 LINE SMOOTH",
"530 671 OFFCURVE",
"621 592 OFFCURVE",
"621 471 CURVE SMOOTH",
"621 370 OFFCURVE",
"559 299 OFFCURVE",
"452 277 CURVE",
"652 8 LINE",
"536 8 LINE",
"342 271 LINE",
"191 271 LINE",
"191 8 LINE",
"98 8 LINE"
);
},
{
closed = 1;
nodes = (
"207 569 LINE",
"381 569 LINE SMOOTH",
"461 569 OFFCURVE",
"509 531 OFFCURVE",
"509 469 CURVE SMOOTH",
"509 408 OFFCURVE",
"461 371 OFFCURVE",
"381 371 CURVE SMOOTH",
"207 371 LINE"
);
},
{
closed = 1;
nodes = (
"381 355 LINE SMOOTH",
"469 355 OFFCURVE",
"525 399 OFFCURVE",
"525 469 CURVE SMOOTH",
"525 540 OFFCURVE",
"469 585 OFFCURVE",
"381 585 CURVE SMOOTH",
"191 585 LINE",
"191 355 LINE"
);
}
);
width = 689;
}
);
note = R;
rightKerningGroup = R;
unicode = 0052;
},
{
glyphname = Racute;
lastChange = "2018-03-11 16:48:06 +0000";
layers = (
{
hints = (
{
horizontal = 1;
place = "{263, 100}";
type = Stem;
},
{
horizontal = 1;
place = "{577, 102}";
type = Stem;
},
{
horizontal = 1;
place = "{748, 171}";
type = Stem;
},
{
place = "{90, 109}";
type = Stem;
},
{
place = "{517, 112}";
type = Stem;
}
);
layerId = "8D160AFA-A4A8-46CF-B5C1-48E538516704";
paths = (
{
closed = 1;
nodes = (
"207 -8 LINE",
"207 255 LINE",
"334 255 LINE",
"528 -8 LINE",
"684 -8 LINE",
"479 267 LINE",
"579 296 OFFCURVE",
"637 371 OFFCURVE",
"637 471 CURVE SMOOTH",
"637 602 OFFCURVE",
"539 687 OFFCURVE",
"389 687 CURVE SMOOTH",
"82 687 LINE",
"82 -8 LINE"
);
},
{
closed = 1;
nodes = (
"98 671 LINE",
"389 671 LINE SMOOTH",
"530 671 OFFCURVE",
"621 592 OFFCURVE",
"621 471 CURVE SMOOTH",
"621 370 OFFCURVE",
"559 299 OFFCURVE",
"452 277 CURVE",
"652 8 LINE",
"536 8 LINE",
"342 271 LINE",
"191 271 LINE",
"191 8 LINE",
"98 8 LINE"
);
},
{
closed = 1;
nodes = (
"207 569 LINE",
"381 569 LINE SMOOTH",
"461 569 OFFCURVE",
"509 531 OFFCURVE",
"509 469 CURVE SMOOTH",
"509 408 OFFCURVE",
"461 371 OFFCURVE",
"381 371 CURVE SMOOTH",
"207 371 LINE"
);
},
{
closed = 1;
nodes = (
"381 355 LINE SMOOTH",
"469 355 OFFCURVE",
"525 399 OFFCURVE",
"525 469 CURVE SMOOTH",
"525 540 OFFCURVE",
"469 585 OFFCURVE",
"381 585 CURVE SMOOTH",
"191 585 LINE",
"191 355 LINE"
);
},
{
closed = 1;
nodes = (
"378 740 LINE",
"512 927 LINE",
"358 927 LINE",
"260 740 LINE"
);
},
{
closed = 1;
nodes = (
"368 911 LINE",
"480 911 LINE",
"370 756 LINE",
"286 756 LINE"
);
}
);
width = 689;
}
);
note = Racute;
rightKerningGroup = R;
unicode = 0154;
},
{
glyphname = Rcaron;
lastChange = "2018-03-11 16:48:06 +0000";
layers = (
{
hints = (
{
horizontal = 1;
place = "{263, 100}";
type = Stem;
},
{
horizontal = 1;
place = "{577, 102}";
type = Stem;
},
{
horizontal = 1;
place = "{748, 171}";
type = Stem;
},
{
place = "{90, 109}";
type = Stem;
},
{
place = "{517, 112}";
type = Stem;
}
);
layerId = "8D160AFA-A4A8-46CF-B5C1-48E538516704";
paths = (
{
closed = 1;
nodes = (
"207 -8 LINE",
"207 255 LINE",
"334 255 LINE",
"528 -8 LINE",
"684 -8 LINE",
"479 267 LINE",
"579 296 OFFCURVE",
"637 371 OFFCURVE",
"637 471 CURVE SMOOTH",
"637 602 OFFCURVE",
"539 687 OFFCURVE",
"389 687 CURVE SMOOTH",
"82 687 LINE",
"82 -8 LINE"
);
},
{
closed = 1;
nodes = (
"98 671 LINE",
"389 671 LINE SMOOTH",
"530 671 OFFCURVE",
"621 592 OFFCURVE",
"621 471 CURVE SMOOTH",
"621 370 OFFCURVE",
"559 299 OFFCURVE",
"452 277 CURVE",
"652 8 LINE",
"536 8 LINE",
"342 271 LINE",
"191 271 LINE",
"191 8 LINE",
"98 8 LINE"
);
},
{
closed = 1;
nodes = (
"207 569 LINE",
"381 569 LINE SMOOTH",
"461 569 OFFCURVE",
"509 531 OFFCURVE",
"509 469 CURVE SMOOTH",
"509 408 OFFCURVE",
"461 371 OFFCURVE",
"381 371 CURVE SMOOTH",
"207 371 LINE"
);
},
{
closed = 1;
nodes = (
"381 355 LINE SMOOTH",
"469 355 OFFCURVE",
"525 399 OFFCURVE",
"525 469 CURVE SMOOTH",
"525 540 OFFCURVE",
"469 585 OFFCURVE",
"381 585 CURVE SMOOTH",
"191 585 LINE",
"191 355 LINE"
);
},
{
closed = 1;
nodes = (
"381 740 LINE",
"496 927 LINE",
"377 927 LINE",
"321 850 LINE",
"264 927 LINE",
"145 927 LINE",
"260 740 LINE"
);
},
{
closed = 1;
nodes = (
"173 911 LINE",
"256 911 LINE",
"321 822 LINE",
"385 911 LINE",
"468 911 LINE",
"373 756 LINE",
"268 756 LINE"
);
}
);
width = 689;
}
);
note = Rcaron;
rightKerningGroup = R;
unicode = 0158;
},
{
glyphname = S;
lastChange = "2018-03-11 16:48:06 +0000";
layers = (
{
hints = (
{
horizontal = 1;
place = "{-16, 103}";
type = Stem;
},
{
horizontal = 1;
place = "{595, 104}";
type = Stem;
},
{
place = "{74, 112}";
type = Stem;
},
{
place = "{415, 112}";
type = Stem;
}
);
layerId = "8D160AFA-A4A8-46CF-B5C1-48E538516704";
paths = (
{
closed = 1;
nodes = (
"426 -24 OFFCURVE",
"535 59 OFFCURVE",
"535 179 CURVE SMOOTH",
"535 302 OFFCURVE",
"463 351 OFFCURVE",
"326 407 CURVE SMOOTH",
"234 445 OFFCURVE",
"194 462 OFFCURVE",
"194 517 CURVE SMOOTH",
"194 560 OFFCURVE",
"236 586 OFFCURVE",
"309 587 CURVE SMOOTH",
"383 587 OFFCURVE",
"456 557 OFFCURVE",
"496 510 CURVE",
"496 651 LINE",
"442 689 OFFCURVE",
"381 708 OFFCURVE",
"319 707 CURVE SMOOTH",
"171 707 OFFCURVE",
"66 628 OFFCURVE",
"66 517 CURVE SMOOTH",
"66 394 OFFCURVE",
"136 344 OFFCURVE",
"271 288 CURVE SMOOTH",
"363 250 OFFCURVE",
"407 227 OFFCURVE",
"407 180 CURVE SMOOTH",
"407 123 OFFCURVE",
"362 95 OFFCURVE",
"272 95 CURVE SMOOTH",
"189 95 OFFCURVE",
"99 129 OFFCURVE",
"37 183 CURVE",
"37 50 LINE",
"76 15 OFFCURVE",
"156 -24 OFFCURVE",
"272 -24 CURVE SMOOTH"
);
},
{
closed = 1;
nodes = (
"183 -8 OFFCURVE",
"102 16 OFFCURVE",
"53 58 CURVE",
"53 150 LINE",
"115 106 OFFCURVE",
"196 79 OFFCURVE",
"272 79 CURVE SMOOTH",
"371 79 OFFCURVE",
"423 114 OFFCURVE",
"423 180 CURVE SMOOTH",
"423 237 OFFCURVE",
"369 264 OFFCURVE",
"277 302 CURVE SMOOTH",
"144 358 OFFCURVE",
"82 402 OFFCURVE",
"82 517 CURVE SMOOTH",
"82 619 OFFCURVE",
"180 691 OFFCURVE",
"319 691 CURVE SMOOTH",
"375 692 OFFCURVE",
"430 676 OFFCURVE",
"480 643 CURVE",
"480 547 LINE",
"435 582 OFFCURVE",
"372 603 OFFCURVE",
"309 603 CURVE SMOOTH",
"227 602 OFFCURVE",
"178 570 OFFCURVE",
"178 517 CURVE SMOOTH",
"178 452 OFFCURVE",
"228 431 OFFCURVE",
"320 393 CURVE SMOOTH",
"455 337 OFFCURVE",
"519 294 OFFCURVE",
"519 179 CURVE SMOOTH",
"519 69 OFFCURVE",
"418 -8 OFFCURVE",
"272 -8 CURVE SMOOTH"
);
}
);
width = 582;
}
);
leftKerningGroup = S;
note = S;
rightKerningGroup = S;
unicode = 0053;
},
{
glyphname = Sacute;
lastChange = "2018-03-11 16:48:06 +0000";
layers = (
{
hints = (
{
horizontal = 1;
place = "{-16, 103}";
type = Stem;
},
{
horizontal = 1;
place = "{595, 104}";
type = Stem;
},
{
horizontal = 1;
place = "{748, 171}";
type = Stem;
},
{
place = "{74, 112}";
type = Stem;
},
{
place = "{415, 112}";
type = Stem;
}
);
layerId = "8D160AFA-A4A8-46CF-B5C1-48E538516704";
paths = (
{
closed = 1;
nodes = (
"426 -24 OFFCURVE",
"535 59 OFFCURVE",
"535 179 CURVE SMOOTH",
"535 302 OFFCURVE",
"463 351 OFFCURVE",
"326 407 CURVE SMOOTH",
"234 445 OFFCURVE",
"194 462 OFFCURVE",
"194 517 CURVE SMOOTH",
"194 560 OFFCURVE",
"236 586 OFFCURVE",
"309 587 CURVE SMOOTH",
"383 587 OFFCURVE",
"456 557 OFFCURVE",
"496 510 CURVE",
"496 651 LINE",
"442 689 OFFCURVE",
"381 708 OFFCURVE",
"319 707 CURVE SMOOTH",
"171 707 OFFCURVE",
"66 628 OFFCURVE",
"66 517 CURVE SMOOTH",
"66 394 OFFCURVE",
"136 344 OFFCURVE",
"271 288 CURVE SMOOTH",
"363 250 OFFCURVE",
"407 227 OFFCURVE",
"407 180 CURVE SMOOTH",
"407 123 OFFCURVE",
"362 95 OFFCURVE",
"272 95 CURVE SMOOTH",
"189 95 OFFCURVE",
"99 129 OFFCURVE",
"37 183 CURVE",
"37 50 LINE",
"76 15 OFFCURVE",
"156 -24 OFFCURVE",
"272 -24 CURVE SMOOTH"
);
},
{
closed = 1;
nodes = (
"183 -8 OFFCURVE",
"102 16 OFFCURVE",
"53 58 CURVE",
"53 150 LINE",
"115 106 OFFCURVE",
"196 79 OFFCURVE",
"272 79 CURVE SMOOTH",
"371 79 OFFCURVE",
"423 114 OFFCURVE",
"423 180 CURVE SMOOTH",
"423 237 OFFCURVE",
"369 264 OFFCURVE",
"277 302 CURVE SMOOTH",
"144 358 OFFCURVE",
"82 402 OFFCURVE",
"82 517 CURVE SMOOTH",
"82 619 OFFCURVE",
"180 691 OFFCURVE",
"319 691 CURVE SMOOTH",
"375 692 OFFCURVE",
"430 676 OFFCURVE",
"480 643 CURVE",
"480 547 LINE",
"435 582 OFFCURVE",
"372 603 OFFCURVE",
"309 603 CURVE SMOOTH",
"227 602 OFFCURVE",
"178 570 OFFCURVE",
"178 517 CURVE SMOOTH",
"178 452 OFFCURVE",
"228 431 OFFCURVE",
"320 393 CURVE SMOOTH",
"455 337 OFFCURVE",
"519 294 OFFCURVE",
"519 179 CURVE SMOOTH",
"519 69 OFFCURVE",
"418 -8 OFFCURVE",
"272 -8 CURVE SMOOTH"
);
},
{
closed = 1;
nodes = (
"320 740 LINE",
"454 927 LINE",
"300 927 LINE",
"202 740 LINE"
);
},
{
closed = 1;
nodes = (
"310 911 LINE",
"422 911 LINE",
"312 756 LINE",
"228 756 LINE"
);
}
);
width = 582;
}
);
leftKerningGroup = S;
note = Sacute;
rightKerningGroup = S;
unicode = 015A;
},
{
glyphname = Scaron;
lastChange = "2018-03-11 16:48:06 +0000";
layers = (
{
hints = (
{
horizontal = 1;
place = "{-16, 103}";
type = Stem;
},
{
horizontal = 1;
place = "{595, 104}";
type = Stem;
},
{
horizontal = 1;
place = "{748, 171}";
type = Stem;
},
{
place = "{74, 112}";
type = Stem;
},
{
place = "{415, 112}";
type = Stem;
}
);
layerId = "8D160AFA-A4A8-46CF-B5C1-48E538516704";
paths = (
{
closed = 1;
nodes = (
"426 -24 OFFCURVE",
"535 59 OFFCURVE",
"535 179 CURVE SMOOTH",
"535 302 OFFCURVE",
"463 351 OFFCURVE",
"326 407 CURVE SMOOTH",
"234 445 OFFCURVE",
"194 462 OFFCURVE",
"194 517 CURVE SMOOTH",
"194 560 OFFCURVE",
"236 586 OFFCURVE",
"309 587 CURVE SMOOTH",
"383 587 OFFCURVE",
"456 557 OFFCURVE",
"496 510 CURVE",
"496 651 LINE",
"442 689 OFFCURVE",
"381 708 OFFCURVE",
"319 707 CURVE SMOOTH",
"171 707 OFFCURVE",
"66 628 OFFCURVE",
"66 517 CURVE SMOOTH",
"66 394 OFFCURVE",
"136 344 OFFCURVE",
"271 288 CURVE SMOOTH",
"363 250 OFFCURVE",
"407 227 OFFCURVE",
"407 180 CURVE SMOOTH",
"407 123 OFFCURVE",
"362 95 OFFCURVE",
"272 95 CURVE SMOOTH",
"189 95 OFFCURVE",
"99 129 OFFCURVE",
"37 183 CURVE",
"37 50 LINE",
"76 15 OFFCURVE",
"156 -24 OFFCURVE",
"272 -24 CURVE SMOOTH"
);
},
{
closed = 1;
nodes = (
"183 -8 OFFCURVE",
"102 16 OFFCURVE",
"53 58 CURVE",
"53 150 LINE",
"115 106 OFFCURVE",
"196 79 OFFCURVE",
"272 79 CURVE SMOOTH",
"371 79 OFFCURVE",
"423 114 OFFCURVE",
"423 180 CURVE SMOOTH",
"423 237 OFFCURVE",
"369 264 OFFCURVE",
"277 302 CURVE SMOOTH",
"144 358 OFFCURVE",
"82 402 OFFCURVE",
"82 517 CURVE SMOOTH",
"82 619 OFFCURVE",
"180 691 OFFCURVE",
"319 691 CURVE SMOOTH",
"375 692 OFFCURVE",
"430 676 OFFCURVE",
"480 643 CURVE",
"480 547 LINE",
"435 582 OFFCURVE",
"372 603 OFFCURVE",
"309 603 CURVE SMOOTH",
"227 602 OFFCURVE",
"178 570 OFFCURVE",
"178 517 CURVE SMOOTH",
"178 452 OFFCURVE",
"228 431 OFFCURVE",
"320 393 CURVE SMOOTH",
"455 337 OFFCURVE",
"519 294 OFFCURVE",
"519 179 CURVE SMOOTH",
"519 69 OFFCURVE",
"418 -8 OFFCURVE",
"272 -8 CURVE SMOOTH"
);
},
{
closed = 1;
nodes = (
"323 740 LINE",
"438 927 LINE",
"319 927 LINE",
"263 850 LINE",
"206 927 LINE",
"87 927 LINE",
"202 740 LINE"
);
},
{
closed = 1;
nodes = (
"115 911 LINE",
"198 911 LINE",
"263 822 LINE",
"327 911 LINE",
"410 911 LINE",
"315 756 LINE",
"210 756 LINE"
);
}
);
width = 582;
}
);
leftKerningGroup = S;
note = Scaron;
rightKerningGroup = S;
unicode = 0160;
},
{
glyphname = Scedilla;
lastChange = "2018-03-11 16:48:06 +0000";
layers = (
{
hints = (
{
horizontal = 1;
place = "{-202, 58}";
type = Stem;
},
{
horizontal = 1;
place = "{595, 104}";
type = Stem;
},
{
place = "{74, 112}";
type = Stem;
},
{
place = "{264, 81}";
type = Stem;
},
{
place = "{415, 112}";
type = Stem;
},
{
horizontal = 1;
place = "{-14, 101}";
type = Stem;
},
{
horizontal = 1;
place = "{-70, 157}";
type = Stem;
}
);
layerId = "8D160AFA-A4A8-46CF-B5C1-48E538516704";
paths = (
{
closed = 1;
nodes = (
"292 -212 OFFCURVE",
"353 -177 OFFCURVE",
"353 -119 CURVE SMOOTH",
"353 -74 OFFCURVE",
"309 -56 OFFCURVE",
"290 -50 CURVE",
"298 -24 LINE",
"439 -15 OFFCURVE",
"535 67 OFFCURVE",
"535 179 CURVE SMOOTH",
"535 302 OFFCURVE",
"463 351 OFFCURVE",
"326 407 CURVE SMOOTH",
"234 445 OFFCURVE",
"194 462 OFFCURVE",
"194 517 CURVE SMOOTH",
"194 560 OFFCURVE",
"236 586 OFFCURVE",
"309 587 CURVE SMOOTH",
"383 587 OFFCURVE",
"456 557 OFFCURVE",
"496 510 CURVE",
"496 651 LINE",
"442 689 OFFCURVE",
"381 708 OFFCURVE",
"319 707 CURVE SMOOTH",
"171 707 OFFCURVE",
"66 628 OFFCURVE",
"66 517 CURVE SMOOTH",
"66 394 OFFCURVE",
"136 344 OFFCURVE",
"271 288 CURVE SMOOTH",
"363 250 OFFCURVE",
"407 227 OFFCURVE",
"407 180 CURVE SMOOTH",
"407 123 OFFCURVE",
"362 95 OFFCURVE",
"272 95 CURVE SMOOTH",
"189 95 OFFCURVE",
"99 129 OFFCURVE",
"37 183 CURVE",
"37 50 LINE",
"77 14 OFFCURVE",
"140 -12 OFFCURVE",
"212 -21 CURVE",
"199 -68 LINE",
"206 -78 LINE",
"206 -78 OFFCURVE",
"256 -81 OFFCURVE",
"256 -108 CURVE SMOOTH",
"256 -125 OFFCURVE",
"230 -138 OFFCURVE",
"196 -136 CURVE",
"196 -210 LINE"
);
},
{
closed = 1;
nodes = (
"212 -152 LINE",
"247 -149 OFFCURVE",
"272 -132 OFFCURVE",
"272 -108 CURVE SMOOTH",
"272 -77 OFFCURVE",
"235 -66 OFFCURVE",
"217 -63 CURVE",
"232 -7 LINE",
"146 0 OFFCURVE",
"87 29 OFFCURVE",
"53 58 CURVE",
"53 150 LINE",
"115 106 OFFCURVE",
"196 79 OFFCURVE",
"272 79 CURVE SMOOTH",
"371 79 OFFCURVE",
"423 114 OFFCURVE",
"423 180 CURVE SMOOTH",
"423 237 OFFCURVE",
"369 264 OFFCURVE",
"277 302 CURVE SMOOTH",
"144 358 OFFCURVE",
"82 402 OFFCURVE",
"82 517 CURVE SMOOTH",
"82 619 OFFCURVE",
"180 691 OFFCURVE",
"319 691 CURVE SMOOTH",
"375 692 OFFCURVE",
"430 676 OFFCURVE",
"480 643 CURVE",
"480 547 LINE",
"435 582 OFFCURVE",
"372 603 OFFCURVE",
"309 603 CURVE SMOOTH",
"227 602 OFFCURVE",
"178 570 OFFCURVE",
"178 517 CURVE SMOOTH",
"178 452 OFFCURVE",
"228 431 OFFCURVE",
"320 393 CURVE SMOOTH",
"455 337 OFFCURVE",
"519 294 OFFCURVE",
"519 179 CURVE SMOOTH",
"519 73 OFFCURVE",
"425 -3 OFFCURVE",
"286 -8 CURVE",
"272 -54 LINE",
"278 -64 LINE",
"278 -64 OFFCURVE",
"337 -75 OFFCURVE",
"337 -119 CURVE SMOOTH",
"337 -164 OFFCURVE",
"289 -192 OFFCURVE",
"212 -194 CURVE"
);
}
);
width = 582;
}
);
leftKerningGroup = S;
note = Scedilla;
rightKerningGroup = S;
unicode = 015E;
},
{
glyphname = T;
lastChange = "2019-10-31 17:03:25 +0000";
layers = (
{
hints = (
{
horizontal = 1;
place = "{577, 102}";
type = Stem;
},
{
place = "{278, 108}";
type = Stem;
}
);
layerId = "8D160AFA-A4A8-46CF-B5C1-48E538516704";
paths = (
{
closed = 1;
nodes = (
"394 -8 LINE",
"394 569 LINE",
"632 569 LINE",
"632 687 LINE",
"32 687 LINE",
"32 569 LINE",
"270 569 LINE",
"270 -8 LINE"
);
},
{
closed = 1;
nodes = (
"286 585 LINE",
"48 585 LINE",
"48 671 LINE",
"616 671 LINE",
"616 585 LINE",
"378 585 LINE",
"378 8 LINE",
"286 8 LINE"
);
}
);
width = 664;
}
);
leftKerningGroup = T;
note = T;
rightKerningGroup = T;
unicode = 0054;
},
{
glyphname = Tbar;
lastChange = "2018-03-11 16:48:06 +0000";
layers = (
{
hints = (
{
horizontal = 1;
place = "{377, 90}";
type = Stem;
},
{
horizontal = 1;
place = "{577, 102}";
type = Stem;
},
{
place = "{278, 108}";
type = Stem;
}
);
layerId = "8D160AFA-A4A8-46CF-B5C1-48E538516704";
paths = (
{
closed = 1;
nodes = (
"394 -8 LINE",
"394 369 LINE",
"513 369 LINE",
"513 475 LINE",
"394 475 LINE",
"394 569 LINE",
"632 569 LINE",
"632 687 LINE",
"32 687 LINE",
"32 569 LINE",
"270 569 LINE",
"270 475 LINE",
"150 475 LINE",
"150 369 LINE",
"270 369 LINE",
"270 -8 LINE"
);
},
{
closed = 1;
nodes = (
"286 385 LINE",
"166 385 LINE",
"166 459 LINE",
"286 459 LINE",
"286 585 LINE",
"48 585 LINE",
"48 671 LINE",
"616 671 LINE",
"616 585 LINE",
"378 585 LINE",
"378 459 LINE",
"497 459 LINE",
"497 385 LINE",
"378 385 LINE",
"378 8 LINE",
"286 8 LINE"
);
}
);
width = 664;
}
);
leftKerningGroup = T;
note = Tbar;
rightKerningGroup = T;
unicode = 0166;
},
{
glyphname = Tcaron;
lastChange = "2018-03-11 16:48:06 +0000";
layers = (
{
hints = (
{
horizontal = 1;
place = "{577, 102}";
type = Stem;
},
{
horizontal = 1;
place = "{748, 171}";
type = Stem;
},
{
place = "{278, 108}";
type = Stem;
}
);
layerId = "8D160AFA-A4A8-46CF-B5C1-48E538516704";
paths = (
{
closed = 1;
nodes = (
"394 -8 LINE",
"394 569 LINE",
"632 569 LINE",
"632 687 LINE",
"32 687 LINE",
"32 569 LINE",
"270 569 LINE",
"270 -8 LINE"
);
},
{
closed = 1;
nodes = (
"286 585 LINE",
"48 585 LINE",
"48 671 LINE",
"616 671 LINE",
"616 585 LINE",
"378 585 LINE",
"378 8 LINE",
"286 8 LINE"
);
},
{
closed = 1;
nodes = (
"392 740 LINE",
"507 927 LINE",
"388 927 LINE",
"332 850 LINE",
"275 927 LINE",
"156 927 LINE",
"271 740 LINE"
);
},
{
closed = 1;
nodes = (
"184 911 LINE",
"267 911 LINE",
"332 822 LINE",
"396 911 LINE",
"479 911 LINE",
"384 756 LINE",
"279 756 LINE"
);
}
);
width = 664;
}
);
leftKerningGroup = T;
note = Tcaron;
rightKerningGroup = T;
unicode = 0164;
},
{
glyphname = U;
lastChange = "2018-03-11 16:48:06 +0000";
layers = (
{
hints = (
{
horizontal = 1;
place = "{-15, 105}";
type = Stem;
},
{
place = "{75, 109}";
type = Stem;
},
{
place = "{522, 109}";
type = Stem;
}
);
layerId = "8D160AFA-A4A8-46CF-B5C1-48E538516704";
paths = (
{
closed = 1;
nodes = (
"537 -23 OFFCURVE",
"639 78 OFFCURVE",
"639 259 CURVE SMOOTH",
"639 687 LINE",
"514 687 LINE",
"514 261 LINE SMOOTH",
"514 150 OFFCURVE",
"463 98 OFFCURVE",
"353 98 CURVE SMOOTH",
"251 98 OFFCURVE",
"192 158 OFFCURVE",
"192 261 CURVE SMOOTH",
"192 687 LINE",
"67 687 LINE",
"67 259 LINE SMOOTH",
"67 78 OFFCURVE",
"169 -23 OFFCURVE",
"353 -23 CURVE SMOOTH"
);
},
{
closed = 1;
nodes = (
"178 -7 OFFCURVE",
"83 87 OFFCURVE",
"83 259 CURVE SMOOTH",
"83 671 LINE",
"176 671 LINE",
"176 261 LINE SMOOTH",
"176 149 OFFCURVE",
"243 82 OFFCURVE",
"353 82 CURVE SMOOTH",
"472 82 OFFCURVE",
"530 141 OFFCURVE",
"530 261 CURVE SMOOTH",
"530 671 LINE",
"623 671 LINE",
"623 259 LINE SMOOTH",
"623 87 OFFCURVE",
"528 -7 OFFCURVE",
"353 -7 CURVE SMOOTH"
);
}
);
width = 706;
}
);
leftKerningGroup = U;
note = U;
rightKerningGroup = U;
unicode = 0055;
},
{
glyphname = Uacute;
lastChange = "2018-03-11 16:48:06 +0000";
layers = (
{
hints = (
{
horizontal = 1;
place = "{-15, 105}";
type = Stem;
},
{
horizontal = 1;
place = "{748, 171}";
type = Stem;
},
{
place = "{75, 109}";
type = Stem;
},
{
place = "{522, 109}";
type = Stem;
}
);
layerId = "8D160AFA-A4A8-46CF-B5C1-48E538516704";
paths = (
{
closed = 1;
nodes = (
"537 -23 OFFCURVE",
"639 78 OFFCURVE",
"639 259 CURVE SMOOTH",
"639 687 LINE",
"514 687 LINE",
"514 261 LINE SMOOTH",
"514 150 OFFCURVE",
"463 98 OFFCURVE",
"353 98 CURVE SMOOTH",
"251 98 OFFCURVE",
"192 158 OFFCURVE",
"192 261 CURVE SMOOTH",
"192 687 LINE",
"67 687 LINE",
"67 259 LINE SMOOTH",
"67 78 OFFCURVE",
"169 -23 OFFCURVE",
"353 -23 CURVE SMOOTH"
);
},
{
closed = 1;
nodes = (
"178 -7 OFFCURVE",
"83 87 OFFCURVE",
"83 259 CURVE SMOOTH",
"83 671 LINE",
"176 671 LINE",
"176 261 LINE SMOOTH",
"176 149 OFFCURVE",
"243 82 OFFCURVE",
"353 82 CURVE SMOOTH",
"472 82 OFFCURVE",
"530 141 OFFCURVE",
"530 261 CURVE SMOOTH",
"530 671 LINE",
"623 671 LINE",
"623 259 LINE SMOOTH",
"623 87 OFFCURVE",
"528 -7 OFFCURVE",
"353 -7 CURVE SMOOTH"
);
},
{
closed = 1;
nodes = (
"410 740 LINE",
"544 927 LINE",
"390 927 LINE",
"292 740 LINE"
);
},
{
closed = 1;
nodes = (
"400 911 LINE",
"512 911 LINE",
"402 756 LINE",
"318 756 LINE"
);
}
);
width = 706;
}
);
leftKerningGroup = U;
note = Uacute;
rightKerningGroup = U;
unicode = 00DA;
},
{
glyphname = Ucircumflex;
lastChange = "2018-03-11 16:48:06 +0000";
layers = (
{
hints = (
{
horizontal = 1;
place = "{-15, 105}";
type = Stem;
},
{
horizontal = 1;
place = "{748, 171}";
type = Stem;
},
{
place = "{75, 109}";
type = Stem;
},
{
place = "{522, 109}";
type = Stem;
}
);
layerId = "8D160AFA-A4A8-46CF-B5C1-48E538516704";
paths = (
{
closed = 1;
nodes = (
"537 -23 OFFCURVE",
"639 78 OFFCURVE",
"639 259 CURVE SMOOTH",
"639 687 LINE",
"514 687 LINE",
"514 261 LINE SMOOTH",
"514 150 OFFCURVE",
"463 98 OFFCURVE",
"353 98 CURVE SMOOTH",
"251 98 OFFCURVE",
"192 158 OFFCURVE",
"192 261 CURVE SMOOTH",
"192 687 LINE",
"67 687 LINE",
"67 259 LINE SMOOTH",
"67 78 OFFCURVE",
"169 -23 OFFCURVE",
"353 -23 CURVE SMOOTH"
);
},
{
closed = 1;
nodes = (
"178 -7 OFFCURVE",
"83 87 OFFCURVE",
"83 259 CURVE SMOOTH",
"83 671 LINE",
"176 671 LINE",
"176 261 LINE SMOOTH",
"176 149 OFFCURVE",
"243 82 OFFCURVE",
"353 82 CURVE SMOOTH",
"472 82 OFFCURVE",
"530 141 OFFCURVE",
"530 261 CURVE SMOOTH",
"530 671 LINE",
"623 671 LINE",
"623 259 LINE SMOOTH",
"623 87 OFFCURVE",
"528 -7 OFFCURVE",
"353 -7 CURVE SMOOTH"
);
},
{
closed = 1;
nodes = (
"296 740 LINE",
"353 817 LINE",
"409 740 LINE",
"528 740 LINE",
"413 927 LINE",
"292 927 LINE",
"177 740 LINE"
);
},
{
closed = 1;
nodes = (
"300 911 LINE",
"405 911 LINE",
"500 756 LINE",
"417 756 LINE",
"353 845 LINE",
"288 756 LINE",
"205 756 LINE"
);
}
);
width = 706;
}
);
leftKerningGroup = U;
note = Ucircumflex;
rightKerningGroup = U;
unicode = 00DB;
},
{
glyphname = Udieresis;
lastChange = "2018-03-11 16:48:06 +0000";
layers = (
{
hints = (
{
horizontal = 1;
place = "{-15, 105}";
type = Stem;
},
{
horizontal = 1;
place = "{760, 111}";
type = Stem;
},
{
place = "{75, 109}";
type = Stem;
},
{
place = "{201, 111}";
type = Stem;
},
{
place = "{393, 111}";
type = Stem;
},
{
place = "{522, 109}";
type = Stem;
}
);
layerId = "8D160AFA-A4A8-46CF-B5C1-48E538516704";
paths = (
{
closed = 1;
nodes = (
"537 -23 OFFCURVE",
"639 78 OFFCURVE",
"639 259 CURVE SMOOTH",
"639 687 LINE",
"514 687 LINE",
"514 261 LINE SMOOTH",
"514 150 OFFCURVE",
"463 98 OFFCURVE",
"353 98 CURVE SMOOTH",
"251 98 OFFCURVE",
"192 158 OFFCURVE",
"192 261 CURVE SMOOTH",
"192 687 LINE",
"67 687 LINE",
"67 259 LINE SMOOTH",
"67 78 OFFCURVE",
"169 -23 OFFCURVE",
"353 -23 CURVE SMOOTH"
);
},
{
closed = 1;
nodes = (
"178 -7 OFFCURVE",
"83 87 OFFCURVE",
"83 259 CURVE SMOOTH",
"83 671 LINE",
"176 671 LINE",
"176 261 LINE SMOOTH",
"176 149 OFFCURVE",
"243 82 OFFCURVE",
"353 82 CURVE SMOOTH",
"472 82 OFFCURVE",
"530 141 OFFCURVE",
"530 261 CURVE SMOOTH",
"530 671 LINE",
"623 671 LINE",
"623 259 LINE SMOOTH",
"623 87 OFFCURVE",
"528 -7 OFFCURVE",
"353 -7 CURVE SMOOTH"
);
},
{
closed = 1;
nodes = (
"291 752 OFFCURVE",
"320 781 OFFCURVE",
"320 815 CURVE SMOOTH",
"320 850 OFFCURVE",
"292 879 OFFCURVE",
"257 879 CURVE SMOOTH",
"222 879 OFFCURVE",
"193 850 OFFCURVE",
"193 815 CURVE SMOOTH",
"193 780 OFFCURVE",
"222 752 OFFCURVE",
"257 752 CURVE SMOOTH"
);
},
{
closed = 1;
nodes = (
"231 768 OFFCURVE",
"209 789 OFFCURVE",
"209 815 CURVE SMOOTH",
"209 842 OFFCURVE",
"230 863 OFFCURVE",
"257 863 CURVE SMOOTH",
"283 863 OFFCURVE",
"304 841 OFFCURVE",
"304 815 CURVE SMOOTH",
"304 789 OFFCURVE",
"283 768 OFFCURVE",
"257 768 CURVE SMOOTH"
);
},
{
closed = 1;
nodes = (
"483 752 OFFCURVE",
"512 781 OFFCURVE",
"512 815 CURVE SMOOTH",
"512 850 OFFCURVE",
"484 879 OFFCURVE",
"449 879 CURVE SMOOTH",
"414 879 OFFCURVE",
"385 850 OFFCURVE",
"385 815 CURVE SMOOTH",
"385 780 OFFCURVE",
"414 752 OFFCURVE",
"449 752 CURVE SMOOTH"
);
},
{
closed = 1;
nodes = (
"423 768 OFFCURVE",
"401 789 OFFCURVE",
"401 815 CURVE SMOOTH",
"401 842 OFFCURVE",
"422 863 OFFCURVE",
"449 863 CURVE SMOOTH",
"475 863 OFFCURVE",
"496 841 OFFCURVE",
"496 815 CURVE SMOOTH",
"496 789 OFFCURVE",
"475 768 OFFCURVE",
"449 768 CURVE SMOOTH"
);
}
);
width = 706;
}
);
leftKerningGroup = U;
note = Udieresis;
rightKerningGroup = U;
unicode = 00DC;
},
{
glyphname = Ugrave;
lastChange = "2018-03-11 16:48:06 +0000";
layers = (
{
hints = (
{
horizontal = 1;
place = "{-15, 105}";
type = Stem;
},
{
horizontal = 1;
place = "{748, 171}";
type = Stem;
},
{
place = "{75, 109}";
type = Stem;
},
{
place = "{522, 109}";
type = Stem;
}
);
layerId = "8D160AFA-A4A8-46CF-B5C1-48E538516704";
paths = (
{
closed = 1;
nodes = (
"537 -23 OFFCURVE",
"639 78 OFFCURVE",
"639 259 CURVE SMOOTH",
"639 687 LINE",
"514 687 LINE",
"514 261 LINE SMOOTH",
"514 150 OFFCURVE",
"463 98 OFFCURVE",
"353 98 CURVE SMOOTH",
"251 98 OFFCURVE",
"192 158 OFFCURVE",
"192 261 CURVE SMOOTH",
"192 687 LINE",
"67 687 LINE",
"67 259 LINE SMOOTH",
"67 78 OFFCURVE",
"169 -23 OFFCURVE",
"353 -23 CURVE SMOOTH"
);
},
{
closed = 1;
nodes = (
"178 -7 OFFCURVE",
"83 87 OFFCURVE",
"83 259 CURVE SMOOTH",
"83 671 LINE",
"176 671 LINE",
"176 261 LINE SMOOTH",
"176 149 OFFCURVE",
"243 82 OFFCURVE",
"353 82 CURVE SMOOTH",
"472 82 OFFCURVE",
"530 141 OFFCURVE",
"530 261 CURVE SMOOTH",
"530 671 LINE",
"623 671 LINE",
"623 259 LINE SMOOTH",
"623 87 OFFCURVE",
"528 -7 OFFCURVE",
"353 -7 CURVE SMOOTH"
);
},
{
closed = 1;
nodes = (
"415 740 LINE",
"317 927 LINE",
"163 927 LINE",
"297 740 LINE"
);
},
{
closed = 1;
nodes = (
"195 911 LINE",
"307 911 LINE",
"389 756 LINE",
"305 756 LINE"
);
}
);
width = 706;
}
);
leftKerningGroup = U;
note = Ugrave;
rightKerningGroup = U;
unicode = 00D9;
},
{
glyphname = Uhungarumlaut;
lastChange = "2018-03-11 16:48:06 +0000";
layers = (
{
hints = (
{
horizontal = 1;
place = "{-15, 105}";
type = Stem;
},
{
horizontal = 1;
place = "{748, 171}";
type = Stem;
},
{
place = "{75, 109}";
type = Stem;
},
{
place = "{522, 109}";
type = Stem;
}
);
layerId = "8D160AFA-A4A8-46CF-B5C1-48E538516704";
paths = (
{
closed = 1;
nodes = (
"537 -23 OFFCURVE",
"639 78 OFFCURVE",
"639 259 CURVE SMOOTH",
"639 687 LINE",
"514 687 LINE",
"514 261 LINE SMOOTH",
"514 150 OFFCURVE",
"463 98 OFFCURVE",
"353 98 CURVE SMOOTH",
"251 98 OFFCURVE",
"192 158 OFFCURVE",
"192 261 CURVE SMOOTH",
"192 687 LINE",
"67 687 LINE",
"67 259 LINE SMOOTH",
"67 78 OFFCURVE",
"169 -23 OFFCURVE",
"353 -23 CURVE SMOOTH"
);
},
{
closed = 1;
nodes = (
"178 -7 OFFCURVE",
"83 87 OFFCURVE",
"83 259 CURVE SMOOTH",
"83 671 LINE",
"176 671 LINE",
"176 261 LINE SMOOTH",
"176 149 OFFCURVE",
"243 82 OFFCURVE",
"353 82 CURVE SMOOTH",
"472 82 OFFCURVE",
"530 141 OFFCURVE",
"530 261 CURVE SMOOTH",
"530 671 LINE",
"623 671 LINE",
"623 259 LINE SMOOTH",
"623 87 OFFCURVE",
"528 -7 OFFCURVE",
"353 -7 CURVE SMOOTH"
);
},
{
closed = 1;
nodes = (
"321 740 LINE",
"455 927 LINE",
"301 927 LINE",
"203 740 LINE"
);
},
{
closed = 1;
nodes = (
"311 911 LINE",
"423 911 LINE",
"313 756 LINE",
"229 756 LINE"
);
},
{
closed = 1;
nodes = (
"501 740 LINE",
"645 927 LINE",
"491 927 LINE",
"382 740 LINE"
);
},
{
closed = 1;
nodes = (
"501 911 LINE",
"613 911 LINE",
"493 756 LINE",
"410 756 LINE"
);
}
);
width = 706;
}
);
leftKerningGroup = U;
note = Uhungarumlaut;
rightKerningGroup = U;
unicode = 0170;
},
{
glyphname = Umacron;
lastChange = "2018-03-11 16:48:06 +0000";
layers = (
{
hints = (
{
horizontal = 1;
place = "{-15, 105}";
type = Stem;
},
{
horizontal = 1;
place = "{763, 90}";
type = Stem;
},
{
place = "{75, 109}";
type = Stem;
},
{
place = "{214, 277}";
type = Stem;
},
{
place = "{522, 109}";
type = Stem;
}
);
layerId = "8D160AFA-A4A8-46CF-B5C1-48E538516704";
paths = (
{
closed = 1;
nodes = (
"537 -23 OFFCURVE",
"639 78 OFFCURVE",
"639 259 CURVE SMOOTH",
"639 687 LINE",
"514 687 LINE",
"514 261 LINE SMOOTH",
"514 150 OFFCURVE",
"463 98 OFFCURVE",
"353 98 CURVE SMOOTH",
"251 98 OFFCURVE",
"192 158 OFFCURVE",
"192 261 CURVE SMOOTH",
"192 687 LINE",
"67 687 LINE",
"67 259 LINE SMOOTH",
"67 78 OFFCURVE",
"169 -23 OFFCURVE",
"353 -23 CURVE SMOOTH"
);
},
{
closed = 1;
nodes = (
"178 -7 OFFCURVE",
"83 87 OFFCURVE",
"83 259 CURVE SMOOTH",
"83 671 LINE",
"176 671 LINE",
"176 261 LINE SMOOTH",
"176 149 OFFCURVE",
"243 82 OFFCURVE",
"353 82 CURVE SMOOTH",
"472 82 OFFCURVE",
"530 141 OFFCURVE",
"530 261 CURVE SMOOTH",
"530 671 LINE",
"623 671 LINE",
"623 259 LINE SMOOTH",
"623 87 OFFCURVE",
"528 -7 OFFCURVE",
"353 -7 CURVE SMOOTH"
);
},
{
closed = 1;
nodes = (
"499 755 LINE",
"499 861 LINE",
"206 861 LINE",
"206 755 LINE"
);
},
{
closed = 1;
nodes = (
"222 845 LINE",
"483 845 LINE",
"483 771 LINE",
"222 771 LINE"
);
}
);
width = 706;
}
);
leftKerningGroup = U;
note = Umacron;
rightKerningGroup = U;
unicode = 016A;
},
{
glyphname = Uogonek;
lastChange = "2018-03-11 16:48:06 +0000";
layers = (
{
hints = (
{
horizontal = 1;
place = "{-216, 88}";
type = Stem;
},
{
place = "{75, 109}";
type = Stem;
},
{
place = "{522, 109}";
type = Stem;
},
{
horizontal = 1;
place = "{-13, 103}";
type = Stem;
},
{
place = "{278, 148}";
type = Stem;
}
);
layerId = "8D160AFA-A4A8-46CF-B5C1-48E538516704";
paths = (
{
closed = 1;
nodes = (
"434 -120 LINE",
"388 -121 OFFCURVE",
"374 -113 OFFCURVE",
"374 -85 CURVE SMOOTH",
"374 -66 OFFCURVE",
"388 -40 OFFCURVE",
"401 -21 CURVE",
"556 -4 OFFCURVE",
"639 95 OFFCURVE",
"639 259 CURVE SMOOTH",
"639 687 LINE",
"514 687 LINE",
"514 261 LINE SMOOTH",
"514 150 OFFCURVE",
"463 98 OFFCURVE",
"353 98 CURVE SMOOTH",
"251 98 OFFCURVE",
"192 158 OFFCURVE",
"192 261 CURVE SMOOTH",
"192 687 LINE",
"67 687 LINE",
"67 259 LINE SMOOTH",
"67 97 OFFCURVE",
"148 -1 OFFCURVE",
"298 -19 CURVE",
"280 -44 OFFCURVE",
"270 -73 OFFCURVE",
"270 -100 CURVE SMOOTH",
"270 -202 OFFCURVE",
"387 -227 OFFCURVE",
"434 -224 CURVE"
);
},
{
closed = 1;
nodes = (
"368 -205 OFFCURVE",
"286 -179 OFFCURVE",
"286 -100 CURVE SMOOTH",
"286 -56 OFFCURVE",
"314 -23 OFFCURVE",
"332 -6 CURVE",
"170 1 OFFCURVE",
"83 93 OFFCURVE",
"83 259 CURVE SMOOTH",
"83 671 LINE",
"176 671 LINE",
"176 261 LINE SMOOTH",
"176 149 OFFCURVE",
"243 82 OFFCURVE",
"353 82 CURVE SMOOTH",
"472 82 OFFCURVE",
"530 141 OFFCURVE",
"530 261 CURVE SMOOTH",
"530 671 LINE",
"623 671 LINE",
"623 259 LINE SMOOTH",
"623 100 OFFCURVE",
"543 9 OFFCURVE",
"393 -5 CURVE",
"371 -36 OFFCURVE",
"358 -65 OFFCURVE",
"358 -85 CURVE SMOOTH",
"358 -119 OFFCURVE",
"376 -134 OFFCURVE",
"418 -136 CURVE",
"418 -208 LINE"
);
}
);
width = 706;
}
);
leftKerningGroup = U;
note = Uogonek;
rightKerningGroup = U;
unicode = 0172;
},
{
glyphname = Uring;
lastChange = "2018-03-11 16:48:06 +0000";
layers = (
{
hints = (
{
horizontal = 1;
place = "{-15, 105}";
type = Stem;
},
{
horizontal = 1;
place = "{743, 72}";
type = Stem;
},
{
horizontal = 1;
place = "{877, 72}";
type = Stem;
},
{
place = "{75, 109}";
type = Stem;
},
{
place = "{250, 72}";
type = Stem;
},
{
place = "{383, 72}";
type = Stem;
},
{
place = "{522, 109}";
type = Stem;
}
);
layerId = "8D160AFA-A4A8-46CF-B5C1-48E538516704";
paths = (
{
closed = 1;
nodes = (
"537 -23 OFFCURVE",
"639 78 OFFCURVE",
"639 259 CURVE SMOOTH",
"639 687 LINE",
"514 687 LINE",
"514 261 LINE SMOOTH",
"514 150 OFFCURVE",
"463 98 OFFCURVE",
"353 98 CURVE SMOOTH",
"251 98 OFFCURVE",
"192 158 OFFCURVE",
"192 261 CURVE SMOOTH",
"192 687 LINE",
"67 687 LINE",
"67 259 LINE SMOOTH",
"67 78 OFFCURVE",
"169 -23 OFFCURVE",
"353 -23 CURVE SMOOTH"
);
},
{
closed = 1;
nodes = (
"178 -7 OFFCURVE",
"83 87 OFFCURVE",
"83 259 CURVE SMOOTH",
"83 671 LINE",
"176 671 LINE",
"176 261 LINE SMOOTH",
"176 149 OFFCURVE",
"243 82 OFFCURVE",
"353 82 CURVE SMOOTH",
"472 82 OFFCURVE",
"530 141 OFFCURVE",
"530 261 CURVE SMOOTH",
"530 671 LINE",
"623 671 LINE",
"623 259 LINE SMOOTH",
"623 87 OFFCURVE",
"528 -7 OFFCURVE",
"353 -7 CURVE SMOOTH"
);
},
{
closed = 1;
nodes = (
"414 735 OFFCURVE",
"463 784 OFFCURVE",
"463 845 CURVE SMOOTH",
"463 907 OFFCURVE",
"414 957 OFFCURVE",
"352 957 CURVE SMOOTH",
"290 957 OFFCURVE",
"242 908 OFFCURVE",
"242 845 CURVE SMOOTH",
"242 783 OFFCURVE",
"290 735 OFFCURVE",
"352 735 CURVE SMOOTH"
);
},
{
closed = 1;
nodes = (
"299 751 OFFCURVE",
"258 792 OFFCURVE",
"258 845 CURVE SMOOTH",
"258 899 OFFCURVE",
"299 941 OFFCURVE",
"352 941 CURVE SMOOTH",
"405 941 OFFCURVE",
"447 898 OFFCURVE",
"447 845 CURVE SMOOTH",
"447 793 OFFCURVE",
"405 751 OFFCURVE",
"352 751 CURVE SMOOTH"
);
},
{
closed = 1;
nodes = (
"339 823 OFFCURVE",
"330 832 OFFCURVE",
"330 845 CURVE SMOOTH",
"330 859 OFFCURVE",
"339 869 OFFCURVE",
"352 869 CURVE SMOOTH",
"365 869 OFFCURVE",
"375 858 OFFCURVE",
"375 845 CURVE SMOOTH",
"375 833 OFFCURVE",
"365 823 OFFCURVE",
"352 823 CURVE SMOOTH"
);
},
{
closed = 1;
nodes = (
"374 807 OFFCURVE",
"391 824 OFFCURVE",
"391 845 CURVE SMOOTH",
"391 867 OFFCURVE",
"374 885 OFFCURVE",
"352 885 CURVE SMOOTH",
"331 885 OFFCURVE",
"314 867 OFFCURVE",
"314 845 CURVE SMOOTH",
"314 824 OFFCURVE",
"331 807 OFFCURVE",
"352 807 CURVE SMOOTH"
);
}
);
width = 706;
}
);
leftKerningGroup = U;
note = Uring;
rightKerningGroup = U;
unicode = 016E;
},
{
glyphname = V;
lastChange = "2019-10-31 17:03:47 +0000";
layers = (
{
hints = (
{
place = "{31, 640}";
type = Stem;
}
);
layerId = "8D160AFA-A4A8-46CF-B5C1-48E538516704";
paths = (
{
closed = 1;
nodes = (
"418 -8 LINE",
"683 687 LINE",
"541 687 LINE",
"348 170 LINE",
"161 687 LINE",
"19 687 LINE",
"284 -8 LINE"
);
},
{
closed = 1;
nodes = (
"43 671 LINE",
"149 671 LINE",
"348 124 LINE",
"553 671 LINE",
"659 671 LINE",
"406 8 LINE",
"296 8 LINE"
);
}
);
width = 702;
}
);
leftKerningGroup = V;
note = V;
rightKerningGroup = V;
unicode = 0056;
},
{
glyphname = W;
lastChange = "2018-03-11 16:48:06 +0000";
layers = (
{
hints = (
{
place = "{31, 972}";
type = Stem;
},
{
horizontal = 1;
place = "{0, 137}";
type = Stem;
}
);
layerId = "8D160AFA-A4A8-46CF-B5C1-48E538516704";
paths = (
{
closed = 1;
nodes = (
"375 -8 LINE",
"517 495 LINE",
"660 -8 LINE",
"798 -8 LINE",
"1014 687 LINE",
"873 687 LINE",
"729 167 LINE",
"584 687 LINE",
"450 687 LINE",
"306 167 LINE",
"161 687 LINE",
"20 687 LINE",
"236 -8 LINE"
);
},
{
closed = 1;
nodes = (
"42 671 LINE",
"149 671 LINE",
"306 107 LINE",
"462 671 LINE",
"572 671 LINE",
"729 107 LINE",
"885 671 LINE",
"992 671 LINE",
"786 8 LINE",
"672 8 LINE",
"517 553 LINE",
"363 8 LINE",
"248 8 LINE"
);
}
);
width = 1034;
}
);
leftKerningGroup = V;
note = W;
rightKerningGroup = V;
unicode = 0057;
},
{
glyphname = Wacute;
lastChange = "2018-03-11 16:48:06 +0000";
layers = (
{
hints = (
{
horizontal = 1;
place = "{748, 171}";
type = Stem;
},
{
place = "{31, 972}";
type = Stem;
},
{
horizontal = 1;
place = "{0, 137}";
type = Stem;
}
);
layerId = "8D160AFA-A4A8-46CF-B5C1-48E538516704";
paths = (
{
closed = 1;
nodes = (
"375 -8 LINE",
"517 495 LINE",
"660 -8 LINE",
"798 -8 LINE",
"1014 687 LINE",
"873 687 LINE",
"729 167 LINE",
"584 687 LINE",
"450 687 LINE",
"306 167 LINE",
"161 687 LINE",
"20 687 LINE",
"236 -8 LINE"
);
},
{
closed = 1;
nodes = (
"42 671 LINE",
"149 671 LINE",
"306 107 LINE",
"462 671 LINE",
"572 671 LINE",
"729 107 LINE",
"885 671 LINE",
"992 671 LINE",
"786 8 LINE",
"672 8 LINE",
"517 553 LINE",
"363 8 LINE",
"248 8 LINE"
);
},
{
closed = 1;
nodes = (
"574 740 LINE",
"708 927 LINE",
"554 927 LINE",
"456 740 LINE"
);
},
{
closed = 1;
nodes = (
"564 911 LINE",
"676 911 LINE",
"566 756 LINE",
"482 756 LINE"
);
}
);
width = 1034;
}
);
leftKerningGroup = V;
note = Wacute;
rightKerningGroup = V;
unicode = 1E82;
},
{
glyphname = Wcircumflex;
lastChange = "2018-03-11 16:48:06 +0000";
layers = (
{
hints = (
{
horizontal = 1;
place = "{748, 171}";
type = Stem;
},
{
place = "{31, 972}";
type = Stem;
},
{
horizontal = 1;
place = "{0, 137}";
type = Stem;
}
);
layerId = "8D160AFA-A4A8-46CF-B5C1-48E538516704";
paths = (
{
closed = 1;
nodes = (
"375 -8 LINE",
"517 495 LINE",
"660 -8 LINE",
"798 -8 LINE",
"1014 687 LINE",
"873 687 LINE",
"729 167 LINE",
"584 687 LINE",
"450 687 LINE",
"306 167 LINE",
"161 687 LINE",
"20 687 LINE",
"236 -8 LINE"
);
},
{
closed = 1;
nodes = (
"42 671 LINE",
"149 671 LINE",
"306 107 LINE",
"462 671 LINE",
"572 671 LINE",
"729 107 LINE",
"885 671 LINE",
"992 671 LINE",
"786 8 LINE",
"672 8 LINE",
"517 553 LINE",
"363 8 LINE",
"248 8 LINE"
);
},
{
closed = 1;
nodes = (
"460 740 LINE",
"517 817 LINE",
"573 740 LINE",
"692 740 LINE",
"577 927 LINE",
"456 927 LINE",
"341 740 LINE"
);
},
{
closed = 1;
nodes = (
"464 911 LINE",
"569 911 LINE",
"664 756 LINE",
"581 756 LINE",
"517 845 LINE",
"452 756 LINE",
"369 756 LINE"
);
}
);
width = 1034;
}
);
leftKerningGroup = V;
note = Wcircumflex;
rightKerningGroup = V;
unicode = 0174;
},
{
glyphname = Wdieresis;
lastChange = "2018-03-11 16:48:06 +0000";
layers = (
{
hints = (
{
horizontal = 1;
place = "{760, 111}";
type = Stem;
},
{
place = "{365, 111}";
type = Stem;
},
{
place = "{557, 111}";
type = Stem;
},
{
horizontal = 1;
place = "{0, 137}";
type = Stem;
}
);
layerId = "8D160AFA-A4A8-46CF-B5C1-48E538516704";
paths = (
{
closed = 1;
nodes = (
"375 -8 LINE",
"517 495 LINE",
"660 -8 LINE",
"798 -8 LINE",
"1014 687 LINE",
"873 687 LINE",
"729 167 LINE",
"584 687 LINE",
"450 687 LINE",
"306 167 LINE",
"161 687 LINE",
"20 687 LINE",
"236 -8 LINE"
);
},
{
closed = 1;
nodes = (
"42 671 LINE",
"149 671 LINE",
"306 107 LINE",
"462 671 LINE",
"572 671 LINE",
"729 107 LINE",
"885 671 LINE",
"992 671 LINE",
"786 8 LINE",
"672 8 LINE",
"517 553 LINE",
"363 8 LINE",
"248 8 LINE"
);
},
{
closed = 1;
nodes = (
"455 752 OFFCURVE",
"484 781 OFFCURVE",
"484 815 CURVE SMOOTH",
"484 850 OFFCURVE",
"456 879 OFFCURVE",
"421 879 CURVE SMOOTH",
"386 879 OFFCURVE",
"357 850 OFFCURVE",
"357 815 CURVE SMOOTH",
"357 780 OFFCURVE",
"386 752 OFFCURVE",
"421 752 CURVE SMOOTH"
);
},
{
closed = 1;
nodes = (
"395 768 OFFCURVE",
"373 789 OFFCURVE",
"373 815 CURVE SMOOTH",
"373 842 OFFCURVE",
"394 863 OFFCURVE",
"421 863 CURVE SMOOTH",
"447 863 OFFCURVE",
"468 841 OFFCURVE",
"468 815 CURVE SMOOTH",
"468 789 OFFCURVE",
"447 768 OFFCURVE",
"421 768 CURVE SMOOTH"
);
},
{
closed = 1;
nodes = (
"647 752 OFFCURVE",
"676 781 OFFCURVE",
"676 815 CURVE SMOOTH",
"676 850 OFFCURVE",
"648 879 OFFCURVE",
"613 879 CURVE SMOOTH",
"578 879 OFFCURVE",
"549 850 OFFCURVE",
"549 815 CURVE SMOOTH",
"549 780 OFFCURVE",
"578 752 OFFCURVE",
"613 752 CURVE SMOOTH"
);
},
{
closed = 1;
nodes = (
"587 768 OFFCURVE",
"565 789 OFFCURVE",
"565 815 CURVE SMOOTH",
"565 842 OFFCURVE",
"586 863 OFFCURVE",
"613 863 CURVE SMOOTH",
"639 863 OFFCURVE",
"660 841 OFFCURVE",
"660 815 CURVE SMOOTH",
"660 789 OFFCURVE",
"639 768 OFFCURVE",
"613 768 CURVE SMOOTH"
);
}
);
width = 1034;
}
);
leftKerningGroup = V;
note = Wdieresis;
rightKerningGroup = V;
unicode = 1E84;
},
{
glyphname = Wgrave;
lastChange = "2018-03-11 16:48:06 +0000";
layers = (
{
hints = (
{
horizontal = 1;
place = "{748, 171}";
type = Stem;
},
{
place = "{31, 972}";
type = Stem;
},
{
horizontal = 1;
place = "{0, 137}";
type = Stem;
}
);
layerId = "8D160AFA-A4A8-46CF-B5C1-48E538516704";
paths = (
{
closed = 1;
nodes = (
"375 -8 LINE",
"517 495 LINE",
"660 -8 LINE",
"798 -8 LINE",
"1014 687 LINE",
"873 687 LINE",
"729 167 LINE",
"584 687 LINE",
"450 687 LINE",
"306 167 LINE",
"161 687 LINE",
"20 687 LINE",
"236 -8 LINE"
);
},
{
closed = 1;
nodes = (
"42 671 LINE",
"149 671 LINE",
"306 107 LINE",
"462 671 LINE",
"572 671 LINE",
"729 107 LINE",
"885 671 LINE",
"992 671 LINE",
"786 8 LINE",
"672 8 LINE",
"517 553 LINE",
"363 8 LINE",
"248 8 LINE"
);
},
{
closed = 1;
nodes = (
"579 740 LINE",
"481 927 LINE",
"327 927 LINE",
"461 740 LINE"
);
},
{
closed = 1;
nodes = (
"359 911 LINE",
"471 911 LINE",
"553 756 LINE",
"469 756 LINE"
);
}
);
width = 1034;
}
);
leftKerningGroup = V;
note = Wgrave;
rightKerningGroup = V;
unicode = 1E80;
},
{
glyphname = X;
lastChange = "2018-03-11 16:48:06 +0000";
layers = (
{
hints = (
{
place = "{31, 649}";
type = Stem;
}
);
layerId = "8D160AFA-A4A8-46CF-B5C1-48E538516704";
paths = (
{
closed = 1;
nodes = (
"167 -8 LINE",
"352 255 LINE",
"544 -8 LINE",
"696 -8 LINE",
"427 357 LINE",
"678 687 LINE",
"526 687 LINE",
"352 451 LINE",
"182 687 LINE",
"30 687 LINE",
"278 358 LINE",
"15 -8 LINE"
);
},
{
closed = 1;
nodes = (
"298 358 LINE",
"62 671 LINE",
"174 671 LINE",
"352 423 LINE",
"534 671 LINE",
"646 671 LINE",
"407 357 LINE",
"664 8 LINE",
"552 8 LINE",
"352 283 LINE",
"159 8 LINE",
"47 8 LINE"
);
}
);
width = 711;
}
);
leftKerningGroup = X;
note = X;
rightKerningGroup = X;
unicode = 0058;
},
{
glyphname = Y;
lastChange = "2019-10-31 17:03:43 +0000";
layers = (
{
hints = (
{
place = "{283, 110}";
type = Stem;
}
);
layerId = "8D160AFA-A4A8-46CF-B5C1-48E538516704";
paths = (
{
closed = 1;
nodes = (
"401 -8 LINE",
"401 289 LINE",
"671 687 LINE",
"521 687 LINE",
"338 405 LINE",
"154 687 LINE",
"5 687 LINE",
"275 289 LINE",
"275 -8 LINE"
);
},
{
closed = 1;
nodes = (
"291 293 LINE",
"35 671 LINE",
"146 671 LINE",
"338 375 LINE",
"529 671 LINE",
"641 671 LINE",
"385 293 LINE",
"385 8 LINE",
"291 8 LINE"
);
}
);
width = 676;
}
);
leftKerningGroup = Y;
note = Y;
rightKerningGroup = Y;
unicode = 0059;
},
{
glyphname = Yacute;
lastChange = "2018-03-11 16:48:06 +0000";
layers = (
{
hints = (
{
horizontal = 1;
place = "{748, 171}";
type = Stem;
},
{
place = "{283, 110}";
type = Stem;
}
);
layerId = "8D160AFA-A4A8-46CF-B5C1-48E538516704";
paths = (
{
closed = 1;
nodes = (
"401 -8 LINE",
"401 289 LINE",
"671 687 LINE",
"521 687 LINE",
"338 405 LINE",
"154 687 LINE",
"5 687 LINE",
"275 289 LINE",
"275 -8 LINE"
);
},
{
closed = 1;
nodes = (
"291 293 LINE",
"35 671 LINE",
"146 671 LINE",
"338 375 LINE",
"529 671 LINE",
"641 671 LINE",
"385 293 LINE",
"385 8 LINE",
"291 8 LINE"
);
},
{
closed = 1;
nodes = (
"395 740 LINE",
"529 927 LINE",
"375 927 LINE",
"277 740 LINE"
);
},
{
closed = 1;
nodes = (
"385 911 LINE",
"497 911 LINE",
"387 756 LINE",
"303 756 LINE"
);
}
);
width = 676;
}
);
leftKerningGroup = Y;
note = Yacute;
rightKerningGroup = Y;
unicode = 00DD;
},
{
glyphname = Ycircumflex;
lastChange = "2018-03-11 16:48:06 +0000";
layers = (
{
hints = (
{
horizontal = 1;
place = "{748, 171}";
type = Stem;
},
{
place = "{283, 110}";
type = Stem;
}
);
layerId = "8D160AFA-A4A8-46CF-B5C1-48E538516704";
paths = (
{
closed = 1;
nodes = (
"401 -8 LINE",
"401 289 LINE",
"671 687 LINE",
"521 687 LINE",
"338 405 LINE",
"154 687 LINE",
"5 687 LINE",
"275 289 LINE",
"275 -8 LINE"
);
},
{
closed = 1;
nodes = (
"291 293 LINE",
"35 671 LINE",
"146 671 LINE",
"338 375 LINE",
"529 671 LINE",
"641 671 LINE",
"385 293 LINE",
"385 8 LINE",
"291 8 LINE"
);
},
{
closed = 1;
nodes = (
"281 740 LINE",
"338 817 LINE",
"394 740 LINE",
"513 740 LINE",
"398 927 LINE",
"277 927 LINE",
"162 740 LINE"
);
},
{
closed = 1;
nodes = (
"285 911 LINE",
"390 911 LINE",
"485 756 LINE",
"402 756 LINE",
"338 845 LINE",
"273 756 LINE",
"190 756 LINE"
);
}
);
width = 676;
}
);
leftKerningGroup = Y;
note = Ycircumflex;
rightKerningGroup = Y;
unicode = 0176;
},
{
glyphname = Ydieresis;
lastChange = "2018-03-11 16:48:06 +0000";
layers = (
{
hints = (
{
horizontal = 1;
place = "{760, 111}";
type = Stem;
},
{
place = "{186, 111}";
type = Stem;
},
{
place = "{378, 111}";
type = Stem;
},
{
place = "{283, 110}";
type = Stem;
}
);
layerId = "8D160AFA-A4A8-46CF-B5C1-48E538516704";
paths = (
{
closed = 1;
nodes = (
"401 -8 LINE",
"401 289 LINE",
"671 687 LINE",
"521 687 LINE",
"338 405 LINE",
"154 687 LINE",
"5 687 LINE",
"275 289 LINE",
"275 -8 LINE"
);
},
{
closed = 1;
nodes = (
"291 293 LINE",
"35 671 LINE",
"146 671 LINE",
"338 375 LINE",
"529 671 LINE",
"641 671 LINE",
"385 293 LINE",
"385 8 LINE",
"291 8 LINE"
);
},
{
closed = 1;
nodes = (
"276 752 OFFCURVE",
"305 781 OFFCURVE",
"305 815 CURVE SMOOTH",
"305 850 OFFCURVE",
"277 879 OFFCURVE",
"242 879 CURVE SMOOTH",
"207 879 OFFCURVE",
"178 850 OFFCURVE",
"178 815 CURVE SMOOTH",
"178 780 OFFCURVE",
"207 752 OFFCURVE",
"242 752 CURVE SMOOTH"
);
},
{
closed = 1;
nodes = (
"216 768 OFFCURVE",
"194 789 OFFCURVE",
"194 815 CURVE SMOOTH",
"194 842 OFFCURVE",
"215 863 OFFCURVE",
"242 863 CURVE SMOOTH",
"268 863 OFFCURVE",
"289 841 OFFCURVE",
"289 815 CURVE SMOOTH",
"289 789 OFFCURVE",
"268 768 OFFCURVE",
"242 768 CURVE SMOOTH"
);
},
{
closed = 1;
nodes = (
"468 752 OFFCURVE",
"497 781 OFFCURVE",
"497 815 CURVE SMOOTH",
"497 850 OFFCURVE",
"469 879 OFFCURVE",
"434 879 CURVE SMOOTH",
"399 879 OFFCURVE",
"370 850 OFFCURVE",
"370 815 CURVE SMOOTH",
"370 780 OFFCURVE",
"399 752 OFFCURVE",
"434 752 CURVE SMOOTH"
);
},
{
closed = 1;
nodes = (
"408 768 OFFCURVE",
"386 789 OFFCURVE",
"386 815 CURVE SMOOTH",
"386 842 OFFCURVE",
"407 863 OFFCURVE",
"434 863 CURVE SMOOTH",
"460 863 OFFCURVE",
"481 841 OFFCURVE",
"481 815 CURVE SMOOTH",
"481 789 OFFCURVE",
"460 768 OFFCURVE",
"434 768 CURVE SMOOTH"
);
}
);
width = 676;
}
);
leftKerningGroup = Y;
note = Ydieresis;
rightKerningGroup = Y;
unicode = 0178;
},
{
glyphname = Ygrave;
lastChange = "2018-03-11 16:48:06 +0000";
layers = (
{
hints = (
{
horizontal = 1;
place = "{748, 171}";
type = Stem;
},
{
place = "{283, 110}";
type = Stem;
}
);
layerId = "8D160AFA-A4A8-46CF-B5C1-48E538516704";
paths = (
{
closed = 1;
nodes = (
"401 -8 LINE",
"401 289 LINE",
"671 687 LINE",
"521 687 LINE",
"338 405 LINE",
"154 687 LINE",
"5 687 LINE",
"275 289 LINE",
"275 -8 LINE"
);
},
{
closed = 1;
nodes = (
"291 293 LINE",
"35 671 LINE",
"146 671 LINE",
"338 375 LINE",
"529 671 LINE",
"641 671 LINE",
"385 293 LINE",
"385 8 LINE",
"291 8 LINE"
);
},
{
closed = 1;
nodes = (
"400 740 LINE",
"302 927 LINE",
"148 927 LINE",
"282 740 LINE"
);
},
{
closed = 1;
nodes = (
"180 911 LINE",
"292 911 LINE",
"374 756 LINE",
"290 756 LINE"
);
}
);
width = 676;
}
);
leftKerningGroup = Y;
note = Ygrave;
rightKerningGroup = Y;
unicode = 1EF2;
},
{
glyphname = Z;
lastChange = "2018-03-11 16:48:06 +0000";
layers = (
{
hints = (
{
horizontal = 1;
place = "{0, 102}";
type = Stem;
},
{
horizontal = 1;
place = "{577, 102}";
type = Stem;
},
{
place = "{75, 554}";
type = Stem;
}
);
layerId = "8D160AFA-A4A8-46CF-B5C1-48E538516704";
paths = (
{
closed = 1;
nodes = (
"637 -8 LINE",
"637 110 LINE",
"233 110 LINE",
"624 574 LINE",
"624 687 LINE",
"86 687 LINE",
"86 569 LINE",
"461 569 LINE",
"67 105 LINE",
"67 -8 LINE"
);
},
{
closed = 1;
nodes = (
"83 99 LINE",
"495 585 LINE",
"102 585 LINE",
"102 671 LINE",
"608 671 LINE",
"608 580 LINE",
"199 94 LINE",
"621 94 LINE",
"621 8 LINE",
"83 8 LINE"
);
}
);
width = 684;
}
);
leftKerningGroup = Z;
note = Z;
rightKerningGroup = Z;
unicode = 005A;
},
{
glyphname = Zacute;
lastChange = "2018-03-11 16:48:06 +0000";
layers = (
{
hints = (
{
horizontal = 1;
place = "{0, 102}";
type = Stem;
},
{
horizontal = 1;
place = "{577, 102}";
type = Stem;
},
{
horizontal = 1;
place = "{748, 171}";
type = Stem;
},
{
place = "{75, 554}";
type = Stem;
}
);
layerId = "8D160AFA-A4A8-46CF-B5C1-48E538516704";
paths = (
{
closed = 1;
nodes = (
"637 -8 LINE",
"637 110 LINE",
"233 110 LINE",
"624 574 LINE",
"624 687 LINE",
"86 687 LINE",
"86 569 LINE",
"461 569 LINE",
"67 105 LINE",
"67 -8 LINE"
);
},
{
closed = 1;
nodes = (
"83 99 LINE",
"495 585 LINE",
"102 585 LINE",
"102 671 LINE",
"608 671 LINE",
"608 580 LINE",
"199 94 LINE",
"621 94 LINE",
"621 8 LINE",
"83 8 LINE"
);
},
{
closed = 1;
nodes = (
"399 740 LINE",
"533 927 LINE",
"379 927 LINE",
"281 740 LINE"
);
},
{
closed = 1;
nodes = (
"389 911 LINE",
"501 911 LINE",
"391 756 LINE",
"307 756 LINE"
);
}
);
width = 684;
}
);
leftKerningGroup = Z;
note = Zacute;
rightKerningGroup = Z;
unicode = 0179;
},
{
glyphname = Zcaron;
lastChange = "2018-03-11 16:48:06 +0000";
layers = (
{
hints = (
{
horizontal = 1;
place = "{0, 102}";
type = Stem;
},
{
horizontal = 1;
place = "{577, 102}";
type = Stem;
},
{
horizontal = 1;
place = "{748, 171}";
type = Stem;
},
{
place = "{75, 554}";
type = Stem;
}
);
layerId = "8D160AFA-A4A8-46CF-B5C1-48E538516704";
paths = (
{
closed = 1;
nodes = (
"637 -8 LINE",
"637 110 LINE",
"233 110 LINE",
"624 574 LINE",
"624 687 LINE",
"86 687 LINE",
"86 569 LINE",
"461 569 LINE",
"67 105 LINE",
"67 -8 LINE"
);
},
{
closed = 1;
nodes = (
"83 99 LINE",
"495 585 LINE",
"102 585 LINE",
"102 671 LINE",
"608 671 LINE",
"608 580 LINE",
"199 94 LINE",
"621 94 LINE",
"621 8 LINE",
"83 8 LINE"
);
},
{
closed = 1;
nodes = (
"402 740 LINE",
"517 927 LINE",
"398 927 LINE",
"342 850 LINE",
"285 927 LINE",
"166 927 LINE",
"281 740 LINE"
);
},
{
closed = 1;
nodes = (
"194 911 LINE",
"277 911 LINE",
"342 822 LINE",
"406 911 LINE",
"489 911 LINE",
"394 756 LINE",
"289 756 LINE"
);
}
);
width = 684;
}
);
leftKerningGroup = Z;
note = Zcaron;
rightKerningGroup = Z;
unicode = 017D;
},
{
glyphname = Zdotaccent;
lastChange = "2018-03-11 16:48:06 +0000";
layers = (
{
hints = (
{
horizontal = 1;
place = "{0, 102}";
type = Stem;
},
{
horizontal = 1;
place = "{577, 102}";
type = Stem;
},
{
horizontal = 1;
place = "{753, 123}";
type = Stem;
},
{
place = "{280, 123}";
type = Stem;
}
);
layerId = "8D160AFA-A4A8-46CF-B5C1-48E538516704";
paths = (
{
closed = 1;
nodes = (
"637 -8 LINE",
"637 110 LINE",
"233 110 LINE",
"624 574 LINE",
"624 687 LINE",
"86 687 LINE",
"86 569 LINE",
"461 569 LINE",
"67 105 LINE",
"67 -8 LINE"
);
},
{
closed = 1;
nodes = (
"83 99 LINE",
"495 585 LINE",
"102 585 LINE",
"102 671 LINE",
"608 671 LINE",
"608 580 LINE",
"199 94 LINE",
"621 94 LINE",
"621 8 LINE",
"83 8 LINE"
);
},
{
closed = 1;
nodes = (
"380 745 OFFCURVE",
"411 775 OFFCURVE",
"411 814 CURVE SMOOTH",
"411 853 OFFCURVE",
"380 884 OFFCURVE",
"341 884 CURVE SMOOTH",
"302 884 OFFCURVE",
"272 853 OFFCURVE",
"272 814 CURVE SMOOTH",
"272 776 OFFCURVE",
"303 745 OFFCURVE",
"341 745 CURVE SMOOTH"
);
},
{
closed = 1;
nodes = (
"311 761 OFFCURVE",
"288 784 OFFCURVE",
"288 814 CURVE SMOOTH",
"288 844 OFFCURVE",
"311 868 OFFCURVE",
"341 868 CURVE SMOOTH",
"372 868 OFFCURVE",
"395 845 OFFCURVE",
"395 814 CURVE SMOOTH",
"395 784 OFFCURVE",
"371 761 OFFCURVE",
"341 761 CURVE SMOOTH"
);
}
);
width = 684;
}
);
leftKerningGroup = Z;
note = Zdotaccent;
rightKerningGroup = Z;
unicode = 017B;
},
{
glyphname = A.ss02;
lastChange = "2018-03-11 16:48:06 +0000";
layers = (
{
hints = (
{
horizontal = 1;
place = "{0, 100}";
type = Stem;
},
{
place = "{30, 771}";
type = Stem;
}
);
layerId = "8D160AFA-A4A8-46CF-B5C1-48E538516704";
paths = (
{
closed = 1;
nodes = (
"814 -8 LINE",
"411 738 LINE",
"17 -8 LINE"
);
},
{
closed = 1;
nodes = (
"411 704 LINE",
"788 8 LINE",
"43 8 LINE"
);
},
{
closed = 1;
nodes = (
"412 475 LINE",
"599 109 LINE",
"223 107 LINE"
);
},
{
closed = 1;
nodes = (
"625 93 LINE",
"412 511 LINE",
"197 91 LINE"
);
}
);
width = 827;
}
);
leftKerningGroup = A;
note = A.ss02;
rightKerningGroup = A;
},
{
glyphname = AE.ss02;
lastChange = "2018-03-11 16:48:06 +0000";
layers = (
{
hints = (
{
horizontal = 1;
place = "{0, 102}";
type = Stem;
},
{
horizontal = 1;
place = "{302, 102}";
type = Stem;
},
{
horizontal = 1;
place = "{597, 102}";
type = Stem;
},
{
place = "{485, 118}";
type = Stem;
}
);
layerId = "8D160AFA-A4A8-46CF-B5C1-48E538516704";
paths = (
{
closed = 1;
nodes = (
"892 -8 LINE",
"892 110 LINE",
"611 110 LINE",
"611 294 LINE",
"802 294 LINE",
"802 412 LINE",
"611 412 LINE",
"611 589 LINE",
"892 589 LINE",
"892 707 LINE",
"481 707 LINE",
"10 -8 LINE"
);
},
{
closed = 1;
nodes = (
"489 691 LINE",
"876 691 LINE",
"876 605 LINE",
"595 605 LINE",
"595 396 LINE",
"786 396 LINE",
"786 310 LINE",
"595 310 LINE",
"595 94 LINE",
"876 94 LINE",
"876 8 LINE",
"40 8 LINE"
);
},
{
closed = 1;
nodes = (
"477 494 LINE",
"477 110 LINE",
"236 110 LINE"
);
},
{
closed = 1;
nodes = (
"493 94 LINE",
"493 550 LINE",
"208 94 LINE"
);
}
);
width = 980;
}
);
leftKerningGroup = A;
note = AE.ss02;
rightKerningGroup = AE;
},
{
glyphname = B.ss02;
lastChange = "2018-03-11 16:48:06 +0000";
layers = (
{
hints = (
{
horizontal = 1;
place = "{0, 102}";
type = Stem;
},
{
horizontal = 1;
place = "{303, 102}";
type = Stem;
},
{
horizontal = 1;
place = "{613, 102}";
type = Stem;
},
{
place = "{104, 118}";
type = Stem;
},
{
place = "{544, 118}";
type = Stem;
},
{
place = "{470, 118}";
type = Stem;
}
);
layerId = "8D160AFA-A4A8-46CF-B5C1-48E538516704";
paths = (
{
closed = 1;
nodes = (
"427 -8 LINE SMOOTH",
"583 -8 OFFCURVE",
"670 67 OFFCURVE",
"670 202 CURVE SMOOTH",
"670 282 OFFCURVE",
"612 356 OFFCURVE",
"531 382 CURVE",
"568 407 OFFCURVE",
"596 462 OFFCURVE",
"596 514 CURVE SMOOTH",
"596 645 OFFCURVE",
"500 726 OFFCURVE",
"348 723 CURVE",
"348 605 LINE",
"413 608 OFFCURVE",
"462 568 OFFCURVE",
"462 514 CURVE SMOOTH",
"462 453 OFFCURVE",
"418 413 OFFCURVE",
"350 413 CURVE SMOOTH",
"96 413 LINE",
"96 -8 LINE"
);
},
{
closed = 1;
nodes = (
"112 397 LINE",
"350 397 LINE SMOOTH",
"427 397 OFFCURVE",
"478 444 OFFCURVE",
"478 514 CURVE SMOOTH",
"478 572 OFFCURVE",
"430 617 OFFCURVE",
"364 621 CURVE",
"364 707 LINE",
"498 704 OFFCURVE",
"580 631 OFFCURVE",
"580 514 CURVE SMOOTH",
"580 447 OFFCURVE",
"529 374 OFFCURVE",
"480 386 CURVE",
"478 376 LINE",
"577 370 OFFCURVE",
"654 290 OFFCURVE",
"654 202 CURVE SMOOTH",
"654 76 OFFCURVE",
"574 8 OFFCURVE",
"427 8 CURVE SMOOTH",
"112 8 LINE"
);
},
{
closed = 1;
nodes = (
"230 295 LINE",
"396 295 LINE SMOOTH",
"483 295 OFFCURVE",
"536 260 OFFCURVE",
"536 202 CURVE SMOOTH",
"536 141 OFFCURVE",
"500 110 OFFCURVE",
"427 110 CURVE SMOOTH",
"230 110 LINE"
);
},
{
closed = 1;
nodes = (
"427 94 LINE SMOOTH",
"508 94 OFFCURVE",
"552 131 OFFCURVE",
"552 202 CURVE SMOOTH",
"552 270 OFFCURVE",
"492 311 OFFCURVE",
"396 311 CURVE SMOOTH",
"214 311 LINE",
"214 94 LINE"
);
}
);
width = 740;
}
);
note = B.ss02;
rightKerningGroup = B;
},
{
glyphname = C.ss02;
lastChange = "2018-03-11 16:48:06 +0000";
layers = (
{
hints = (
{
horizontal = 1;
place = "{-14, 109}";
type = Stem;
},
{
horizontal = 1;
place = "{590, 109}";
type = Stem;
},
{
place = "{88, 119}";
type = Stem;
},
{
place = "{498, 117}";
type = Stem;
}
);
layerId = "8D160AFA-A4A8-46CF-B5C1-48E538516704";
paths = (
{
closed = 1;
nodes = (
"506 103 LINE",
"370 101 OFFCURVE",
"215 163 OFFCURVE",
"215 340 CURVE SMOOTH",
"215 511 OFFCURVE",
"358 579 OFFCURVE",
"490 582 CURVE",
"490 370 LINE",
"623 370 LINE",
"623 707 LINE",
"498 707 LINE SMOOTH",
"294 707 OFFCURVE",
"80 602 OFFCURVE",
"80 340 CURVE SMOOTH",
"80 76 OFFCURVE",
"300 -25 OFFCURVE",
"506 -22 CURVE"
);
},
{
closed = 1;
nodes = (
"292 -3 OFFCURVE",
"96 92 OFFCURVE",
"96 340 CURVE SMOOTH",
"96 592 OFFCURVE",
"298 691 OFFCURVE",
"498 691 CURVE SMOOTH",
"607 691 LINE",
"607 386 LINE",
"506 386 LINE",
"506 598 LINE",
"367 601 OFFCURVE",
"199 529 OFFCURVE",
"199 340 CURVE SMOOTH",
"199 159 OFFCURVE",
"354 90 OFFCURVE",
"490 87 CURVE",
"490 -6 LINE"
);
}
);
width = 714;
}
);
leftKerningGroup = C;
note = C.ss02;
rightKerningGroup = C.ss02;
},
{
glyphname = Ccedilla.ss02;
lastChange = "2018-03-11 16:48:06 +0000";
layers = (
{
hints = (
{
horizontal = 1;
place = "{590, 109}";
type = Stem;
},
{
place = "{88, 119}";
type = Stem;
},
{
place = "{383, 116}";
type = Stem;
},
{
place = "{498, 117}";
type = Stem;
}
);
layerId = "8D160AFA-A4A8-46CF-B5C1-48E538516704";
paths = (
{
closed = 1;
nodes = (
"507 -257 LINE",
"507 37 LINE",
"506 37 LINE",
"506 103 LINE",
"370 101 OFFCURVE",
"215 163 OFFCURVE",
"215 340 CURVE SMOOTH",
"215 511 OFFCURVE",
"358 579 OFFCURVE",
"490 582 CURVE",
"490 370 LINE",
"623 370 LINE",
"623 707 LINE",
"498 707 LINE SMOOTH",
"294 707 OFFCURVE",
"80 602 OFFCURVE",
"80 340 CURVE SMOOTH",
"80 157 OFFCURVE",
"187 31 OFFCURVE",
"375 -10 CURVE",
"375 -257 LINE"
);
},
{
closed = 1;
nodes = (
"391 4 LINE",
"203 39 OFFCURVE",
"96 160 OFFCURVE",
"96 340 CURVE SMOOTH",
"96 592 OFFCURVE",
"298 691 OFFCURVE",
"498 691 CURVE SMOOTH",
"607 691 LINE",
"607 386 LINE",
"506 386 LINE",
"506 598 LINE",
"367 601 OFFCURVE",
"199 529 OFFCURVE",
"199 340 CURVE SMOOTH",
"199 159 OFFCURVE",
"354 90 OFFCURVE",
"490 87 CURVE",
"490 21 LINE",
"491 21 LINE",
"491 -241 LINE",
"391 -241 LINE"
);
}
);
width = 714;
}
);
leftKerningGroup = C;
note = Ccedilla.ss02;
rightKerningGroup = C.ss02;
},
{
glyphname = D.ss02;
lastChange = "2018-03-11 16:48:06 +0000";
layers = (
{
hints = (
{
horizontal = 1;
place = "{-14, 109}";
type = Stem;
},
{
horizontal = 1;
place = "{277, 102}";
type = Stem;
},
{
horizontal = 1;
place = "{591, 109}";
type = Stem;
},
{
place = "{221, 135}";
type = Stem;
},
{
place = "{512, 118}";
type = Stem;
},
{
place = "{104, 117}";
type = Stem;
}
);
layerId = "8D160AFA-A4A8-46CF-B5C1-48E538516704";
paths = (
{
closed = 1;
nodes = (
"418 -25 OFFCURVE",
"638 78 OFFCURVE",
"638 342 CURVE SMOOTH",
"638 604 OFFCURVE",
"434 708 OFFCURVE",
"239 708 CURVE SMOOTH",
"96 708 LINE",
"96 269 LINE",
"364 269 LINE",
"364 387 LINE",
"229 387 LINE",
"229 583 LINE",
"406 580 OFFCURVE",
"504 495 OFFCURVE",
"504 342 CURVE SMOOTH",
"504 165 OFFCURVE",
"349 100 OFFCURVE",
"213 103 CURVE",
"213 -22 LINE"
);
},
{
closed = 1;
nodes = (
"229 87 LINE",
"365 90 OFFCURVE",
"520 161 OFFCURVE",
"520 342 CURVE SMOOTH",
"520 509 OFFCURVE",
"409 602 OFFCURVE",
"213 599 CURVE",
"213 371 LINE",
"348 371 LINE",
"348 285 LINE",
"112 285 LINE",
"112 692 LINE",
"239 692 LINE SMOOTH",
"430 692 OFFCURVE",
"622 594 OFFCURVE",
"622 342 CURVE SMOOTH",
"622 94 OFFCURVE",
"426 -3 OFFCURVE",
"229 -6 CURVE"
);
}
);
width = 705;
}
);
note = D.ss02;
rightKerningGroup = D;
},
{
glyphname = E.ss02;
lastChange = "2018-03-11 16:48:06 +0000";
layers = (
{
hints = (
{
horizontal = 1;
place = "{0, 102}";
type = Stem;
},
{
horizontal = 1;
place = "{302, 102}";
type = Stem;
},
{
horizontal = 1;
place = "{597, 102}";
type = Stem;
},
{
place = "{241, 118}";
type = Stem;
}
);
layerId = "8D160AFA-A4A8-46CF-B5C1-48E538516704";
paths = (
{
closed = 1;
nodes = (
"648 -8 LINE",
"648 110 LINE",
"367 110 LINE",
"367 589 LINE",
"648 589 LINE",
"648 707 LINE",
"233 707 LINE",
"233 412 LINE",
"42 412 LINE",
"42 294 LINE",
"233 294 LINE",
"233 -8 LINE"
);
},
{
closed = 1;
nodes = (
"249 310 LINE",
"58 310 LINE",
"58 396 LINE",
"249 396 LINE",
"249 691 LINE",
"632 691 LINE",
"632 605 LINE",
"351 605 LINE",
"351 94 LINE",
"632 94 LINE",
"632 8 LINE",
"249 8 LINE"
);
}
);
width = 728;
}
);
leftKerningGroup = E.ss02;
note = E.ss02;
rightKerningGroup = C;
},
{
glyphname = F.ss02;
lastChange = "2018-03-11 16:48:06 +0000";
layers = (
{
hints = (
{
horizontal = 1;
place = "{303, 102}";
type = Stem;
},
{
horizontal = 1;
place = "{597, 102}";
type = Stem;
},
{
place = "{240, 117}";
type = Stem;
}
);
layerId = "8D160AFA-A4A8-46CF-B5C1-48E538516704";
paths = (
{
closed = 1;
nodes = (
"365 -8 LINE",
"365 295 LINE",
"605 295 LINE",
"605 413 LINE",
"365 413 LINE",
"365 707 LINE",
"42 707 LINE",
"42 589 LINE",
"232 589 LINE",
"232 -8 LINE"
);
},
{
closed = 1;
nodes = (
"248 605 LINE",
"58 605 LINE",
"58 691 LINE",
"349 691 LINE",
"349 397 LINE",
"589 397 LINE",
"589 311 LINE",
"349 311 LINE",
"349 8 LINE",
"248 8 LINE"
);
}
);
width = 683;
}
);
leftKerningGroup = E.ss02;
note = F.ss02;
},
{
glyphname = G.ss02;
lastChange = "2018-03-11 16:48:06 +0000";
layers = (
{
hints = (
{
horizontal = 1;
place = "{-14, 110}";
type = Stem;
},
{
horizontal = 1;
place = "{308, 102}";
type = Stem;
},
{
horizontal = 1;
place = "{606, 109}";
type = Stem;
},
{
place = "{88, 119}";
type = Stem;
},
{
place = "{498, 117}";
type = Stem;
},
{
place = "{362, 136}";
type = Stem;
}
);
layerId = "8D160AFA-A4A8-46CF-B5C1-48E538516704";
paths = (
{
closed = 1;
nodes = (
"623 -22 LINE",
"623 418 LINE",
"354 418 LINE",
"354 300 LINE",
"490 300 LINE",
"490 104 LINE",
"358 107 OFFCURVE",
"215 180 OFFCURVE",
"215 351 CURVE SMOOTH",
"215 528 OFFCURVE",
"370 601 OFFCURVE",
"506 598 CURVE",
"506 723 LINE",
"300 726 OFFCURVE",
"80 615 OFFCURVE",
"80 351 CURVE SMOOTH",
"80 90 OFFCURVE",
"294 -22 OFFCURVE",
"498 -22 CURVE SMOOTH"
);
},
{
closed = 1;
nodes = (
"298 -6 OFFCURVE",
"96 100 OFFCURVE",
"96 351 CURVE SMOOTH",
"96 599 OFFCURVE",
"293 704 OFFCURVE",
"490 707 CURVE",
"490 614 LINE",
"354 611 OFFCURVE",
"199 531 OFFCURVE",
"199 351 CURVE SMOOTH",
"199 163 OFFCURVE",
"366 85 OFFCURVE",
"506 88 CURVE",
"506 316 LINE",
"370 316 LINE",
"370 402 LINE",
"607 402 LINE",
"607 -6 LINE",
"498 -6 LINE SMOOTH"
);
}
);
width = 739;
}
);
leftKerningGroup = C;
note = G.ss02;
rightKerningGroup = G;
},
{
glyphname = H.ss02;
lastChange = "2018-03-11 16:48:06 +0000";
layers = (
{
hints = (
{
horizontal = 1;
place = "{302, 102}";
type = Stem;
},
{
place = "{241, 117}";
type = Stem;
},
{
place = "{694, 117}";
type = Stem;
}
);
layerId = "8D160AFA-A4A8-46CF-B5C1-48E538516704";
paths = (
{
closed = 1;
nodes = (
"819 -8 LINE",
"819 707 LINE",
"686 707 LINE",
"686 412 LINE",
"489 412 LINE",
"489 294 LINE",
"686 294 LINE",
"686 -8 LINE"
);
},
{
closed = 1;
nodes = (
"702 310 LINE",
"505 310 LINE",
"505 396 LINE",
"702 396 LINE",
"702 691 LINE",
"803 691 LINE",
"803 8 LINE",
"702 8 LINE"
);
},
{
closed = 1;
nodes = (
"366 -8 LINE",
"366 707 LINE",
"233 707 LINE",
"233 412 LINE",
"42 412 LINE",
"42 294 LINE",
"233 294 LINE",
"233 -8 LINE"
);
},
{
closed = 1;
nodes = (
"249 310 LINE",
"58 310 LINE",
"58 396 LINE",
"249 396 LINE",
"249 691 LINE",
"350 691 LINE",
"350 8 LINE",
"249 8 LINE"
);
}
);
width = 925;
}
);
note = H.ss02;
},
{
glyphname = I.ss02;
lastChange = "2018-03-11 16:48:06 +0000";
layers = (
{
hints = (
{
place = "{114, 117}";
type = Stem;
}
);
layerId = "8D160AFA-A4A8-46CF-B5C1-48E538516704";
paths = (
{
closed = 1;
nodes = (
"239 -8 LINE",
"239 707 LINE",
"106 707 LINE",
"106 -8 LINE"
);
},
{
closed = 1;
nodes = (
"122 691 LINE",
"223 691 LINE",
"223 8 LINE",
"122 8 LINE"
);
}
);
width = 345;
}
);
note = I.ss02;
},
{
glyphname = J.ss02;
lastChange = "2018-03-11 16:48:06 +0000";
layers = (
{
hints = (
{
horizontal = 1;
place = "{597, 102}";
type = Stem;
},
{
place = "{240, 117}";
type = Stem;
}
);
layerId = "8D160AFA-A4A8-46CF-B5C1-48E538516704";
paths = (
{
closed = 1;
nodes = (
"365 -8 LINE",
"365 707 LINE",
"24 707 LINE",
"24 589 LINE",
"232 589 LINE",
"232 -8 LINE"
);
},
{
closed = 1;
nodes = (
"248 605 LINE",
"40 605 LINE",
"40 691 LINE",
"349 691 LINE",
"349 8 LINE",
"248 8 LINE"
);
}
);
width = 471;
}
);
note = J.ss02;
},
{
glyphname = K.ss02;
lastChange = "2018-03-11 16:48:06 +0000";
layers = (
{
hints = (
{
place = "{114, 117}";
type = Stem;
}
);
layerId = "8D160AFA-A4A8-46CF-B5C1-48E538516704";
paths = (
{
closed = 1;
nodes = (
"239 -8 LINE",
"239 474 LINE",
"576 -8 LINE",
"737 -8 LINE",
"487 348 LINE",
"762 707 LINE",
"605 707 LINE",
"414 453 LINE",
"235 707 LINE",
"106 707 LINE",
"106 -8 LINE"
);
},
{
closed = 1;
nodes = (
"122 691 LINE",
"227 691 LINE",
"414 425 LINE",
"613 691 LINE",
"730 691 LINE",
"467 348 LINE",
"707 8 LINE",
"584 8 LINE",
"223 524 LINE",
"223 8 LINE",
"122 8 LINE"
);
}
);
width = 791;
}
);
note = K.ss02;
rightKerningGroup = K;
},
{
glyphname = L.ss02;
lastChange = "2018-03-11 16:48:06 +0000";
layers = (
{
hints = (
{
horizontal = 1;
place = "{0, 102}";
type = Stem;
},
{
place = "{114, 118}";
type = Stem;
}
);
layerId = "8D160AFA-A4A8-46CF-B5C1-48E538516704";
paths = (
{
closed = 1;
nodes = (
"626 -8 LINE",
"626 110 LINE",
"240 110 LINE",
"240 707 LINE",
"106 707 LINE",
"106 -8 LINE"
);
},
{
closed = 1;
nodes = (
"122 691 LINE",
"224 691 LINE",
"224 94 LINE",
"610 94 LINE",
"610 8 LINE",
"122 8 LINE"
);
}
);
width = 681;
}
);
note = L.ss02;
rightKerningGroup = L;
},
{
glyphname = M.ss02;
lastChange = "2018-03-11 16:48:06 +0000";
layers = (
{
hints = (
{
place = "{114, 116}";
type = Stem;
},
{
place = "{624, 118}";
type = Stem;
},
{
horizontal = 1;
place = "{572, 128}";
type = Stem;
}
);
layerId = "8D160AFA-A4A8-46CF-B5C1-48E538516704";
paths = (
{
closed = 1;
nodes = (
"240 -8 LINE",
"616 506 LINE",
"616 -8 LINE",
"750 -8 LINE",
"750 708 LINE",
"620 708 LINE",
"434 449 LINE",
"273 708 LINE",
"106 708 LINE",
"106 -8 LINE"
);
},
{
closed = 1;
nodes = (
"122 692 LINE",
"265 692 LINE",
"432 421 LINE",
"628 692 LINE",
"734 692 LINE",
"734 8 LINE",
"632 8 LINE",
"632 556 LINE",
"232 8 LINE",
"122 8 LINE"
);
},
{
closed = 1;
nodes = (
"238 542 LINE",
"354 344 LINE",
"238 180 LINE"
);
},
{
closed = 1;
nodes = (
"372 344 LINE",
"222 602 LINE",
"222 130 LINE"
);
}
);
width = 856;
}
);
note = M.ss02;
},
{
glyphname = N.ss02;
lastChange = "2018-03-11 16:48:06 +0000";
layers = (
{
hints = (
{
place = "{114, 117}";
type = Stem;
},
{
place = "{561, 117}";
type = Stem;
}
);
layerId = "8D160AFA-A4A8-46CF-B5C1-48E538516704";
paths = (
{
closed = 1;
nodes = (
"239 -8 LINE",
"239 521 LINE",
"553 250 LINE",
"553 -8 LINE",
"686 -8 LINE",
"686 707 LINE",
"553 707 LINE",
"553 430 LINE",
"239 702 LINE",
"239 707 LINE",
"106 707 LINE",
"106 -8 LINE"
);
},
{
closed = 1;
nodes = (
"122 691 LINE",
"223 691 LINE",
"223 694 LINE",
"569 396 LINE",
"569 691 LINE",
"670 691 LINE",
"670 8 LINE",
"569 8 LINE",
"569 258 LINE",
"223 555 LINE",
"223 8 LINE",
"122 8 LINE"
);
}
);
width = 791;
}
);
note = N.ss02;
},
{
glyphname = O.ss02;
lastChange = "2018-03-11 16:48:06 +0000";
layers = (
{
hints = (
{
horizontal = 1;
place = "{-15, 109}";
type = Stem;
},
{
horizontal = 1;
place = "{605, 109}";
type = Stem;
},
{
place = "{69, 119}";
type = Stem;
},
{
place = "{679, 119}";
type = Stem;
}
);
layerId = "8D160AFA-A4A8-46CF-B5C1-48E538516704";
paths = (
{
closed = 1;
nodes = (
"639 -23 OFFCURVE",
"806 144 OFFCURVE",
"806 349 CURVE SMOOTH",
"806 555 OFFCURVE",
"639 722 OFFCURVE",
"433 722 CURVE SMOOTH",
"227 722 OFFCURVE",
"61 555 OFFCURVE",
"61 349 CURVE SMOOTH",
"61 144 OFFCURVE",
"228 -23 OFFCURVE",
"433 -23 CURVE SMOOTH"
);
},
{
closed = 1;
nodes = (
"236 -7 OFFCURVE",
"77 152 OFFCURVE",
"77 349 CURVE SMOOTH",
"77 546 OFFCURVE",
"236 706 OFFCURVE",
"433 706 CURVE SMOOTH",
"630 706 OFFCURVE",
"790 546 OFFCURVE",
"790 349 CURVE SMOOTH",
"790 153 OFFCURVE",
"630 -7 OFFCURVE",
"433 -7 CURVE SMOOTH"
);
},
{
closed = 1;
nodes = (
"302 102 OFFCURVE",
"196 212 OFFCURVE",
"196 349 CURVE SMOOTH",
"196 486 OFFCURVE",
"302 597 OFFCURVE",
"433 597 CURVE SMOOTH",
"564 597 OFFCURVE",
"671 486 OFFCURVE",
"671 349 CURVE SMOOTH",
"671 212 OFFCURVE",
"565 102 OFFCURVE",
"433 102 CURVE SMOOTH"
);
},
{
closed = 1;
nodes = (
"573 86 OFFCURVE",
"687 204 OFFCURVE",
"687 349 CURVE SMOOTH",
"687 495 OFFCURVE",
"573 613 OFFCURVE",
"433 613 CURVE SMOOTH",
"293 613 OFFCURVE",
"180 495 OFFCURVE",
"180 349 CURVE SMOOTH",
"180 203 OFFCURVE",
"293 86 OFFCURVE",
"433 86 CURVE SMOOTH"
);
}
);
width = 867;
}
);
leftKerningGroup = C;
note = O.ss02;
rightKerningGroup = O;
},
{
glyphname = Oacute.ss02;
lastChange = "2018-03-11 16:48:06 +0000";
layers = (
{
hints = (
{
horizontal = 1;
place = "{-15, 103}";
type = Stem;
},
{
horizontal = 1;
place = "{593, 102}";
type = Stem;
},
{
horizontal = 1;
place = "{748, 171}";
type = Stem;
},
{
place = "{45, 112}";
type = Stem;
},
{
place = "{645, 113}";
type = Stem;
}
);
layerId = "8D160AFA-A4A8-46CF-B5C1-48E538516704";
paths = (
{
closed = 1;
nodes = (
"607 -26 OFFCURVE",
"769 136 OFFCURVE",
"766 340 CURVE",
"769 544 OFFCURVE",
"607 706 OFFCURVE",
"401 703 CURVE SMOOTH",
"196 706 OFFCURVE",
"34 544 OFFCURVE",
"37 340 CURVE SMOOTH",
"34 136 OFFCURVE",
"196 -26 OFFCURVE",
"401 -23 CURVE SMOOTH"
);
},
{
closed = 1;
nodes = (
"204 -10 OFFCURVE",
"50 144 OFFCURVE",
"53 340 CURVE",
"50 536 OFFCURVE",
"204 690 OFFCURVE",
"401 687 CURVE SMOOTH",
"598 690 OFFCURVE",
"753 535 OFFCURVE",
"750 340 CURVE SMOOTH",
"753 145 OFFCURVE",
"598 -10 OFFCURVE",
"401 -7 CURVE SMOOTH"
);
},
{
closed = 1;
nodes = (
"262 96 OFFCURVE",
"165 196 OFFCURVE",
"165 340 CURVE SMOOTH",
"165 483 OFFCURVE",
"263 585 OFFCURVE",
"401 585 CURVE SMOOTH",
"540 585 OFFCURVE",
"637 484 OFFCURVE",
"637 340 CURVE SMOOTH",
"637 195 OFFCURVE",
"541 96 OFFCURVE",
"401 96 CURVE SMOOTH"
);
},
{
closed = 1;
nodes = (
"550 80 OFFCURVE",
"653 187 OFFCURVE",
"653 340 CURVE SMOOTH",
"653 493 OFFCURVE",
"549 601 OFFCURVE",
"401 601 CURVE SMOOTH",
"254 601 OFFCURVE",
"149 492 OFFCURVE",
"149 340 CURVE SMOOTH",
"149 188 OFFCURVE",
"253 80 OFFCURVE",
"401 80 CURVE SMOOTH"
);
},
{
closed = 1;
nodes = (
"459 740 LINE",
"593 927 LINE",
"439 927 LINE",
"341 740 LINE"
);
},
{
closed = 1;
nodes = (
"449 911 LINE",
"561 911 LINE",
"451 756 LINE",
"367 756 LINE"
);
}
);
width = 803;
}
);
leftKerningGroup = C;
note = Oacute.ss02;
rightKerningGroup = O;
},
{
glyphname = Ocircumflex.ss02;
lastChange = "2018-03-11 16:48:06 +0000";
layers = (
{
hints = (
{
horizontal = 1;
place = "{-15, 103}";
type = Stem;
},
{
horizontal = 1;
place = "{593, 102}";
type = Stem;
},
{
horizontal = 1;
place = "{748, 171}";
type = Stem;
},
{
place = "{45, 112}";
type = Stem;
},
{
place = "{645, 113}";
type = Stem;
}
);
layerId = "8D160AFA-A4A8-46CF-B5C1-48E538516704";
paths = (
{
closed = 1;
nodes = (
"607 -26 OFFCURVE",
"769 136 OFFCURVE",
"766 340 CURVE",
"769 544 OFFCURVE",
"607 706 OFFCURVE",
"401 703 CURVE SMOOTH",
"196 706 OFFCURVE",
"34 544 OFFCURVE",
"37 340 CURVE SMOOTH",
"34 136 OFFCURVE",
"196 -26 OFFCURVE",
"401 -23 CURVE SMOOTH"
);
},
{
closed = 1;
nodes = (
"204 -10 OFFCURVE",
"50 144 OFFCURVE",
"53 340 CURVE",
"50 536 OFFCURVE",
"204 690 OFFCURVE",
"401 687 CURVE SMOOTH",
"598 690 OFFCURVE",
"753 535 OFFCURVE",
"750 340 CURVE SMOOTH",
"753 145 OFFCURVE",
"598 -10 OFFCURVE",
"401 -7 CURVE SMOOTH"
);
},
{
closed = 1;
nodes = (
"262 96 OFFCURVE",
"165 196 OFFCURVE",
"165 340 CURVE SMOOTH",
"165 483 OFFCURVE",
"263 585 OFFCURVE",
"401 585 CURVE SMOOTH",
"540 585 OFFCURVE",
"637 484 OFFCURVE",
"637 340 CURVE SMOOTH",
"637 195 OFFCURVE",
"541 96 OFFCURVE",
"401 96 CURVE SMOOTH"
);
},
{
closed = 1;
nodes = (
"550 80 OFFCURVE",
"653 187 OFFCURVE",
"653 340 CURVE SMOOTH",
"653 493 OFFCURVE",
"549 601 OFFCURVE",
"401 601 CURVE SMOOTH",
"254 601 OFFCURVE",
"149 492 OFFCURVE",
"149 340 CURVE SMOOTH",
"149 188 OFFCURVE",
"253 80 OFFCURVE",
"401 80 CURVE SMOOTH"
);
},
{
closed = 1;
nodes = (
"345 740 LINE",
"402 817 LINE",
"458 740 LINE",
"577 740 LINE",
"462 927 LINE",
"341 927 LINE",
"226 740 LINE"
);
},
{
closed = 1;
nodes = (
"349 911 LINE",
"454 911 LINE",
"549 756 LINE",
"466 756 LINE",
"402 845 LINE",
"337 756 LINE",
"254 756 LINE"
);
}
);
width = 803;
}
);
leftKerningGroup = C;
note = Ocircumflex.ss02;
rightKerningGroup = O;
},
{
glyphname = Odieresis.ss02;
lastChange = "2018-03-11 16:48:06 +0000";
layers = (
{
hints = (
{
horizontal = 1;
place = "{-15, 103}";
type = Stem;
},
{
horizontal = 1;
place = "{593, 102}";
type = Stem;
},
{
horizontal = 1;
place = "{760, 111}";
type = Stem;
},
{
place = "{45, 112}";
type = Stem;
},
{
place = "{250, 111}";
type = Stem;
},
{
place = "{442, 111}";
type = Stem;
},
{
place = "{645, 113}";
type = Stem;
}
);
layerId = "8D160AFA-A4A8-46CF-B5C1-48E538516704";
paths = (
{
closed = 1;
nodes = (
"607 -26 OFFCURVE",
"769 136 OFFCURVE",
"766 340 CURVE",
"769 544 OFFCURVE",
"607 706 OFFCURVE",
"401 703 CURVE SMOOTH",
"196 706 OFFCURVE",
"34 544 OFFCURVE",
"37 340 CURVE SMOOTH",
"34 136 OFFCURVE",
"196 -26 OFFCURVE",
"401 -23 CURVE SMOOTH"
);
},
{
closed = 1;
nodes = (
"204 -10 OFFCURVE",
"50 144 OFFCURVE",
"53 340 CURVE",
"50 536 OFFCURVE",
"204 690 OFFCURVE",
"401 687 CURVE SMOOTH",
"598 690 OFFCURVE",
"753 535 OFFCURVE",
"750 340 CURVE SMOOTH",
"753 145 OFFCURVE",
"598 -10 OFFCURVE",
"401 -7 CURVE SMOOTH"
);
},
{
closed = 1;
nodes = (
"262 96 OFFCURVE",
"165 196 OFFCURVE",
"165 340 CURVE SMOOTH",
"165 483 OFFCURVE",
"263 585 OFFCURVE",
"401 585 CURVE SMOOTH",
"540 585 OFFCURVE",
"637 484 OFFCURVE",
"637 340 CURVE SMOOTH",
"637 195 OFFCURVE",
"541 96 OFFCURVE",
"401 96 CURVE SMOOTH"
);
},
{
closed = 1;
nodes = (
"550 80 OFFCURVE",
"653 187 OFFCURVE",
"653 340 CURVE SMOOTH",
"653 493 OFFCURVE",
"549 601 OFFCURVE",
"401 601 CURVE SMOOTH",
"254 601 OFFCURVE",
"149 492 OFFCURVE",
"149 340 CURVE SMOOTH",
"149 188 OFFCURVE",
"253 80 OFFCURVE",
"401 80 CURVE SMOOTH"
);
},
{
closed = 1;
nodes = (
"340 752 OFFCURVE",
"369 781 OFFCURVE",
"369 815 CURVE SMOOTH",
"369 850 OFFCURVE",
"341 879 OFFCURVE",
"306 879 CURVE SMOOTH",
"271 879 OFFCURVE",
"242 850 OFFCURVE",
"242 815 CURVE SMOOTH",
"242 780 OFFCURVE",
"271 752 OFFCURVE",
"306 752 CURVE SMOOTH"
);
},
{
closed = 1;
nodes = (
"280 768 OFFCURVE",
"258 789 OFFCURVE",
"258 815 CURVE SMOOTH",
"258 842 OFFCURVE",
"279 863 OFFCURVE",
"306 863 CURVE SMOOTH",
"332 863 OFFCURVE",
"353 841 OFFCURVE",
"353 815 CURVE SMOOTH",
"353 789 OFFCURVE",
"332 768 OFFCURVE",
"306 768 CURVE SMOOTH"
);
},
{
closed = 1;
nodes = (
"532 752 OFFCURVE",
"561 781 OFFCURVE",
"561 815 CURVE SMOOTH",
"561 850 OFFCURVE",
"533 879 OFFCURVE",
"498 879 CURVE SMOOTH",
"463 879 OFFCURVE",
"434 850 OFFCURVE",
"434 815 CURVE SMOOTH",
"434 780 OFFCURVE",
"463 752 OFFCURVE",
"498 752 CURVE SMOOTH"
);
},
{
closed = 1;
nodes = (
"472 768 OFFCURVE",
"450 789 OFFCURVE",
"450 815 CURVE SMOOTH",
"450 842 OFFCURVE",
"471 863 OFFCURVE",
"498 863 CURVE SMOOTH",
"524 863 OFFCURVE",
"545 841 OFFCURVE",
"545 815 CURVE SMOOTH",
"545 789 OFFCURVE",
"524 768 OFFCURVE",
"498 768 CURVE SMOOTH"
);
}
);
width = 803;
}
);
leftKerningGroup = C;
note = Odieresis.ss02;
rightKerningGroup = O;
},
{
glyphname = Ograve.ss02;
lastChange = "2018-03-11 16:48:06 +0000";
layers = (
{
hints = (
{
horizontal = 1;
place = "{-15, 103}";
type = Stem;
},
{
horizontal = 1;
place = "{593, 102}";
type = Stem;
},
{
horizontal = 1;
place = "{748, 171}";
type = Stem;
},
{
place = "{45, 112}";
type = Stem;
},
{
place = "{645, 113}";
type = Stem;
}
);
layerId = "8D160AFA-A4A8-46CF-B5C1-48E538516704";
paths = (
{
closed = 1;
nodes = (
"607 -26 OFFCURVE",
"769 136 OFFCURVE",
"766 340 CURVE",
"769 544 OFFCURVE",
"607 706 OFFCURVE",
"401 703 CURVE SMOOTH",
"196 706 OFFCURVE",
"34 544 OFFCURVE",
"37 340 CURVE SMOOTH",
"34 136 OFFCURVE",
"196 -26 OFFCURVE",
"401 -23 CURVE SMOOTH"
);
},
{
closed = 1;
nodes = (
"204 -10 OFFCURVE",
"50 144 OFFCURVE",
"53 340 CURVE",
"50 536 OFFCURVE",
"204 690 OFFCURVE",
"401 687 CURVE SMOOTH",
"598 690 OFFCURVE",
"753 535 OFFCURVE",
"750 340 CURVE SMOOTH",
"753 145 OFFCURVE",
"598 -10 OFFCURVE",
"401 -7 CURVE SMOOTH"
);
},
{
closed = 1;
nodes = (
"262 96 OFFCURVE",
"165 196 OFFCURVE",
"165 340 CURVE SMOOTH",
"165 483 OFFCURVE",
"263 585 OFFCURVE",
"401 585 CURVE SMOOTH",
"540 585 OFFCURVE",
"637 484 OFFCURVE",
"637 340 CURVE SMOOTH",
"637 195 OFFCURVE",
"541 96 OFFCURVE",
"401 96 CURVE SMOOTH"
);
},
{
closed = 1;
nodes = (
"550 80 OFFCURVE",
"653 187 OFFCURVE",
"653 340 CURVE SMOOTH",
"653 493 OFFCURVE",
"549 601 OFFCURVE",
"401 601 CURVE SMOOTH",
"254 601 OFFCURVE",
"149 492 OFFCURVE",
"149 340 CURVE SMOOTH",
"149 188 OFFCURVE",
"253 80 OFFCURVE",
"401 80 CURVE SMOOTH"
);
},
{
closed = 1;
nodes = (
"464 740 LINE",
"366 927 LINE",
"212 927 LINE",
"346 740 LINE"
);
},
{
closed = 1;
nodes = (
"244 911 LINE",
"356 911 LINE",
"438 756 LINE",
"354 756 LINE"
);
}
);
width = 803;
}
);
leftKerningGroup = C;
note = Ograve.ss02;
rightKerningGroup = O;
},
{
glyphname = Ohungarumlaut.ss02;
lastChange = "2018-03-11 16:48:06 +0000";
layers = (
{
hints = (
{
horizontal = 1;
place = "{-15, 103}";
type = Stem;
},
{
horizontal = 1;
place = "{593, 102}";
type = Stem;
},
{
horizontal = 1;
place = "{748, 171}";
type = Stem;
},
{
place = "{45, 112}";
type = Stem;
},
{
place = "{645, 113}";
type = Stem;
}
);
layerId = "8D160AFA-A4A8-46CF-B5C1-48E538516704";
paths = (
{
closed = 1;
nodes = (
"607 -26 OFFCURVE",
"769 136 OFFCURVE",
"766 340 CURVE",
"769 544 OFFCURVE",
"607 706 OFFCURVE",
"401 703 CURVE SMOOTH",
"196 706 OFFCURVE",
"34 544 OFFCURVE",
"37 340 CURVE SMOOTH",
"34 136 OFFCURVE",
"196 -26 OFFCURVE",
"401 -23 CURVE SMOOTH"
);
},
{
closed = 1;
nodes = (
"204 -10 OFFCURVE",
"50 144 OFFCURVE",
"53 340 CURVE",
"50 536 OFFCURVE",
"204 690 OFFCURVE",
"401 687 CURVE SMOOTH",
"598 690 OFFCURVE",
"753 535 OFFCURVE",
"750 340 CURVE SMOOTH",
"753 145 OFFCURVE",
"598 -10 OFFCURVE",
"401 -7 CURVE SMOOTH"
);
},
{
closed = 1;
nodes = (
"262 96 OFFCURVE",
"165 196 OFFCURVE",
"165 340 CURVE SMOOTH",
"165 483 OFFCURVE",
"263 585 OFFCURVE",
"401 585 CURVE SMOOTH",
"540 585 OFFCURVE",
"637 484 OFFCURVE",
"637 340 CURVE SMOOTH",
"637 195 OFFCURVE",
"541 96 OFFCURVE",
"401 96 CURVE SMOOTH"
);
},
{
closed = 1;
nodes = (
"550 80 OFFCURVE",
"653 187 OFFCURVE",
"653 340 CURVE SMOOTH",
"653 493 OFFCURVE",
"549 601 OFFCURVE",
"401 601 CURVE SMOOTH",
"254 601 OFFCURVE",
"149 492 OFFCURVE",
"149 340 CURVE SMOOTH",
"149 188 OFFCURVE",
"253 80 OFFCURVE",
"401 80 CURVE SMOOTH"
);
},
{
closed = 1;
nodes = (
"370 740 LINE",
"504 927 LINE",
"350 927 LINE",
"252 740 LINE"
);
},
{
closed = 1;
nodes = (
"360 911 LINE",
"472 911 LINE",
"362 756 LINE",
"278 756 LINE"
);
},
{
closed = 1;
nodes = (
"550 740 LINE",
"694 927 LINE",
"540 927 LINE",
"431 740 LINE"
);
},
{
closed = 1;
nodes = (
"550 911 LINE",
"662 911 LINE",
"542 756 LINE",
"459 756 LINE"
);
}
);
width = 803;
}
);
leftKerningGroup = C;
note = Ohungarumlaut.ss02;
rightKerningGroup = O;
},
{
glyphname = Omacron.ss02;
lastChange = "2018-03-11 16:48:06 +0000";
layers = (
{
hints = (
{
horizontal = 1;
place = "{-15, 103}";
type = Stem;
},
{
horizontal = 1;
place = "{593, 102}";
type = Stem;
},
{
horizontal = 1;
place = "{763, 90}";
type = Stem;
},
{
place = "{45, 112}";
type = Stem;
},
{
place = "{263, 277}";
type = Stem;
},
{
place = "{645, 113}";
type = Stem;
}
);
layerId = "8D160AFA-A4A8-46CF-B5C1-48E538516704";
paths = (
{
closed = 1;
nodes = (
"607 -26 OFFCURVE",
"769 136 OFFCURVE",
"766 340 CURVE",
"769 544 OFFCURVE",
"607 706 OFFCURVE",
"401 703 CURVE SMOOTH",
"196 706 OFFCURVE",
"34 544 OFFCURVE",
"37 340 CURVE SMOOTH",
"34 136 OFFCURVE",
"196 -26 OFFCURVE",
"401 -23 CURVE SMOOTH"
);
},
{
closed = 1;
nodes = (
"204 -10 OFFCURVE",
"50 144 OFFCURVE",
"53 340 CURVE",
"50 536 OFFCURVE",
"204 690 OFFCURVE",
"401 687 CURVE SMOOTH",
"598 690 OFFCURVE",
"753 535 OFFCURVE",
"750 340 CURVE SMOOTH",
"753 145 OFFCURVE",
"598 -10 OFFCURVE",
"401 -7 CURVE SMOOTH"
);
},
{
closed = 1;
nodes = (
"262 96 OFFCURVE",
"165 196 OFFCURVE",
"165 340 CURVE SMOOTH",
"165 483 OFFCURVE",
"263 585 OFFCURVE",
"401 585 CURVE SMOOTH",
"540 585 OFFCURVE",
"637 484 OFFCURVE",
"637 340 CURVE SMOOTH",
"637 195 OFFCURVE",
"541 96 OFFCURVE",
"401 96 CURVE SMOOTH"
);
},
{
closed = 1;
nodes = (
"550 80 OFFCURVE",
"653 187 OFFCURVE",
"653 340 CURVE SMOOTH",
"653 493 OFFCURVE",
"549 601 OFFCURVE",
"401 601 CURVE SMOOTH",
"254 601 OFFCURVE",
"149 492 OFFCURVE",
"149 340 CURVE SMOOTH",
"149 188 OFFCURVE",
"253 80 OFFCURVE",
"401 80 CURVE SMOOTH"
);
},
{
closed = 1;
nodes = (
"548 755 LINE",
"548 861 LINE",
"255 861 LINE",
"255 755 LINE"
);
},
{
closed = 1;
nodes = (
"271 845 LINE",
"532 845 LINE",
"532 771 LINE",
"271 771 LINE"
);
}
);
width = 803;
}
);
leftKerningGroup = C;
note = Omacron.ss02;
rightKerningGroup = O;
},
{
glyphname = Oslash.ss02;
lastChange = "2018-03-11 16:48:06 +0000";
layers = (
{
hints = (
{
horizontal = 1;
place = "{-15, 103}";
type = Stem;
},
{
place = "{45, 112}";
type = Stem;
},
{
place = "{645, 113}";
type = Stem;
},
{
horizontal = 1;
place = "{593, 102}";
type = Stem;
}
);
layerId = "8D160AFA-A4A8-46CF-B5C1-48E538516704";
paths = (
{
closed = 1;
nodes = (
"607 -26 OFFCURVE",
"769 136 OFFCURVE",
"766 340 CURVE",
"767 412 OFFCURVE",
"747 483 OFFCURVE",
"707 544 CURVE",
"793 623 LINE",
"703 712 LINE",
"620 634 LINE",
"558 681 OFFCURVE",
"482 704 OFFCURVE",
"401 703 CURVE SMOOTH",
"196 706 OFFCURVE",
"34 544 OFFCURVE",
"37 340 CURVE SMOOTH",
"36 270 OFFCURVE",
"55 201 OFFCURVE",
"92 142 CURVE",
"8 65 LINE",
"98 -24 LINE",
"176 49 LINE",
"239 1 OFFCURVE",
"318 -24 OFFCURVE",
"401 -23 CURVE SMOOTH"
);
},
{
closed = 1;
nodes = (
"316 -8 OFFCURVE",
"237 19 OFFCURVE",
"176 71 CURVE",
"98 -2 LINE",
"32 65 LINE",
"112 140 LINE",
"73 198 OFFCURVE",
"52 268 OFFCURVE",
"53 340 CURVE",
"50 536 OFFCURVE",
"204 690 OFFCURVE",
"401 687 CURVE SMOOTH",
"484 688 OFFCURVE",
"560 663 OFFCURVE",
"621 613 CURVE",
"703 690 LINE",
"769 623 LINE",
"686 546 LINE",
"729 486 OFFCURVE",
"751 415 OFFCURVE",
"750 340 CURVE SMOOTH",
"753 145 OFFCURVE",
"598 -10 OFFCURVE",
"401 -7 CURVE SMOOTH"
);
},
{
closed = 1;
nodes = (
"350 96 OFFCURVE",
"304 109 OFFCURVE",
"268 134 CURVE",
"613 456 LINE",
"629 421 OFFCURVE",
"637 382 OFFCURVE",
"637 340 CURVE SMOOTH",
"637 195 OFFCURVE",
"541 96 OFFCURVE",
"401 96 CURVE SMOOTH"
);
},
{
closed = 1;
nodes = (
"550 80 OFFCURVE",
"653 187 OFFCURVE",
"653 340 CURVE SMOOTH",
"653 393 OFFCURVE",
"641 441 OFFCURVE",
"617 482 CURVE",
"243 132 LINE",
"285 98 OFFCURVE",
"340 80 OFFCURVE",
"401 80 CURVE SMOOTH"
);
},
{
closed = 1;
nodes = (
"172 264 OFFCURVE",
"165 300 OFFCURVE",
"165 340 CURVE SMOOTH",
"165 483 OFFCURVE",
"263 585 OFFCURVE",
"401 585 CURVE SMOOTH",
"449 585 OFFCURVE",
"493 573 OFFCURVE",
"529 551 CURVE",
"187 231 LINE"
);
},
{
closed = 1;
nodes = (
"555 553 LINE",
"512 585 OFFCURVE",
"459 601 OFFCURVE",
"401 601 CURVE SMOOTH",
"254 601 OFFCURVE",
"149 492 OFFCURVE",
"149 340 CURVE SMOOTH",
"149 289 OFFCURVE",
"160 244 OFFCURVE",
"182 205 CURVE"
);
}
);
width = 803;
}
);
leftKerningGroup = C;
note = Oslash.ss02;
rightKerningGroup = O;
},
{
glyphname = Otilde.ss02;
lastChange = "2018-03-11 16:48:06 +0000";
layers = (
{
hints = (
{
horizontal = 1;
place = "{-15, 103}";
type = Stem;
},
{
horizontal = 1;
place = "{593, 102}";
type = Stem;
},
{
horizontal = 1;
place = "{743, 90}";
type = Stem;
},
{
place = "{45, 112}";
type = Stem;
},
{
place = "{645, 113}";
type = Stem;
},
{
horizontal = 1;
place = "{797, 90}";
type = Stem;
}
);
layerId = "8D160AFA-A4A8-46CF-B5C1-48E538516704";
paths = (
{
closed = 1;
nodes = (
"607 -26 OFFCURVE",
"769 136 OFFCURVE",
"766 340 CURVE",
"769 544 OFFCURVE",
"607 706 OFFCURVE",
"401 703 CURVE SMOOTH",
"196 706 OFFCURVE",
"34 544 OFFCURVE",
"37 340 CURVE SMOOTH",
"34 136 OFFCURVE",
"196 -26 OFFCURVE",
"401 -23 CURVE SMOOTH"
);
},
{
closed = 1;
nodes = (
"204 -10 OFFCURVE",
"50 144 OFFCURVE",
"53 340 CURVE",
"50 536 OFFCURVE",
"204 690 OFFCURVE",
"401 687 CURVE SMOOTH",
"598 690 OFFCURVE",
"753 535 OFFCURVE",
"750 340 CURVE SMOOTH",
"753 145 OFFCURVE",
"598 -10 OFFCURVE",
"401 -7 CURVE SMOOTH"
);
},
{
closed = 1;
nodes = (
"262 96 OFFCURVE",
"165 196 OFFCURVE",
"165 340 CURVE SMOOTH",
"165 483 OFFCURVE",
"263 585 OFFCURVE",
"401 585 CURVE SMOOTH",
"540 585 OFFCURVE",
"637 484 OFFCURVE",
"637 340 CURVE SMOOTH",
"637 195 OFFCURVE",
"541 96 OFFCURVE",
"401 96 CURVE SMOOTH"
);
},
{
closed = 1;
nodes = (
"550 80 OFFCURVE",
"653 187 OFFCURVE",
"653 340 CURVE SMOOTH",
"653 493 OFFCURVE",
"549 601 OFFCURVE",
"401 601 CURVE SMOOTH",
"254 601 OFFCURVE",
"149 492 OFFCURVE",
"149 340 CURVE SMOOTH",
"149 188 OFFCURVE",
"253 80 OFFCURVE",
"401 80 CURVE SMOOTH"
);
},
{
closed = 1;
nodes = (
"528 735 OFFCURVE",
"565 779 OFFCURVE",
"576 855 CURVE",
"478 891 LINE",
"472 867 OFFCURVE",
"473 841 OFFCURVE",
"455 841 CURVE SMOOTH",
"445 841 OFFCURVE",
"432 848 OFFCURVE",
"407 866 CURVE",
"402 868 LINE",
"409 868 LINE",
"409 869 LINE",
"403 869 LINE",
"385 881 OFFCURVE",
"359 895 OFFCURVE",
"327 895 CURVE SMOOTH",
"274 895 OFFCURVE",
"237 851 OFFCURVE",
"226 775 CURVE",
"324 739 LINE",
"330 763 OFFCURVE",
"329 789 OFFCURVE",
"347 789 CURVE SMOOTH",
"357 789 OFFCURVE",
"370 782 OFFCURVE",
"395 764 CURVE",
"400 762 LINE",
"393 762 LINE",
"393 761 LINE",
"399 761 LINE",
"417 749 OFFCURVE",
"443 735 OFFCURVE",
"475 735 CURVE SMOOTH"
);
},
{
closed = 1;
nodes = (
"452 751 OFFCURVE",
"430 759 OFFCURVE",
"407 776 CURVE",
"402 777 LINE",
"409 777 LINE",
"409 778 LINE",
"403 778 LINE",
"385 791 OFFCURVE",
"364 805 OFFCURVE",
"347 805 CURVE SMOOTH",
"321 805 OFFCURVE",
"315 780 OFFCURVE",
"312 761 CURVE",
"244 785 LINE",
"256 846 OFFCURVE",
"286 879 OFFCURVE",
"327 879 CURVE SMOOTH",
"350 879 OFFCURVE",
"372 871 OFFCURVE",
"395 854 CURVE",
"400 853 LINE",
"393 853 LINE",
"393 852 LINE",
"399 852 LINE",
"417 839 OFFCURVE",
"438 825 OFFCURVE",
"455 825 CURVE SMOOTH",
"481 825 OFFCURVE",
"487 850 OFFCURVE",
"490 869 CURVE",
"558 845 LINE",
"546 784 OFFCURVE",
"516 751 OFFCURVE",
"475 751 CURVE SMOOTH"
);
}
);
width = 803;
}
);
leftKerningGroup = C;
note = Otilde.ss02;
rightKerningGroup = O;
},
{
glyphname = P.ss02;
lastChange = "2018-03-11 16:48:06 +0000";
layers = (
{
hints = (
{
horizontal = 1;
place = "{302, 102}";
type = Stem;
},
{
horizontal = 1;
place = "{591, 108}";
type = Stem;
},
{
place = "{240, 118}";
type = Stem;
},
{
place = "{617, 112}";
type = Stem;
},
{
horizontal = 1;
place = "{287, 108}";
type = Stem;
}
);
layerId = "8D160AFA-A4A8-46CF-B5C1-48E538516704";
paths = (
{
closed = 1;
nodes = (
"366 -8 LINE",
"366 583 LINE",
"523 583 LINE SMOOTH",
"571 583 OFFCURVE",
"609 543 OFFCURVE",
"609 493 CURVE SMOOTH",
"609 440 OFFCURVE",
"566 399 OFFCURVE",
"515 403 CURVE",
"515 279 LINE",
"636 275 OFFCURVE",
"737 373 OFFCURVE",
"737 493 CURVE SMOOTH",
"737 611 OFFCURVE",
"641 707 OFFCURVE",
"523 707 CURVE SMOOTH",
"232 707 LINE",
"232 412 LINE",
"42 412 LINE",
"42 294 LINE",
"232 294 LINE",
"232 -8 LINE"
);
},
{
closed = 1;
nodes = (
"248 310 LINE",
"58 310 LINE",
"58 396 LINE",
"248 396 LINE",
"248 691 LINE",
"523 691 LINE SMOOTH",
"632 691 OFFCURVE",
"721 602 OFFCURVE",
"721 493 CURVE SMOOTH",
"721 386 OFFCURVE",
"636 299 OFFCURVE",
"531 295 CURVE",
"531 387 LINE",
"584 392 OFFCURVE",
"625 437 OFFCURVE",
"625 493 CURVE SMOOTH",
"625 551 OFFCURVE",
"579 599 OFFCURVE",
"523 599 CURVE SMOOTH",
"350 599 LINE",
"350 8 LINE",
"248 8 LINE"
);
}
);
width = 821;
}
);
note = P.ss02;
rightKerningGroup = P;
},
{
glyphname = Q.ss02;
lastChange = "2018-03-11 16:48:06 +0000";
layers = (
{
hints = (
{
horizontal = 1;
place = "{604, 110}";
type = Stem;
},
{
place = "{69, 119}";
type = Stem;
},
{
place = "{379, 118}";
type = Stem;
},
{
place = "{679, 119}";
type = Stem;
}
);
layerId = "8D160AFA-A4A8-46CF-B5C1-48E538516704";
paths = (
{
closed = 1;
nodes = (
"505 -145 LINE",
"505 -17 LINE",
"679 17 OFFCURVE",
"806 170 OFFCURVE",
"806 349 CURVE SMOOTH",
"806 555 OFFCURVE",
"639 722 OFFCURVE",
"434 722 CURVE SMOOTH",
"229 722 OFFCURVE",
"61 554 OFFCURVE",
"61 349 CURVE SMOOTH",
"61 167 OFFCURVE",
"193 12 OFFCURVE",
"371 -18 CURVE",
"371 -145 LINE"
);
},
{
closed = 1;
nodes = (
"387 -4 LINE",
"210 19 OFFCURVE",
"77 171 OFFCURVE",
"77 349 CURVE SMOOTH",
"77 546 OFFCURVE",
"237 706 OFFCURVE",
"434 706 CURVE SMOOTH",
"630 706 OFFCURVE",
"790 546 OFFCURVE",
"790 349 CURVE SMOOTH",
"790 174 OFFCURVE",
"663 24 OFFCURVE",
"489 -3 CURVE",
"489 -129 LINE",
"387 -129 LINE"
);
},
{
closed = 1;
nodes = (
"269 140 OFFCURVE",
"196 238 OFFCURVE",
"196 349 CURVE SMOOTH",
"196 486 OFFCURVE",
"302 596 OFFCURVE",
"434 596 CURVE SMOOTH",
"565 596 OFFCURVE",
"671 485 OFFCURVE",
"671 349 CURVE SMOOTH",
"671 240 OFFCURVE",
"603 145 OFFCURVE",
"505 113 CURVE",
"505 230 LINE",
"371 230 LINE",
"371 110 LINE"
);
},
{
closed = 1;
nodes = (
"387 214 LINE",
"489 214 LINE",
"489 92 LINE",
"605 118 OFFCURVE",
"687 226 OFFCURVE",
"687 349 CURVE SMOOTH",
"687 494 OFFCURVE",
"574 612 OFFCURVE",
"434 612 CURVE SMOOTH",
"294 612 OFFCURVE",
"180 494 OFFCURVE",
"180 349 CURVE SMOOTH",
"180 223 OFFCURVE",
"267 114 OFFCURVE",
"387 90 CURVE"
);
}
);
width = 867;
}
);
leftKerningGroup = C;
note = Q.ss02;
rightKerningGroup = O;
},
{
glyphname = R.ss02;
lastChange = "2018-03-11 16:48:06 +0000";
layers = (
{
hints = (
{
horizontal = 1;
place = "{302, 102}";
type = Stem;
},
{
horizontal = 1;
place = "{612, 102}";
type = Stem;
},
{
place = "{104, 117}";
type = Stem;
},
{
place = "{507, 118}";
type = Stem;
}
);
layerId = "8D160AFA-A4A8-46CF-B5C1-48E538516704";
paths = (
{
closed = 1;
nodes = (
"229 -8 LINE",
"229 294 LINE",
"322 294 LINE",
"521 -8 LINE",
"676 -8 LINE",
"470 301 LINE",
"566 323 OFFCURVE",
"633 406 OFFCURVE",
"633 505 CURVE SMOOTH",
"633 632 OFFCURVE",
"542 722 OFFCURVE",
"414 722 CURVE SMOOTH",
"197 722 LINE",
"197 604 LINE",
"413 604 LINE SMOOTH",
"458 604 OFFCURVE",
"499 557 OFFCURVE",
"499 505 CURVE SMOOTH",
"499 454 OFFCURVE",
"460 412 OFFCURVE",
"413 412 CURVE SMOOTH",
"96 412 LINE",
"96 -8 LINE"
);
},
{
closed = 1;
nodes = (
"112 396 LINE",
"413 396 LINE SMOOTH",
"468 396 OFFCURVE",
"515 446 OFFCURVE",
"515 505 CURVE SMOOTH",
"515 566 OFFCURVE",
"467 620 OFFCURVE",
"413 620 CURVE SMOOTH",
"213 620 LINE",
"213 706 LINE",
"414 706 LINE SMOOTH",
"533 706 OFFCURVE",
"617 623 OFFCURVE",
"617 505 CURVE SMOOTH",
"617 406 OFFCURVE",
"544 324 OFFCURVE",
"443 312 CURVE",
"646 8 LINE",
"529 8 LINE",
"330 310 LINE",
"213 310 LINE",
"213 8 LINE",
"112 8 LINE"
);
}
);
width = 733;
}
);
note = R.ss02;
rightKerningGroup = R;
},
{
glyphname = S.ss02;
lastChange = "2018-03-11 16:48:06 +0000";
layers = (
{
hints = (
{
horizontal = 1;
place = "{602, 112}";
type = Stem;
},
{
place = "{49, 131}";
type = Stem;
},
{
place = "{376, 108}";
type = Stem;
}
);
layerId = "8D160AFA-A4A8-46CF-B5C1-48E538516704";
paths = (
{
closed = 1;
nodes = (
"572 -8 LINE",
"185 516 LINE",
"188 516 LINE",
"193 560 OFFCURVE",
"231 594 OFFCURVE",
"278 594 CURVE SMOOTH",
"331 594 OFFCURVE",
"372 551 OFFCURVE",
"368 500 CURVE",
"492 500 LINE",
"497 621 OFFCURVE",
"395 722 OFFCURVE",
"273 722 CURVE SMOOTH",
"146 722 OFFCURVE",
"39 615 OFFCURVE",
"41 490 CURVE",
"409 -8 LINE"
);
},
{
closed = 1;
nodes = (
"57 496 LINE",
"58 609 OFFCURVE",
"157 706 OFFCURVE",
"273 706 CURVE SMOOTH",
"381 706 OFFCURVE",
"471 621 OFFCURVE",
"476 516 CURVE",
"384 516 LINE",
"379 569 OFFCURVE",
"334 610 OFFCURVE",
"278 610 CURVE SMOOTH",
"220 610 OFFCURVE",
"172 564 OFFCURVE",
"172 508 CURVE",
"180 500 LINE",
"177 500 LINE",
"540 8 LINE",
"417 8 LINE"
);
}
);
width = 602;
}
);
leftKerningGroup = S.ss02;
note = S.ss02;
rightKerningGroup = S.ss02;
},
{
glyphname = T.ss02;
lastChange = "2018-03-11 16:48:06 +0000";
layers = (
{
hints = (
{
horizontal = 1;
place = "{598, 101}";
type = Stem;
},
{
place = "{305, 117}";
type = Stem;
}
);
layerId = "8D160AFA-A4A8-46CF-B5C1-48E538516704";
paths = (
{
closed = 1;
nodes = (
"430 244 LINE",
"430 590 LINE",
"698 590 LINE",
"698 707 LINE",
"30 707 LINE",
"30 590 LINE",
"297 590 LINE",
"297 244 LINE"
);
},
{
closed = 1;
nodes = (
"313 606 LINE",
"46 606 LINE",
"46 691 LINE",
"682 691 LINE",
"682 606 LINE",
"414 606 LINE",
"414 260 LINE",
"313 260 LINE"
);
}
);
width = 728;
}
);
leftKerningGroup = T;
note = T.ss02;
rightKerningGroup = T;
},
{
glyphname = U.ss02;
lastChange = "2018-03-11 16:48:06 +0000";
layers = (
{
hints = (
{
horizontal = 1;
place = "{-15, 109}";
type = Stem;
},
{
place = "{110, 117}";
type = Stem;
},
{
place = "{543, 117}";
type = Stem;
}
);
layerId = "8D160AFA-A4A8-46CF-B5C1-48E538516704";
paths = (
{
closed = 1;
nodes = (
"554 -23 OFFCURVE",
"668 88 OFFCURVE",
"668 254 CURVE SMOOTH",
"668 707 LINE",
"535 707 LINE",
"535 265 LINE SMOOTH",
"535 171 OFFCURVE",
"472 102 OFFCURVE",
"385 102 CURVE SMOOTH",
"298 102 OFFCURVE",
"235 171 OFFCURVE",
"235 265 CURVE SMOOTH",
"235 707 LINE",
"102 707 LINE",
"102 254 LINE SMOOTH",
"102 88 OFFCURVE",
"216 -23 OFFCURVE",
"385 -23 CURVE SMOOTH"
);
},
{
closed = 1;
nodes = (
"224 -7 OFFCURVE",
"118 97 OFFCURVE",
"118 254 CURVE SMOOTH",
"118 691 LINE",
"219 691 LINE",
"219 265 LINE SMOOTH",
"219 162 OFFCURVE",
"290 86 OFFCURVE",
"385 86 CURVE SMOOTH",
"480 86 OFFCURVE",
"551 162 OFFCURVE",
"551 265 CURVE SMOOTH",
"551 691 LINE",
"652 691 LINE",
"652 254 LINE SMOOTH",
"652 97 OFFCURVE",
"546 -7 OFFCURVE",
"385 -7 CURVE SMOOTH"
);
}
);
width = 770;
}
);
leftKerningGroup = U;
note = U.ss02;
rightKerningGroup = U;
},
{
glyphname = V.ss02;
lastChange = "2018-03-11 16:48:06 +0000";
layers = (
{
hints = (
{
place = "{20, 662}";
type = Stem;
}
);
layerId = "8D160AFA-A4A8-46CF-B5C1-48E538516704";
paths = (
{
closed = 1;
nodes = (
"359 246 LINE",
"698 707 LINE",
"542 707 LINE",
"351 451 LINE",
"161 707 LINE",
"4 707 LINE",
"343 246 LINE"
);
},
{
closed = 1;
nodes = (
"36 691 LINE",
"153 691 LINE",
"351 425 LINE",
"550 691 LINE",
"666 691 LINE",
"351 262 LINE"
);
}
);
width = 702;
}
);
leftKerningGroup = V.ss02;
note = V.ss02;
rightKerningGroup = V.ss02;
},
{
glyphname = W.ss02;
lastChange = "2018-03-11 16:48:06 +0000";
layers = (
{
hints = (
{
place = "{21, 1058}";
type = Stem;
}
);
layerId = "8D160AFA-A4A8-46CF-B5C1-48E538516704";
paths = (
{
closed = 1;
nodes = (
"757 70 LINE",
"1095 531 LINE",
"939 531 LINE",
"748 276 LINE",
"564 523 LINE",
"699 707 LINE",
"542 707 LINE",
"352 451 LINE",
"161 707 LINE",
"5 707 LINE",
"343 246 LINE",
"360 246 LINE",
"486 417 LINE",
"740 70 LINE"
);
},
{
closed = 1;
nodes = (
"486 443 LINE",
"352 262 LINE",
"351 262 LINE",
"37 691 LINE",
"153 691 LINE",
"352 425 LINE",
"550 691 LINE",
"667 691 LINE",
"544 523 LINE",
"748 250 LINE",
"947 515 LINE",
"1063 515 LINE",
"749 86 LINE",
"748 86 LINE"
);
}
);
width = 1101;
}
);
leftKerningGroup = V;
note = W.ss02;
rightKerningGroup = V;
},
{
glyphname = X.ss02;
lastChange = "2018-03-11 16:48:06 +0000";
layers = (
{
hints = (
{
place = "{30, 673}";
type = Stem;
}
);
layerId = "8D160AFA-A4A8-46CF-B5C1-48E538516704";
paths = (
{
closed = 1;
nodes = (
"709 -8 LINE",
"447 347 LINE",
"719 707 LINE",
"557 707 LINE",
"365 451 LINE",
"174 707 LINE",
"14 707 LINE",
"543 -8 LINE"
);
},
{
closed = 1;
nodes = (
"46 691 LINE",
"166 691 LINE",
"365 425 LINE",
"565 691 LINE",
"687 691 LINE",
"427 347 LINE",
"677 8 LINE",
"551 8 LINE"
);
}
);
width = 762;
}
);
leftKerningGroup = X;
note = X.ss02;
rightKerningGroup = X;
},
{
glyphname = Y.ss02;
lastChange = "2018-03-11 16:48:06 +0000";
layers = (
{
hints = (
{
place = "{305, 117}";
type = Stem;
}
);
layerId = "8D160AFA-A4A8-46CF-B5C1-48E538516704";
paths = (
{
closed = 1;
nodes = (
"430 -8 LINE",
"430 316 LINE",
"716 707 LINE",
"561 707 LINE",
"364 433 LINE",
"151 707 LINE",
"-4 707 LINE",
"297 317 LINE",
"297 -8 LINE"
);
},
{
closed = 1;
nodes = (
"313 323 LINE",
"28 691 LINE",
"143 691 LINE",
"364 407 LINE",
"569 691 LINE",
"684 691 LINE",
"414 322 LINE",
"414 8 LINE",
"313 8 LINE"
);
}
);
width = 720;
}
);
leftKerningGroup = Y;
note = Y.ss02;
rightKerningGroup = Y;
},
{
glyphname = Z.ss02;
lastChange = "2018-03-11 16:48:06 +0000";
layers = (
{
hints = (
{
horizontal = 1;
place = "{0, 102}";
type = Stem;
},
{
horizontal = 1;
place = "{597, 102}";
type = Stem;
},
{
place = "{41, 665}";
type = Stem;
}
);
layerId = "8D160AFA-A4A8-46CF-B5C1-48E538516704";
paths = (
{
closed = 1;
nodes = (
"721 -8 LINE",
"452 385 LINE",
"604 604 LINE",
"604 707 LINE",
"93 707 LINE",
"93 589 LINE",
"439 589 LINE",
"26 -8 LINE"
);
},
{
closed = 1;
nodes = (
"469 605 LINE",
"109 605 LINE",
"109 691 LINE",
"588 691 LINE",
"588 610 LINE",
"432 385 LINE",
"691 8 LINE",
"56 8 LINE"
);
},
{
closed = 1;
nodes = (
"374 272 LINE",
"485 110 LINE",
"262 110 LINE"
);
},
{
closed = 1;
nodes = (
"515 94 LINE",
"374 300 LINE",
"232 94 LINE"
);
}
);
width = 733;
}
);
leftKerningGroup = Z;
note = Z.ss02;
},
{
glyphname = A.ss03;
lastChange = "2018-03-11 16:48:06 +0000";
layers = (
{
hints = (
{
horizontal = 1;
place = "{0, 105}";
type = Stem;
},
{
place = "{21, 759}";
type = Stem;
}
);
layerId = "8D160AFA-A4A8-46CF-B5C1-48E538516704";
paths = (
{
closed = 1;
nodes = (
"795 -8 LINE",
"309 708 LINE",
"154 708 LINE",
"337 434 LINE",
"5 -8 LINE"
);
},
{
closed = 1;
nodes = (
"357 434 LINE",
"184 692 LINE",
"301 692 LINE",
"765 8 LINE",
"37 8 LINE"
);
},
{
closed = 1;
nodes = (
"411 324 LINE",
"553 113 LINE",
"254 113 LINE"
);
},
{
closed = 1;
nodes = (
"583 97 LINE",
"411 352 LINE",
"222 97 LINE"
);
}
);
width = 801;
}
);
leftKerningGroup = A.ss03;
note = A.ss03;
rightKerningGroup = A;
},
{
glyphname = AE.ss03;
lastChange = "2018-03-11 16:48:06 +0000";
layers = (
{
hints = (
{
horizontal = 1;
place = "{0, 102}";
type = Stem;
},
{
horizontal = 1;
place = "{302, 102}";
type = Stem;
},
{
horizontal = 1;
place = "{597, 102}";
type = Stem;
},
{
place = "{485, 118}";
type = Stem;
}
);
layerId = "8D160AFA-A4A8-46CF-B5C1-48E538516704";
paths = (
{
closed = 1;
nodes = (
"892 -8 LINE",
"892 110 LINE",
"611 110 LINE",
"611 294 LINE",
"802 294 LINE",
"802 412 LINE",
"611 412 LINE",
"611 589 LINE",
"892 589 LINE",
"892 707 LINE",
"481 707 LINE",
"10 -8 LINE"
);
},
{
closed = 1;
nodes = (
"489 691 LINE",
"876 691 LINE",
"876 605 LINE",
"595 605 LINE",
"595 396 LINE",
"786 396 LINE",
"786 310 LINE",
"595 310 LINE",
"595 94 LINE",
"876 94 LINE",
"876 8 LINE",
"40 8 LINE"
);
},
{
closed = 1;
nodes = (
"477 494 LINE",
"477 110 LINE",
"236 110 LINE"
);
},
{
closed = 1;
nodes = (
"493 94 LINE",
"493 550 LINE",
"208 94 LINE"
);
}
);
width = 980;
}
);
leftKerningGroup = A;
note = AE.ss03;
rightKerningGroup = AE;
},
{
glyphname = B.ss03;
lastChange = "2018-03-11 16:48:06 +0000";
layers = (
{
hints = (
{
horizontal = 1;
place = "{0, 102}";
type = Stem;
},
{
horizontal = 1;
place = "{303, 102}";
type = Stem;
},
{
horizontal = 1;
place = "{613, 102}";
type = Stem;
},
{
place = "{104, 118}";
type = Stem;
},
{
place = "{544, 118}";
type = Stem;
},
{
place = "{470, 118}";
type = Stem;
}
);
layerId = "8D160AFA-A4A8-46CF-B5C1-48E538516704";
paths = (
{
closed = 1;
nodes = (
"427 -8 LINE SMOOTH",
"583 -8 OFFCURVE",
"670 67 OFFCURVE",
"670 202 CURVE SMOOTH",
"670 282 OFFCURVE",
"612 356 OFFCURVE",
"531 382 CURVE",
"568 407 OFFCURVE",
"596 462 OFFCURVE",
"596 514 CURVE SMOOTH",
"596 645 OFFCURVE",
"500 726 OFFCURVE",
"348 723 CURVE",
"348 605 LINE",
"413 608 OFFCURVE",
"462 568 OFFCURVE",
"462 514 CURVE SMOOTH",
"462 453 OFFCURVE",
"418 413 OFFCURVE",
"350 413 CURVE SMOOTH",
"96 413 LINE",
"96 -8 LINE"
);
},
{
closed = 1;
nodes = (
"112 397 LINE",
"350 397 LINE SMOOTH",
"427 397 OFFCURVE",
"478 444 OFFCURVE",
"478 514 CURVE SMOOTH",
"478 572 OFFCURVE",
"430 617 OFFCURVE",
"364 621 CURVE",
"364 707 LINE",
"498 704 OFFCURVE",
"580 631 OFFCURVE",
"580 514 CURVE SMOOTH",
"580 447 OFFCURVE",
"529 374 OFFCURVE",
"480 386 CURVE",
"478 376 LINE",
"577 370 OFFCURVE",
"654 290 OFFCURVE",
"654 202 CURVE SMOOTH",
"654 76 OFFCURVE",
"574 8 OFFCURVE",
"427 8 CURVE SMOOTH",
"112 8 LINE"
);
},
{
closed = 1;
nodes = (
"230 295 LINE",
"396 295 LINE SMOOTH",
"483 295 OFFCURVE",
"536 260 OFFCURVE",
"536 202 CURVE SMOOTH",
"536 141 OFFCURVE",
"500 110 OFFCURVE",
"427 110 CURVE SMOOTH",
"230 110 LINE"
);
},
{
closed = 1;
nodes = (
"427 94 LINE SMOOTH",
"508 94 OFFCURVE",
"552 131 OFFCURVE",
"552 202 CURVE SMOOTH",
"552 270 OFFCURVE",
"492 311 OFFCURVE",
"396 311 CURVE SMOOTH",
"214 311 LINE",
"214 94 LINE"
);
}
);
width = 740;
}
);
note = B.ss03;
rightKerningGroup = B;
},
{
glyphname = C.ss03;
lastChange = "2018-03-11 16:48:06 +0000";
layers = (
{
hints = (
{
horizontal = 1;
place = "{-14, 109}";
type = Stem;
},
{
horizontal = 1;
place = "{590, 109}";
type = Stem;
},
{
place = "{88, 119}";
type = Stem;
},
{
place = "{498, 117}";
type = Stem;
}
);
layerId = "8D160AFA-A4A8-46CF-B5C1-48E538516704";
paths = (
{
closed = 1;
nodes = (
"506 103 LINE",
"370 101 OFFCURVE",
"215 163 OFFCURVE",
"215 340 CURVE SMOOTH",
"215 511 OFFCURVE",
"358 579 OFFCURVE",
"490 582 CURVE",
"490 370 LINE",
"623 370 LINE",
"623 707 LINE",
"498 707 LINE SMOOTH",
"294 707 OFFCURVE",
"80 602 OFFCURVE",
"80 340 CURVE SMOOTH",
"80 76 OFFCURVE",
"300 -25 OFFCURVE",
"506 -22 CURVE"
);
},
{
closed = 1;
nodes = (
"292 -3 OFFCURVE",
"96 92 OFFCURVE",
"96 340 CURVE SMOOTH",
"96 592 OFFCURVE",
"298 691 OFFCURVE",
"498 691 CURVE SMOOTH",
"607 691 LINE",
"607 386 LINE",
"506 386 LINE",
"506 598 LINE",
"367 601 OFFCURVE",
"199 529 OFFCURVE",
"199 340 CURVE SMOOTH",
"199 159 OFFCURVE",
"354 90 OFFCURVE",
"490 87 CURVE",
"490 -6 LINE"
);
}
);
width = 714;
}
);
leftKerningGroup = C;
note = C.ss03;
},
